<?xml version="1.0" standalone="no"?>
<!DOCTYPE svg PUBLIC "-//W3C//DTD SVG 1.1//EN" "http://www.w3.org/Graphics/SVG/1.1/DTD/svg11.dtd" >
<svg xmlns="http://www.w3.org/2000/svg" xmlns:xlink="http://www.w3.org/1999/xlink" version="1.1">
<metadata>
Created by FontForge 20161013 at Fri Mar  8 21:51:41 2013
 By ,,,
Version 1.0/ created on 22-11-94/(c)1994 by Dutch Type Library/URW#F063013T
</metadata>
<defs>
<font id="DTLFleischmannT" horiz-adv-x="500" >
  <font-face 
    font-family="DTLFleischmannT"
    font-weight="550"
    font-stretch="normal"
    units-per-em="1000"
    panose-1="2 0 6 5 7 0 0 2 0 4"
    ascent="740"
    descent="-260"
    x-height="486"
    cap-height="712"
    bbox="-163 -280 1193 996"
    underline-thickness="20"
    underline-position="-173"
    unicode-range="U+0020-FB02"
  />
<missing-glyph 
 />
    <glyph glyph-name="fi" unicode="fi" horiz-adv-x="617" 
d="M596 18q0 -20 -23 -20q-2 0 -6.5 0.5t-7.5 0.5q-33 3 -79 3q-60 0 -94 -3q-5 -1 -13 -1q-24 0 -24 19q0 22 26 22h4h3q29 0 36.5 8.5t7.5 41.5v24v222q0 49 -13 64t-55 17l-36 1h-112v-308q0 -52 7 -60q8 -8 41 -8q21 -1 27.5 -4.5t6.5 -15.5q0 -23 -19 -23h-8
q-40 4 -103 4q-70 0 -93 -3h-11q-22 0 -22 19q0 21 22 22l16 1q4 0 7.5 0.5t5.5 0.5h2q16 0 21.5 4.5t5.5 17.5v3.5t0.5 7.5t0.5 11q1 9 1 24v307q-22 0 -39 -1q-12 -1 -26 -1q-12 0 -16.5 5.5t-4.5 19.5q0 26 21 26q1 0 8 -0.5t13 -0.5q40 -2 45 -2q4 70 17.5 113t42.5 78
q73 89 208 89q68 0 107 -24t39 -66q0 -26 -18 -43.5t-45 -17.5t-45 16.5t-23 45.5l-3 18q-4 31 -46 31q-35 0 -66.5 -19t-46.5 -50q-26 -54 -31 -174h131q88 0 121 19l25 15q8 5 15 5q6 0 15 -7q8 -8 8 -14t-1 -10q-5 -25 -5 -67v-291l1 -37q0 -20 6.5 -27.5t25.5 -7.5h2
l3 1q40 0 40 -21z" />
    <glyph glyph-name="fl" unicode="fl" horiz-adv-x="632" 
d="M611 17q0 -18 -20 -18q-10 0 -18 1q-4 1 -36 1l-54 2l-56 -2q-9 0 -17.5 -0.5t-13.5 -1t-7 -0.5q-5 -1 -13 -1q-19 0 -19 21q0 20 30 20q36 2 43 7q10 9 10 62v333q-25 -14 -54 -18q-60 -6 -111 -6l-48 1h-17v-309q0 -52 7 -60q8 -8 41 -8q21 -1 27.5 -4.5t6.5 -15.5
q0 -23 -19 -23h-8q-40 4 -103 4q-70 0 -93 -3h-11q-22 0 -22 19q0 21 22 22l16 1q4 0 7.5 0.5t5.5 0.5h2q16 0 21.5 4.5t5.5 17.5v3.5t0.5 7.5t0.5 11q1 9 1 24v307q-22 0 -39 -1q-12 -1 -26 -1q-12 0 -16.5 5.5t-4.5 19.5q0 26 22 26h8q7 -1 12 -1q6 0 13 -0.5t11.5 -1
t9.5 -0.5h10q2 124 65 197.5t167 73.5q42 0 81 -14q12 -4 19 -4q11 0 34 13q22 13 32 13q21 0 21 -20q0 -8 -1 -13q0 -2 -0.5 -8.5t-0.5 -10.5q-2 -17 -2 -55v-522q0 -41 1 -50t8 -15q6 -6 35 -8q20 -1 27 -5.5t7 -17.5zM440 465v145q-27 13 -50 51q-10 19 -22 25.5t-34 6.5
q-125 0 -125 -214v-17h149h34q33 1 48 3z" />
    <glyph glyph-name=".notdef" 
 />
    <glyph glyph-name=".null" horiz-adv-x="0" 
 />
    <glyph glyph-name="nonmarkingreturn" horiz-adv-x="333" 
 />
    <glyph glyph-name="space" unicode=" " horiz-adv-x="200" 
 />
    <glyph glyph-name="exclam" unicode="!" horiz-adv-x="303" 
d="M216 633q0 -47 -14 -144l-9 -60q-12 -76 -16 -148l-2 -37l-1 -24q-1 -27 -23 -27q-14 0 -19 8.5t-5 39.5q0 24 -1 42q-4 69 -5 79q-3 39 -17 124l-7 43q-9 67 -9 109q0 44 18 69.5t47 25.5q63 0 63 -100zM220 55q0 -28 -20 -48t-48 -20t-48 20t-20 48t20 48t48 20
t48 -19.5t20 -48.5z" />
    <glyph glyph-name="quotedbl" unicode="&#x22;" horiz-adv-x="345" 
d="M289 677q0 -8 -3 -28l-26 -185q-1 -14 -4.5 -18.5t-12.5 -4.5q-16 0 -20 23l-26 197q0 3 -0.5 7.5t-0.5 6.5q0 23 13 36t35 13q21 0 33 -12.5t12 -34.5zM149 677q0 -8 -3 -28l-26 -185q-1 -14 -4.5 -18.5t-12.5 -4.5q-16 0 -20 23l-26 197q0 3 -0.5 7.5t-0.5 6.5
q0 23 13 36t35 13q21 0 33 -12.5t12 -34.5z" />
    <glyph glyph-name="numbersign" unicode="#" horiz-adv-x="738" 
d="M699 474q0 -17 -12 -36q-20 3 -45 3q-8 1 -26 1.5t-27 0.5h-44q-16 0 -28 -1l-25 -138h11q65 0 121 4q4 1 13 1q30 0 30 -23q0 -11 -6 -22q-4 -13 -5 -14q-77 5 -108 5h-51l-12 -1q0 -5 -2 -11q-2 -15 -15 -85q-4 -20 -6.5 -37.5t-5 -31t-2.5 -15.5q-2 -11 -7 -61l-3 -19
h-7q-58 0 -58 38q0 8 5 28q4 12 8 33l14 64l16 82l3 16h-153l-2 -13l-14 -82l-16 -87q-8 -47 -9 -80l-18 2q-47 1 -47 39q0 11 3 23l10 35l14 63q15 67 18 84l3 14h-5q-13 0 -28 -0.5t-17 -0.5q-3 0 -8.5 -0.5t-16 -1t-20.5 -0.5q-23 -2 -33 -3q-7 -1 -19 -1q-28 0 -28 24
q0 15 14 37q21 -3 53 -5l57 -1q21 -1 44 -1q9 0 15 1l26 141q-88 -2 -133 -5q-4 -1 -12 -1q-17 0 -23.5 6.5t-6.5 21.5q0 14 14 35l17 -2q63 -6 90 -6q1 0 18.5 0.5t34.5 0.5h10l1 10l13 73l11 66l8 52l3 18q8 2 15 2q18 0 32 -11.5t14 -26.5q0 -11 -3 -25l-10 -32
q-11 -43 -26 -126l154 1l2 9q14 75 23 144q6 42 6 51q0 1 1 5q0 2 0.5 3t1 3t0.5 4h11q23 0 37 -11t14 -28q0 -8 -5 -28q-1 -1 -7 -30l-13 -54l-12 -62l-1 -5h9l49 1l44 1q5 0 12 0.5t11.5 1t7.5 0.5q1 0 5.5 0.5t6.5 0.5q27 0 27 -25zM459 444l-152 -1l-28 -141l154 2z" />
    <glyph glyph-name="dollar" unicode="$" horiz-adv-x="568" 
d="M510 598q0 -29 -20 -48.5t-49 -19.5t-50 20t-21 48q0 36 28 53q6 5 6 6q0 23 -86 33l-1 -9l-3 -111l-2 -114l-1 -21q61 -30 104 -61q90 -67 90 -170q0 -89 -55 -147t-147 -67v-3l1 -24v-20q0 -17 -5 -21t-25 -4q-29 0 -29 21q0 1 0.5 4t0.5 5q1 5 2.5 20t2.5 20
q-86 4 -143.5 45t-57.5 99q0 31 20 51.5t52 20.5t52.5 -21t20.5 -52q0 -44 -36 -58q-11 -3 -11 -6q0 -11 30.5 -22t73.5 -16q5 61 6 137l2 128l1 26q-12 6 -13 7q-36 19 -81 44q-98 58 -98 164q0 80 56 134.5t143 59.5v4q0 4 -0.5 12.5t-1.5 11.5q-1 9 -1 18q0 25 34 25
q24 0 24 -22q0 -11 -1 -17q-1 -7 -3 -32q91 -9 141 -44t50 -87zM268 677v14q-50 -4 -79.5 -31.5t-29.5 -72.5q0 -49 38 -81q23 -20 68 -45v10l2 107zM422 151q0 40 -26 72.5t-87 69.5v-13q-2 -65 -5 -239v-12q53 8 85.5 41.5t32.5 80.5z" />
    <glyph glyph-name="percent" unicode="%" horiz-adv-x="779" 
d="M342 537q0 -89 -42 -144.5t-109 -55.5q-66 0 -107.5 53.5t-41.5 140.5q0 89 42.5 144.5t109.5 55.5q66 0 107 -53.5t41 -140.5zM607 703q0 -9 -17 -39l-22 -39l-36 -61l-44 -78l-58 -105l-53 -97q-50 -93 -59 -112l-56 -111q-9 -19 -15 -31t-11 -23.5t-10 -20.5
q-30 0 -42 7.5t-12 23.5q0 12 18 41t95 171l56 103l58 107l62 115q15 28 29.5 55t21 39.5t7.5 14.5q5 10 14 29t13 28l7 15h5q49 0 49 -32zM737 190q0 -90 -42 -145.5t-110 -55.5q-66 0 -107 53.5t-41 140.5q0 90 42 145.5t109 55.5t108 -53t41 -141zM257 546
q0 81 -13.5 115t-48.5 34t-50 -37t-17 -123v-11q0 -83 13.5 -117t48.5 -34q37 0 52 40.5t15 132.5zM652 192q0 81 -14 115t-49 34t-50 -37t-17 -123v-12q0 -82 14 -116t49 -34q36 0 51.5 40.5t15.5 132.5z" />
    <glyph glyph-name="ampersand" unicode="&#x26;" horiz-adv-x="849" 
d="M834 65q0 -18 -18 -28q-26 -18 -66 -31t-67 -13q-32 0 -64.5 23.5t-95.5 94.5l-8 9q-62 -73 -117.5 -103.5t-125.5 -30.5q-101 0 -161 63t-60 170q0 93 43 152t138 98q-45 67 -45 120q0 59 50 101t120 42q61 0 96 -28t35 -78q0 -62 -57 -101q-37 -23 -80 -41l14 -18
l87 -102q79 -94 85 -101q2 -2 7 -8t8 -9q15 25 31 57q45 88 45 120q0 12 -7.5 15.5t-38.5 5.5q-27 1 -34.5 6t-7.5 19q0 21 23 21q13 0 20 -1q15 -2 40 -3q27 -1 57 -1q66 0 98 5q3 0 6 0.5t5 1t4 0.5h3q24 0 24 -22q0 -14 -8.5 -19t-40.5 -6q-45 -4 -70 -34
q-23 -26 -38 -53q-32 -56 -42 -73q-21 -39 -42 -71l12 -12q80 -83 97 -100q37 -34 69 -34q20 0 42 9q8 5 19 5q7 0 11.5 -5t4.5 -12zM412 614q0 35 -19 57t-50 22q-30 0 -47.5 -18.5t-17.5 -50.5q0 -41 51 -113q38 17 58 36q25 23 25 67zM489 151q-55 57 -121 138
q-58 69 -116 152q-84 -52 -84 -163q0 -105 41 -164.5t114 -59.5q46 0 81 20.5t85 76.5z" />
    <glyph glyph-name="quotesingle" unicode="'" horiz-adv-x="205" 
d="M149 677q0 -8 -3 -28l-26 -185q-1 -14 -4.5 -18.5t-12.5 -4.5q-16 0 -20 23l-26 197q0 3 -0.5 7.5t-0.5 6.5q0 23 13 36t35 13q21 0 33 -12.5t12 -34.5z" />
    <glyph glyph-name="parenleft" unicode="(" horiz-adv-x="427" 
d="M463 -231q0 -13 -8.5 -22t-19.5 -9q-19 0 -60.5 23.5t-87.5 59.5q-110 89 -168.5 209t-58.5 258q0 218 139 383q80 92 183 148q39 20 53 20q11 0 19.5 -9.5t8.5 -22.5q0 -12 -7.5 -19.5t-28.5 -16.5q-43 -23 -49 -26q-36 -23 -78 -61.5t-68 -74.5q-40 -52 -63 -108
q-44 -104 -44 -213q0 -64 13 -119q27 -113 94 -203q35 -45 81 -84q32 -28 52.5 -42t61.5 -34q36 -17 36 -37z" />
    <glyph glyph-name="parenright" unicode=")" horiz-adv-x="427" 
d="M367 288q0 -219 -138 -383q-83 -93 -183 -147q-35 -20 -54 -20q-11 0 -19 9t-8 22q0 20 36 37q28 14 48 26q35 21 77 59.5t69 74.5q35 45 62 109q46 105 46 213q0 57 -13 119q-29 117 -95 202q-35 48 -80 85q-49 44 -114 77q-21 9 -28.5 16.5t-7.5 19.5q0 13 8 22.5
t19 9.5q19 0 61.5 -24t87.5 -60q110 -90 168 -209.5t58 -257.5z" />
    <glyph glyph-name="asterisk" unicode="*" horiz-adv-x="497" 
d="M423 450q0 -15 -11 -25t-29 -10q-16 0 -31 9q-12 6 -38 32q-22 22 -46 42q3 -26 13 -60q9 -34 9 -49q0 -22 -12.5 -38t-29.5 -16t-29 16t-12 39q0 13 9 48q7 25 13 59v1q-25 -20 -46 -42t-38 -32q-14 -9 -31 -9q-18 0 -29 10t-11 25q0 18 12 31q15 18 64 32q33 9 60 19
h-1q-16 7 -59 18q-31 9 -46 17q-30 17 -30 46q0 15 11 24.5t29 9.5t31 -8q18 -11 38 -33q13 -14 46 -41v1q-3 24 -13 59q-9 34 -9 49q0 22 12.5 38t29.5 16t29 -16.5t12 -38.5q0 -13 -9 -48q-10 -37 -13 -59v-1q32 27 46 41q21 23 38 33q14 8 31 8q18 0 29 -9.5t11 -24.5
q0 -17 -12 -31q-16 -19 -64 -32q-36 -9 -59 -19q28 -11 58 -18q33 -9 47 -17q30 -18 30 -46z" />
    <glyph glyph-name="plus" unicode="+" horiz-adv-x="614" 
d="M570 354q0 -17 -11 -32q-33 2 -89 2l-82 1h-41v-41l1 -92q2 -73 4 -110q-25 -8 -45 -8q-19 0 -44 8q3 78 3 110l1 92l1 41h-41h-76q-64 -1 -95 -3q-12 17 -12 32t12 33q32 -3 95 -4h76l41 -1l-1 41v94l-2 71v35q24 11 42 11q20 0 42 -12v-34l-1 -71l-1 -94v-41l41 1h75
q63 1 96 4q11 -17 11 -33z" />
    <glyph glyph-name="comma" unicode="," horiz-adv-x="313" 
d="M267 20q0 -82 -64 -146q-21 -21 -49 -38t-42 -17q-7 0 -12.5 5.5t-5.5 12.5q0 10 21 19q35 14 59.5 57t24.5 89q0 27 -12 40q-11 -53 -65 -53q-27 0 -44.5 17.5t-17.5 46.5q0 37 29 63t69 26q47 0 78 -34.5t31 -87.5z" />
    <glyph glyph-name="hyphen" unicode="-" horiz-adv-x="329" 
d="M281 281q0 -22 -7 -44l-23 1q-76 2 -90 2q-20 0 -80 -2l-25 -1q-8 19 -8 37q0 17 7 45q12 -2 22 -2q28 -2 88 -2h20q54 0 90 4q6 -22 6 -38z" />
    <glyph glyph-name="period" unicode="." horiz-adv-x="292" 
d="M225 66q0 -32 -23.5 -55.5t-55.5 -23.5t-55.5 23.5t-23.5 55.5t23.5 55.5t55.5 23.5t55.5 -23.5t23.5 -55.5z" />
    <glyph glyph-name="slash" unicode="/" horiz-adv-x="571" 
d="M533 801q0 -11 -17 -44l-38 -75l-44 -91l-56 -116l-76 -156l-67 -142q-61 -126 -77 -165l-73 -165q-19 -44 -46 -112h-8q-26 0 -40 11.5t-14 31.5q0 15 25 61q32 59 61 120l63 132l74 154l74 157l81 171q52 107 74 160q5 13 36 85l9 22q28 -1 43.5 -12t15.5 -27z" />
    <glyph glyph-name="zero" unicode="0" horiz-adv-x="652" 
d="M583 363q0 -179 -69 -279.5t-192 -100.5q-120 0 -187.5 95.5t-67.5 264.5q0 179 69 280t191 101q125 0 195 -107q61 -94 61 -254zM460 385q0 166 -30 234t-103 68q-75 0 -106 -83.5t-31 -283.5q0 -165 29.5 -232.5t101.5 -67.5q43 0 69.5 22t41.5 71q28 90 28 272z" />
    <glyph glyph-name="one" unicode="1" horiz-adv-x="652" 
d="M523 20q0 -23 -25 -23q-2 0 -7 0.5t-8 0.5q-12 2 -34 2l-49 2q-7 1 -34 1h-26q-35 -1 -71 -1l-49 -2l-35 -1q-7 -1 -18 -1q-24 0 -24 22q0 24 26 24h12q7 -1 26 -1q14 -1 25 -1h8q28 0 36 11.5t8 51.5v434q0 12 1 23q2 19 7 36q-29 -20 -66 -39q-83 -40 -104 -40
q-9 0 -15.5 7t-6.5 15q0 7 3 11q5 7 38 20q17 7 50 24q19 10 38.5 20.5t20.5 10.5q62 36 102 76q22 22 39 22q11 0 18.5 -7.5t7.5 -18.5q0 -8 -3 -14l-7 -23q-4 -11 -5 -24q-4 -29 -4 -73v-458l1 -25q0 -23 7 -30.5t30 -7.5h4h4q3 0 9 0.5t13 0.5h22q35 0 35 -25z" />
    <glyph glyph-name="two" unicode="2" horiz-adv-x="652" 
d="M580 164q0 -5 -5 -17l-12 -28q-23 -49 -38 -120l-36 2q-94 5 -170 5h-89q-45 0 -53 -1q-18 0 -51 -3q-9 -1 -20.5 -2.5t-13.5 -1.5q-12 -2 -16 -2q-23 0 -23 21q0 16 29 38q118 89 224 204q122 135 122 227q0 62 -37.5 99t-101.5 37t-101.5 -36.5t-37.5 -98.5
q0 -22 2 -30q2 -14 2 -15q0 -15 -17 -15q-15 0 -26.5 29t-11.5 69q0 87 63.5 144.5t159.5 57.5t155 -54.5t59 -143.5q0 -96 -76 -186t-203 -188l-73 -54l-17 -13l4 -5q30 17 58 21q31 5 88 5h28q37 -1 63 -1q58 0 82.5 7.5t33.5 28.5l9 23q9 18 24 18q23 0 23 -21z" />
    <glyph glyph-name="three" unicode="3" horiz-adv-x="652" 
d="M556 202q0 -97 -71 -157.5t-186 -60.5q-91 0 -150.5 36.5t-59.5 91.5q0 34 23.5 57t58.5 23q29 0 48.5 -18.5t19.5 -46.5q0 -26 -19 -45q-15 -12 -15 -21q0 -8 13 -16q32 -19 74 -19q64 0 103.5 42t39.5 109q0 68 -40 109.5t-107 41.5q-9 0 -14 -1q-10 -1 -24 -1
q-20 0 -20 19q0 10 7 15t27 10q65 14 109.5 58.5t44.5 96.5q0 48 -31.5 77.5t-82.5 29.5q-62 0 -97 -32.5t-38 -92.5q-1 -22 -18 -22q-27 0 -27 56q0 79 62.5 131.5t155.5 52.5q83 1 135 -41t52 -108q0 -72 -58 -127q-22 -22 -42.5 -33t-59.5 -25q88 -10 137.5 -60
t49.5 -129z" />
    <glyph glyph-name="four" unicode="4" horiz-adv-x="652" 
d="M607 230q0 -16 -4 -19q-1 -3 -8 -3h-12h-80h-16q-13 0 -29 5q6 -22 6 -40v-66v-35q0 -14 6 -21q7 -9 39 -9q28 0 28 -23q0 -22 -23 -22q-8 0 -13 1q-16 2 -39 2q-46 2 -67 2q-55 0 -84 -4q-1 0 -4 -0.5t-5 -0.5q-20 0 -20 20q0 23 33 23q28 0 37 14q6 7 6 43v77
q0 23 6 40q-14 -6 -39 -6h-256q-21 0 -29 4.5t-8 16.5q0 7 5 14q2 4 8 10l349 437q7 10 15 17q15 15 35 15q28 0 28 -19q0 -3 -2 -13q-1 -7 -3 -26q-1 -28 -3 -34v-39v-254q0 -15 -7 -53q13 5 36 5h92l10 -1q6 0 9 -4q3 -3 3 -19v-35zM378 621l-4 1q-14 -28 -16 -33
q-3 -3 -21 -29q-5 -7 -10.5 -15t-8 -11.5t-3.5 -4.5l-135 -179q-6 -8 -23 -27q-8 -9 -16 -17.5t-11.5 -12.5t-4.5 -5q-1 -2 -6 -7t-8 -10q17 7 19 8q32 10 71 10h120l5 -1h10q19 -1 29 -5q-7 22 -7 36v191q0 18 3 41q4 30 14 60q1 2 3 10z" />
    <glyph glyph-name="five" unicode="5" horiz-adv-x="652" 
d="M551 236q0 -114 -73 -183.5t-192 -69.5q-83 0 -135 35.5t-52 92.5q0 35 22.5 57t56.5 22q30 0 50 -17.5t20 -43.5q0 -36 -27 -56q-8 -6 -8 -9q0 -15 28 -27.5t64 -12.5q68 0 108 44t40 120q0 88 -55.5 137.5t-152.5 49.5q-28 0 -37 -2l-32 -7q-6 -1 -16 -1q-19 0 -19 14
q0 6 5 16q21 49 37 160l10 77q5 34 3 51q-1 5 -1 13q0 17 14 17q5 0 12 -4q20 -8 66 -8h161q36 0 50 10l21 16q4 4 14 4q18 0 18 -15q0 -5 -4 -13l-7 -21q-12 -34 -17 -62q-6 -27 -19 -27q-4 0 -14 2q-19 4 -66 6l-53 1l-56 1h-83q-3 -29 -10 -66q-8 -42 -14 -63q48 9 83 9
q115 0 187.5 -68.5t72.5 -178.5z" />
    <glyph glyph-name="six" unicode="6" horiz-adv-x="652" 
d="M559 236q0 -115 -64 -183t-172 -68q-107 0 -170.5 71t-63.5 192q0 204 190 356q72 59 188 115q37 18 57 18q10 0 17.5 -5t7.5 -12q0 -9 -20 -20q-53 -28 -106 -69t-83 -74q-37 -39 -83 -111q48 23 92 23q94 0 152 -64.5t58 -168.5zM437 223q0 100 -31.5 155t-87.5 55
q-33 0 -76 -22q-6 -10 -10 -21q-27 -68 -27 -164q0 -98 30.5 -150.5t86.5 -52.5q41 0 65 19t36 61q14 54 14 120z" />
    <glyph glyph-name="seven" unicode="7" horiz-adv-x="652" 
d="M617 685q0 -9 -9 -20l-17 -22q-18 -22 -32 -43q-86 -123 -153 -234q-53 -89 -106 -185q-20 -35 -20 -53q0 -10 3.5 -14.5t18.5 -12.5q29 -17 29 -50q0 -31 -22.5 -50t-59.5 -19q-32 0 -51.5 18t-19.5 47q0 32 31 91q22 40 34 60q44 75 122 191l62 91q50 75 66 97
q2 3 9.5 13l13.5 18q-27 -8 -47 -10t-82 -2h-39q-7 1 -53 1l-49 1h-6q-35 0 -51.5 -8.5t-29.5 -33.5q-13 -23 -29 -23q-20 0 -20 17q0 8 5 17l13 27q23 48 32 86q6 30 9 38q6 19 22 19q11 0 15 -4q1 0 14 -15q12 -15 39 -15h252l33 2q28 2 29 2q4 0 8.5 0.5t7.5 1t4 0.5
q10 0 17 -7.5t7 -16.5z" />
    <glyph glyph-name="eight" unicode="8" horiz-adv-x="652" 
d="M551 183q0 -93 -62.5 -146.5t-172.5 -53.5q-105 0 -168 53t-63 141q0 81 52 131.5t140 54.5v5q-77 7 -124.5 55t-47.5 118q0 85 61 135t165 50q100 0 157 -49.5t57 -136.5q0 -74 -48.5 -121t-127.5 -51v-5q86 -11 134 -58.5t48 -121.5zM428 554q0 72 -23.5 103.5
t-77.5 31.5q-105 0 -105 -158q0 -64 22 -97t80 -56q63 24 83.5 59t20.5 117zM429 191q0 71 -24.5 106t-85.5 50q-46 -12 -71 -36q-22 -21 -31 -52t-9 -87q0 -74 19 -108q24 -44 90 -44q61 0 86.5 38.5t25.5 132.5z" />
    <glyph glyph-name="nine" unicode="9" horiz-adv-x="652" 
d="M569 461q0 -203 -190 -356q-68 -55 -188 -116q-37 -18 -57 -18q-11 0 -18.5 5.5t-7.5 12.5q0 8 21 20q56 30 106 68q50 39 83 75q35 37 83 110q-49 -22 -92 -22q-94 0 -152 64t-58 168q0 115 64 183t172 68q107 0 170.5 -71t63.5 -191zM453 483q0 98 -30.5 150.5
t-87.5 52.5q-41 0 -64.5 -19t-35.5 -62q-15 -57 -15 -120q0 -99 31.5 -154.5t88.5 -55.5q34 0 76 23l9 21q28 67 28 164z" />
    <glyph glyph-name="colon" unicode=":" horiz-adv-x="310" 
d="M242 383q0 -30 -21.5 -51.5t-51.5 -21.5t-51.5 21.5t-21.5 51.5t21.5 51.5t51.5 21.5t51.5 -21.5t21.5 -51.5zM242 61q0 -31 -21.5 -52.5t-51.5 -21.5t-51.5 21.5t-21.5 52.5q0 30 21.5 51.5t51.5 21.5t51.5 -21.5t21.5 -51.5z" />
    <glyph glyph-name="semicolon" unicode=";" horiz-adv-x="341" 
d="M265 383q0 -30 -21.5 -51.5t-51.5 -21.5t-51.5 21.5t-21.5 51.5t21.5 51.5t51.5 21.5t51.5 -21.5t21.5 -51.5zM296 20q0 -81 -65 -146q-20 -21 -48.5 -38t-42.5 -17q-7 0 -12.5 5.5t-5.5 12.5q0 10 21 19q35 14 60 57t25 89q0 27 -13 40q-11 -53 -65 -53
q-28 0 -44.5 17.5t-16.5 46.5q0 37 28 63t70 26q47 0 78 -34.5t31 -87.5z" />
    <glyph glyph-name="less" unicode="&#x3c;" horiz-adv-x="544" 
d="M498 50l-453 303v13l453 291v-56l-322 -210l322 -216v-125z" />
    <glyph glyph-name="equal" unicode="=" horiz-adv-x="614" 
d="M570 418q0 -17 -11 -32q-7 0 -14.5 0.5t-8.5 0.5q-12 1 -101 1l-128 1l-127 -1q-90 0 -102 -1q-1 0 -8.5 -0.5t-14.5 -0.5q-11 17 -11 32q0 14 11 31q7 0 14.5 -0.5t8.5 -0.5h34q34 -1 68 -1l127 -1l128 1q33 0 66.5 0.5t34.5 0.5t8.5 0.5t14.5 0.5q11 -15 11 -31z
M570 290q0 -17 -11 -32q-12 1 -23 1q-3 0 -101 2l-128 1l-127 -1q-99 -2 -102 -2q-11 0 -22 -1q-12 17 -12 32t12 33q11 -2 22 -2q3 0 102 -2l127 -1l128 1q98 2 101 2q11 0 23 2q11 -17 11 -33z" />
    <glyph glyph-name="greater" unicode="&#x3e;" horiz-adv-x="544" 
d="M498 341l-453 -291v56l323 210l-323 216v125l453 -303v-13z" />
    <glyph glyph-name="question" unicode="?" horiz-adv-x="498" 
d="M449 542q0 -77 -42 -132q-18 -23 -38 -39t-68 -47q-53 -35 -60 -42q-9 -9 -9 -29q0 -16 9 -28t22 -12q23 0 23 22v3v5q0 24 24 24q29 0 29 -26q0 -28 -27.5 -48t-67.5 -20q-46 0 -75 31t-29 80q0 26 9 47q10 21 24 34q14 14 36 26q1 0 14.5 7.5t24.5 14.5q66 36 88 63
q33 36 33 91t-34 89t-89 34q-48 0 -80 -26.5t-32 -66.5q0 -8 3 -20q14 13 36 13q24 0 39.5 -16t15.5 -41q0 -29 -21 -49.5t-52 -20.5q-37 0 -60.5 27.5t-23.5 72.5q0 70 55.5 119t134.5 49q83 0 135.5 -52.5t52.5 -136.5zM307 55q0 -28 -20 -48t-48 -20t-48 20t-20 48
q0 29 19.5 48.5t48.5 19.5q28 0 48 -20t20 -48z" />
    <glyph glyph-name="at" unicode="@" horiz-adv-x="860" 
d="M789 273q0 -55 -45 -118q-56 -79 -142 -122.5t-186 -43.5q-161 0 -260 96.5t-99 253.5q0 171 113.5 280t292.5 109q130 0 209 -72t79 -190q0 -71 -35 -141t-96 -121q-60 -48 -102 -48q-28 0 -38 14.5t-10 51.5v3q-4 -3 -23.5 -24t-41.5 -35t-45 -14q-32 0 -53.5 26
t-21.5 63q0 51 49.5 91.5t139.5 64.5v50q0 43 -20 59q-22 18 -52 18q-21 0 -35 -3q-20 -4 -20 -14q0 -5 14 -16q20 -16 20 -38q0 -21 -15 -34.5t-39 -13.5q-22 0 -35.5 13t-13.5 35q0 31 26 57q25 25 63.5 41.5t73.5 16.5q46 0 77 -23q31 -24 31 -76v-46q-1 -51 -2 -83
l-2 -111q0 -21 15 -21q22 0 62 42q83 91 83 212q0 105 -67.5 169t-178.5 64q-145 0 -240 -100.5t-95 -254.5q0 -143 83 -229.5t219 -86.5q122 0 217.5 72t95.5 164q0 10 -3 31q0 5 -2 16q18 3 23 3q32 0 32 -37zM474 370q-114 -32 -114 -99q0 -26 9.5 -41t25.5 -15
q19 0 41.5 16t35.5 33z" />
    <glyph glyph-name="A" unicode="A" horiz-adv-x="823" 
d="M830 21q0 -13 -6 -17.5t-25 -4.5q-11 0 -55 2q-62 2 -85 2h-11q-3 0 -91 -2q-26 -1 -40 -3q-7 -1 -17 -1q-23 0 -23 23q0 22 32 23l26 1q27 2 38 7t11 17q0 9 -11 39l-75 190h-239l-77 -177q-17 -37 -17 -52q0 -14 20 -18q2 0 9.5 -1.5l12.5 -2.5q7 -1 16 -2.5t12 -1.5
q18 -2 25 -7t7 -17q0 -24 -24 -24q-2 0 -7 0.5t-8 0.5q-54 6 -97 6q-2 0 -6 -0.5t-6 -0.5l-53 -1q-22 0 -36 -2q-4 0 -10 -0.5t-8 -0.5q-19 0 -19 20q0 12 7 18t25 7q35 3 56 14q18 9 32 41q9 21 12 27l256 567l6 12q3 7 8 10q9 6 37 6q17 0 25 -5q6 -4 17 -31l215 -537
l14 -33l12 -27q14 -37 70 -39l20 -1q25 0 25 -24zM482 339l-68 174q-9 23 -17 58q-4 24 -5 60q-8 -32 -18 -60q-2 -7 -4.5 -14t-4 -10.5t-1.5 -4.5q-7 -21 -11 -29l-75 -174h204z" />
    <glyph glyph-name="B" unicode="B" horiz-adv-x="722" 
d="M669 194q0 -92 -68 -147q-36 -28 -82.5 -38t-138.5 -10h-49l-73 3h-44q-84 0 -136 -4q-5 -1 -15 -1q-24 0 -24 23q0 14 7.5 19t29.5 5q52 0 63 15q7 13 7 86v422l-1 33v34q-2 11 -7 19q-8 10 -34 11h-19q-27 1 -34 7q-10 8 -10 24q0 17 16 17q9 0 15 -1q15 -1 42 -3
q76 -2 85 -2q21 0 59 2l76 4q18 1 67 1q60 0 94.5 -8t63.5 -28q61 -43 61 -126q0 -146 -178 -170v-4q73 -1 120 -18q107 -42 107 -165zM491 539q0 36 -10 62q-7 23 -27 43q-19 17 -43 23.5t-72 6.5q-58 0 -67 -9q-10 -9 -10 -57v-217l16 -1q44 -2 51 -2q83 0 122.5 36.5
t39.5 114.5zM539 197q0 81 -45 119.5t-139 38.5h-18l-53 -3h-22v-242v-27q0 -31 18 -38.5t91 -7.5q168 0 168 160z" />
    <glyph glyph-name="C" unicode="C" horiz-adv-x="787" 
d="M741 495q0 -11 -6.5 -17.5t-17.5 -6.5q-19 0 -40.5 22.5t-62.5 83.5q-40 60 -69 78q-42 27 -105 27q-110 0 -168.5 -84.5t-58.5 -242.5q0 -164 63.5 -248.5t186.5 -84.5q65 0 123.5 29.5t98.5 81.5q12 17 24 17q10 0 17.5 -7.5t7.5 -18.5q0 -17 -21 -41
q-103 -112 -274 -112q-166 0 -265.5 102t-99.5 271t102 275t263 106q35 0 74 -6q44 -7 96 -24q15 -5 23 -5t15 5l13 10q11 10 24 10q17 0 23 -11t6 -41q0 -44 6 -74q2 -12 7 -32q5 -19 8 -30q7 -21 7 -32z" />
    <glyph glyph-name="D" unicode="D" horiz-adv-x="870" 
d="M796 356q0 -173 -100 -266.5t-287 -93.5q-16 0 -86 2q-92 4 -121 4h-7q-35 0 -66 -1q-36 -2 -52 -3q-5 -1 -16 -1q-14 0 -20 4.5t-6 17.5q0 22 26 22h25q42 0 51 10q7 9 9 29v34v507q0 31 -4 38t-23 7h-12q-9 -1 -29 -1q-18 0 -22 3q-11 6 -11 25q0 20 17 20q2 0 24 -2
q36 -4 130 -4h33l75 3q42 2 65 2q112 0 182 -21t125 -71q100 -88 100 -264zM662 361q0 228 -135 284q-54 23 -163 23q-75 0 -86 -11q-8 -7 -10.5 -20.5t-2.5 -56.5v-446q0 -44 1.5 -56.5t8.5 -19.5q15 -17 111 -17q146 0 211 75.5t65 244.5z" />
    <glyph glyph-name="E" unicode="E" horiz-adv-x="721" 
d="M704 177q0 -8 -7 -20l-9 -19q-26 -48 -26 -74q0 -6 3 -14l7 -12q2 -4 2 -9q0 -13 -8.5 -21t-21.5 -8h-14q-8 1 -40 1q-36 0 -73 1q-43 1 -190 1q-95 0 -124 -1l-63 -1l-54 -2q-16 0 -22 -1h-6q-13 0 -18 4.5t-5 17.5t6 18.5t21 5.5h3h21l20 1q22 2 29 10t7 33v522v23
q-2 13 -8 18q-8 10 -32 10h-20q-23 1 -30 5.5t-7 20.5q0 21 19 21h6q2 0 7 -0.5t10 -0.5l49 -2q35 -1 119 -1h89l133 2l65 1q16 0 40 2q16 2 20 2q24 0 24 -22q0 -9 -7 -20q-6 -11 -6 -17q0 -8 4 -17q15 -34 29 -58l10 -16q6 -8 6 -15q0 -10 -7.5 -17t-17.5 -7
q-19 0 -57.5 28.5t-74.5 68.5q-29 34 -41 38q-9 4 -60 4h-99l-21 -1q-15 0 -18 -3q-5 -5 -5 -41v-227q7 -1 14 -1q1 0 14 0.5t25 0.5q58 2 84 14q31 15 56 78q6 16 11.5 21t15.5 5q21 0 21 -21q0 -7 -1 -11q-6 -54 -6 -115q0 -5 0.5 -18t0.5 -21q1 -48 4 -70q1 -2 1 -7
q0 -21 -22 -21q-20 0 -27 26q-8 35 -19.5 53.5t-31.5 29.5q-17 11 -39 13q-6 1 -49 3q-10 1 -26 1q-14 0 -26 -1v-255q0 -32 5 -39q6 -6 39 -6h144q37 0 57 5q19 5 49 40q49 56 80 82q29 25 46 25q9 0 16 -6.5t7 -16.5z" />
    <glyph glyph-name="F" unicode="F" horiz-adv-x="701" 
d="M662 546q0 -10 -7 -17t-17 -7q-20 0 -57.5 27.5t-74.5 69.5q-29 32 -41 38q-9 4 -61 4h-99l-20 -1q-15 0 -19 -3.5t-4 -15.5v-25v-227q6 -1 13 -1q1 0 14 0.5t25 0.5q58 2 84 14q31 15 57 78q6 16 11 21t15 5q22 0 22 -21q0 -2 -0.5 -5.5t-0.5 -5.5q-6 -40 -6 -115v-39
q1 -36 5 -70v-7q0 -21 -22 -21q-21 0 -26 26q-16 64 -51 83q-19 11 -40 13q-6 1 -49 3q-9 1 -26 1q-14 0 -25 -1v-263q0 -27 6 -33q5 -7 19 -7q4 -1 14.5 -1.5t15.5 -0.5q18 -1 30 -1h6q22 0 28.5 -4.5t6.5 -19.5q0 -21 -25 -21h-12q-4 1 -14.5 1.5t-15.5 0.5l-60 2
q-13 0 -44.5 0.5t-45.5 0.5q-56 0 -100 -4q-4 -1 -11 -1q-25 0 -25 23q0 22 29 23h23l18 1q24 2 31 10t7 36v520q0 19 -1 23q0 11 -7 18q-8 10 -33 10h-20q-23 1 -30 5.5t-7 20.5q0 21 20 21h6q1 0 6.5 -0.5t10.5 -0.5l48 -2q35 -1 120 -1h89l133 2l65 1q16 0 40 2
q16 2 19 2q25 0 25 -23q0 -8 -9 -21q-5 -12 -5 -15q0 -22 34 -75q3 -4 7 -10l3 -6q5 -8 5 -15z" />
    <glyph glyph-name="G" unicode="G" horiz-adv-x="838" 
d="M820 263q0 -23 -27 -23q-21 0 -51 -3q-17 -3 -21.5 -12.5t-4.5 -40.5v-136l1 -15q0 -26 -28 -26q-11 0 -23 9q-21 15 -28 15q-6 0 -20 -8q-12 -6 -33 -15q-83 -32 -151 -32q-159 0 -259.5 103.5t-100.5 267.5q0 168 101.5 273t263.5 105q75 0 137 -20l33 -11q11 -3 19 -3
q11 0 19 7l8 7q11 11 27 11q26 0 26 -33q0 -30 4 -65q1 -5 2 -12t1.5 -12t1.5 -9q4 -19 18 -67q4 -11 4 -21q0 -23 -26 -23q-15 0 -35 18q-30 30 -68 87q-20 30 -25 37q-15 22 -39 39q-38 26 -101 26q-118 0 -175 -81t-57 -249q0 -328 227 -328q84 0 153 52v110q0 32 -9 44
q-7 8 -20 10h-23l-25 1q-18 1 -22 2t-8 7q-3 6 -3 16q0 20 19 20h15q10 -1 44 -3q80 -2 88 -2l81 1q49 2 50 2q4 0 10 0.5t8 0.5q13 0 17.5 -4.5t4.5 -16.5z" />
    <glyph glyph-name="H" unicode="H" horiz-adv-x="896" 
d="M857 21q0 -23 -22 -23q-7 0 -10 1q-8 0 -15 1l-61 2q-14 1 -54 1q-45 0 -61 -1l-38 -2l-32 -1h-16q-19 0 -19 22q0 23 28 23q9 0 15 -1h16q30 0 36 8q10 10 10 58v237h-372v-237v-30q0 -23 6.5 -28.5t35.5 -6.5h19q30 -1 37 -5t7 -21q0 -20 -20 -20l-12 1l-23 1l-44 2
q-17 1 -71 1q-37 0 -50 -1l-51 -2q-24 -2 -25 -2h-11q-21 0 -21 24q0 21 27 21q3 0 9 0.5t9 0.5h18q24 1 30 9q3 3 7 13q3 9 3 19v23v495q0 25 -4 43q-2 10 -8.5 13t-28.5 4l-18 1l-18 1q-12 1 -16.5 6.5t-4.5 19.5q0 11 4.5 15.5t15.5 4.5q4 0 6 -1h16l61 -2q15 -1 50 -1
q43 0 65 1l60 2q15 0 19 1h5q11 0 14.5 -4t3.5 -16q0 -13 -5 -18.5t-19 -5.5l-17 -1l-22 -1q-25 -1 -32 -8q-5 -5 -5 -14q0 -1 -2 -23v-17v-214h372v215v20q0 4 -0.5 10.5t-1.5 9.5q-2 12 -8 15.5t-29 4.5l-19 1h-19q-16 1 -20.5 5.5t-4.5 19.5q0 21 18 21q5 0 8 -1h20
l54 -2q4 0 29 -0.5t40 -0.5q13 0 29.5 0.5t19.5 0.5l56 2h21q1 0 2.5 0.5t2.5 0.5q11 0 15.5 -4.5t4.5 -17.5q0 -23 -24 -24h-16q-27 -2 -34 -3q-15 -1 -19 -8.5t-5 -32.5v-19v-493q0 -43 5.5 -52.5t31.5 -10.5l20 -1h20q15 -1 20.5 -6t5.5 -18z" />
    <glyph glyph-name="I" unicode="I" horiz-adv-x="417" 
d="M389 20q0 -23 -23 -23q-1 0 -6.5 0.5t-9.5 0.5q-45 5 -163 5q-63 0 -116 -5q-5 0 -11.5 -0.5t-8.5 -0.5q-23 0 -23 25q0 11 6 15.5t22 4.5h2q3 0 8 0.5t11 0.5h22q35 0 45 10q8 9 8 64v474l-1 26q-1 30 -7 38t-29 8q-4 0 -12 0.5t-13 0.5q-10 1 -21 1h-2q-28 0 -28 23
q0 14 5 19t20 5q9 0 13 -1q44 -4 141 -4q90 0 126 3q9 1 21 1q19 0 19 -23q0 -9 -2 -13q-3 -9 -10 -11t-33 -2h-17l-19 -1q-20 0 -25.5 -6.5t-6.5 -29.5v-21v-492v-26v-4q0 -24 8.5 -31t37.5 -8h25q11 0 20 1h3q13 0 18.5 -5t5.5 -19z" />
    <glyph glyph-name="J" unicode="J" horiz-adv-x="403" 
d="M392 691q0 -15 -7.5 -21t-28.5 -6l-7 1h-15q-19 0 -31 -1q-22 -1 -27 -9.5t-5 -47.5v-293q0 -70 -1 -109q-1 -156 -13 -231q-19 -119 -75.5 -176.5t-153.5 -57.5q-54 0 -83.5 20.5t-29.5 58.5q0 30 19.5 49t49.5 19q27 0 45.5 -15.5t18.5 -38.5q0 -12 -7 -27
q-3 -8 -3 -11q0 -13 20 -13q17 0 33 7q34 13 45.5 43t11.5 106q0 40 -1 102l-1 129q-1 43 -1 98l4 333l1 28q0 22 -9 29t-36 7q-3 0 -10.5 -0.5t-12.5 -0.5h-20q-32 0 -32 25q0 22 22 22h30l57 -3q9 0 32.5 -0.5t37.5 -0.5q95 0 139 4q9 1 22 1t17.5 -4.5t4.5 -15.5z" />
    <glyph glyph-name="K" unicode="K" horiz-adv-x="835" 
d="M845 20q0 -23 -27 -23q-9 0 -15 1q-49 6 -132 6q-81 0 -130 -6q-5 -1 -15 -1q-27 0 -27 23q0 22 27 24q24 2 31.5 5t7.5 13q0 8 -15 27l-17 21l-146 177q-17 21 -32 36q-24 25 -60 25q-12 0 -33 -4v-229l1 -29q0 -19 2 -27q5 -11 19 -13q12 0 27 -1l24 -1q20 0 26.5 -4.5
t6.5 -19.5q0 -23 -26 -23q-10 0 -17 1l-50 2q-32 2 -68 2h-10l-73 -2q-34 0 -46 -2h-14q-25 0 -25 24q0 13 6 17t26 5l25 2q22 2 29.5 4.5t11.5 11.5q6 10 6 49v501q0 34 -7.5 42t-41.5 9q-33 1 -41 5q-9 5 -9 21q0 22 21 22h16q16 -1 50 -3q37 -1 78 -1q96 0 120 3h12
q14 0 18.5 -4.5t4.5 -17.5t-6 -18t-21 -5q-28 0 -48 -2q-18 -1 -22.5 -11.5t-4.5 -50.5v-214l20 -1q5 -1 16 -1q37 0 55 9.5t47 43.5l123 149q9 11 21 27q20 27 20 37q0 13 -24 14q-35 0 -48 5q-15 3 -15 21q0 19 25 19q10 0 15 -1q2 0 15.5 -0.5t23.5 -0.5q17 0 34 -0.5
t25.5 -1t11.5 -0.5q5 0 71 2q24 0 40 2q5 1 12 1q19 0 19 -20q0 -22 -22 -23l-19 -2q-41 -2 -67 -13q-16 -6 -31 -19t-44 -47l-151 -174l226 -265l33 -40q30 -37 55.5 -50.5t63.5 -13.5q20 0 26 -4.5t6 -19.5z" />
    <glyph glyph-name="L" unicode="L" horiz-adv-x="725" 
d="M718 221q0 -9 -6 -19l-18 -36q-9 -21 -19 -46q-13 -35 -13 -51q0 -8 4 -15l2 -2q1 -1 3 -4t4 -5q9 -10 9 -20q0 -11 -7.5 -18t-19.5 -7q-3 0 -5 1l-30 2l-55 1h-67h-278q-10 0 -88 -2q-41 -2 -56 -4q-3 0 -9 -0.5t-8 -0.5q-26 0 -26 26q0 21 29 21q7 1 18 1q11 1 20 1
q26 1 34.5 9t8.5 33l1 33v476v27q0 26 -7.5 33.5t-33.5 7.5h-26q-20 0 -27 5t-7 19q0 13 4.5 18t17.5 5q9 0 13 -1q8 -1 38 -1q56 -2 96 -2q104 0 137 5q2 0 6 0.5t6 0.5q19 0 19 -19q0 -30 -32 -30q-12 0 -21 1q-5 0 -13.5 0.5t-12.5 0.5q-25 0 -31.5 -10.5t-6.5 -49.5
v-496q0 -44 10 -54q8 -8 71 -8h85q51 0 73 8t39 33l28 39q32 46 80 91q24 21 42 21q25 0 25 -18z" />
    <glyph glyph-name="M" unicode="M" horiz-adv-x="1058" 
d="M1016 19q0 -21 -28 -21q-12 0 -18 1q-1 0 -16.5 0.5t-29.5 0.5l-76 2q-9 0 -81 -2q-33 -2 -45 -3h-12q-24 0 -24 22q0 13 6.5 18t24.5 6l23 1l25 1q13 0 18 5q9 8 9 57v559q-11 -3 -16.5 -9.5t-14.5 -27.5l-191 -461q-42 -103 -50 -135q-6 -19 -11 -24t-16 -5t-15.5 3.5
t-8.5 16.5l-7 19l-10 27l-11 28l-234 541q-2 3 -3.5 6.5t-2.5 5.5t-1.5 4t-1.5 3q-4 7 -14 7l6 -548q0 -36 5 -50q5 -16 37 -19l28 -2q23 -2 30.5 -7t7.5 -18q0 -24 -24 -24q-3 0 -17 2q-1 0 -35 2q-36 1 -61 1q-32 0 -54 -1q-24 -2 -35 -3q-3 0 -7.5 -0.5t-5.5 -0.5
q-24 0 -24 23q0 14 11 19.5t42 6.5q33 2 41.5 13.5t8.5 54.5l2 488v5q0 38 -6 46q-8 11 -45 11q-30 0 -38 4q-10 5 -10 20q0 22 20 22q9 0 18 -1q2 0 6.5 -0.5t8.5 -0.5t11.5 -0.5t13.5 -0.5l67 -1q6 0 64 2h27l14 1h4q13 0 19 -5t14 -25l171 -414q18 -43 30 -111
q4 45 36 124l169 411q8 21 28 21q4 0 18 -1q5 0 19 -0.5t23 -0.5q26 -1 58 -1l66 1q7 0 15.5 0.5t14 1t9.5 0.5q4 1 10 1q20 0 20 -21q0 -13 -7 -17.5t-27 -5.5l-27 -2q-28 -1 -35 -7t-7 -32l-1 -23v-501q0 -40 8 -49q6 -8 39 -8l22 -1q22 0 29 -5t7 -20z" />
    <glyph glyph-name="N" unicode="N" horiz-adv-x="881" 
d="M860 689q0 -13 -8 -18.5t-29 -7.5q-45 -3 -56 -14q-10 -10 -10 -62l-5 -416v-67v-54l2 -29v-3q0 -15 -7.5 -21t-27.5 -6q-17 0 -26.5 7t-24.5 31q-17 26 -44 61l-441 568l6 -507l1 -49q1 -35 15 -45.5t62 -12.5q30 -1 30 -22q0 -24 -24 -24h-8q-25 3 -32 3q-22 2 -68 2
q-61 0 -95 -4q-5 -1 -13 -1q-22 0 -22 23q0 11 7 16.5t26 7.5l27 3q20 3 27.5 8t11.5 19q5 20 5 66l1 449v21q-2 31 -3 33q-6 19 -45 19l-24 1q-27 0 -27 25q0 21 22 21h12l37 -1l69 -2q4 0 25.5 0.5t38.5 0.5l32 2h10q17 0 32 -20l321 -411q35 -44 46 -68q15 -32 27 -87
l-1 25l-2 37l-2 36l-1 28l-1 325v31q-1 32 -9 42t-34 13l-30 4q-20 2 -27.5 7.5t-7.5 17.5q0 22 23 22q9 0 14 -1q13 -2 32 -3q46 -2 56 -2h10l63 2q27 0 32 1t13 1q19 0 19 -21z" />
    <glyph glyph-name="O" unicode="O" horiz-adv-x="885" 
d="M807 355q0 -170 -102.5 -276.5t-266.5 -106.5q-160 0 -260 106t-100 276q0 169 100 273q105 110 263 110q162 0 264 -106.5t102 -275.5zM669 354q0 339 -227 339q-226 0 -226 -339q0 -338 226 -338q227 0 227 338z" />
    <glyph glyph-name="P" unicode="P" horiz-adv-x="701" 
d="M637 495q0 -103 -62.5 -160.5t-173.5 -57.5q-60 0 -138 19v-176v-23q1 -37 8 -44q8 -8 39 -8h8l31 1q20 0 27.5 -5t7.5 -19t-5.5 -19t-20.5 -5h-11q-18 2 -46 2q-48 2 -89 2q-2 0 -12 -0.5t-31 -1t-43 -0.5q-8 0 -18 -0.5t-16 -1t-9 -0.5t-7.5 -0.5t-6.5 -0.5
q-29 0 -29 28q0 20 25 20h1h21h5q29 0 39.5 10t11.5 37l1 24v476q0 46 -7 57.5t-35 13.5q-40 2 -51.5 8t-11.5 24t17 18q8 0 12 -1q40 -6 112 -6q47 0 80 3l68 4q26 2 43 2q57 0 105 -9q79 -13 120 -67.5t41 -143.5zM507 496q0 91 -37.5 134.5t-115.5 43.5q-63 0 -79 -11
q-12 -11 -12 -49v-287q49 -10 84 -10q84 0 122 42.5t38 136.5z" />
    <glyph glyph-name="Q" unicode="Q" horiz-adv-x="885" 
d="M843 -200q0 -40 -84 -40q-49 0 -111 13q-60 12 -91 12q-33 0 -69 -7l-9 17q-49 99 -97 145q-34 34 -69 50l-25 12q-210 99 -210 352q0 169 100 273q105 110 263 110q162 0 264 -106.5t102 -275.5t-99 -273t-263 -110q50 -11 81 -30q35 -22 79 -69q18 -21 34 -35
q38 -35 106 -35q42 0 58 8l15 6q3 2 8 2q17 0 17 -19zM669 354q0 339 -227 339q-226 0 -226 -339q0 -338 226 -338q227 0 227 338z" />
    <glyph glyph-name="R" unicode="R" horiz-adv-x="816" 
d="M830 23q0 -23 -20 -27q-12 -2 -18 -2q-14 -1 -65 -1q-54 0 -102 4q-29 4 -44.5 15t-32.5 41q-2 5 -24 42q-8 13 -20 35t-17 30l-38 68q-35 63 -65.5 83.5t-89.5 20.5h-32v-222l1 -22q1 -28 8 -35q6 -6 38 -8l19 -1l20 -1q26 -1 26 -24q0 -21 -22 -21h-11q-12 1 -59 3
q-38 1 -80 1l-72 -2l-52 -1h-19q-20 0 -20 22q0 23 25 24h17h19q25 1 32 8q11 11 11 59v487v19q-1 30 -8 37t-40 8q-31 1 -40 6t-9 21q0 21 17 21h10q34 -4 143 -4q44 0 59 1l63 4q20 1 66 1q63 0 104 -9q60 -13 94.5 -59.5t34.5 -114.5q0 -80 -50 -127q-24 -23 -54 -36
t-88 -23q50 -13 79 -35q19 -14 33.5 -32t40.5 -59q57 -90 80 -123t42 -45.5t47 -12.5q6 0 28 2q4 0 8.5 0.5t7 1t3.5 0.5q16 0 16 -18zM508 529q0 74 -38.5 110t-118.5 36q-66 0 -79 -12q-8 -6 -9 -37l-1 -26v-226q60 -6 82 -6q84 0 124 39.5t40 121.5z" />
    <glyph glyph-name="S" unicode="S" horiz-adv-x="608" 
d="M544 194q0 -100 -66 -158.5t-178 -58.5q-37 0 -72 7q-34 6 -52 12q-4 0 -32 9q-12 2 -14 2q-6 0 -18 -4q-14 -2 -18 -2q-14 0 -20 10q-3 6 -3 13q0 8 -1 19q-2 59 -26 123q-5 13 -5 20q0 8 7.5 14.5t17.5 6.5q13 0 28 -12q41 -31 81 -86l22 -31q38 -54 119 -54
q64 0 104.5 32t40.5 82q0 54 -42 90q-46 40 -132 83l-79 40q-57 28 -87.5 76t-30.5 108q0 86 61 137.5t162 51.5q58 0 121 -22q11 -4 19 -4q4 0 12 4l15 8q8 5 17 5q23 0 23 -27q0 -7 -1 -10q-1 -10 -1 -29q0 -48 13 -82q1 -4 2.5 -7.5t2.5 -6t1 -3.5q2 -6 2 -9
q0 -9 -7.5 -15.5t-17.5 -6.5q-25 0 -72 70l-24 35q-22 31 -44 42.5t-63 11.5q-59 0 -95 -28t-36 -74q0 -44 31 -72q15 -14 35 -25.5t86 -43.5q115 -55 155 -91q59 -54 59 -150z" />
    <glyph glyph-name="T" unicode="T" horiz-adv-x="792" 
d="M778 505q0 -19 -22 -19q-24 0 -52 31q-37 39 -66 85q-18 28 -30 39q-20 17 -79 17h-74v-540l1 -28q1 -28 9.5 -36.5t34.5 -8.5h6q1 0 10.5 0.5t18.5 0.5h25h3q25 0 25 -23q0 -15 -5.5 -21t-20.5 -6q-2 0 -6 0.5t-7 0.5q-16 1 -56 3q-71 3 -97 3q-5 0 -101 -2
q-43 -2 -57 -4q-6 -1 -14 -1q-23 0 -23 23q0 25 30 25h26q6 0 16 0.5t14 0.5q34 0 43 16q5 9 5 58v539h-63q-51 0 -68 -5.5t-33 -27.5l-26 -37q-35 -46 -65 -76q-23 -24 -43 -24q-10 0 -16.5 5t-6.5 13t7 18q21 39 37 85l8 25q4 9 4 18q0 6 -4 10q-4 3 -9 6q-11 8 -11 19
t8 18t21 7t21 -1q60 -6 137 -6h354q83 0 117 5q7 1 17 1q25 0 25 -22q0 -11 -9 -20l-7 -6q-5 -5 -5 -13q0 -7 3 -14q4 -16 11 -32l9 -26l13 -31l12 -26q5 -8 5 -16z" />
    <glyph glyph-name="U" unicode="U" horiz-adv-x="858" 
d="M837 690q0 -26 -29 -26h-28q-29 -1 -37 -8t-9 -33l-1 -30v-315q0 -100 -21.5 -157t-72.5 -91q-81 -53 -209 -53q-109 0 -186 41q-43 22 -70 62q-24 34 -33 73t-9 107v336q0 49 -8.5 58.5t-51.5 9.5h-6h-3q-35 0 -35 26q0 21 26 21h14q49 -4 108 -4q120 0 146 3q5 1 14 1
q14 0 19 -5t5 -18t-6.5 -17.5t-25.5 -5.5l-21 -2q-15 0 -27 -2q-15 -2 -20 -10.5t-6 -31.5v-37v-295q0 -92 14 -140q16 -55 67.5 -86t125.5 -31q89 0 147 42q35 26 52 70q17 47 17 150v289v35q0 31 -6 39t-28 9h-24l-22 1q-14 0 -19.5 5t-5.5 19q0 21 20 21h13q21 -4 103 -4
q58 0 98 4q4 1 10 1q21 0 21 -21z" />
    <glyph glyph-name="V" unicode="V" horiz-adv-x="832" 
d="M825 689q0 -24 -39 -25q-39 0 -61 -22q-11 -13 -18 -30q-1 -1 -6 -12t-7 -17l-254 -569l-7 -16q-8 -17 -31 -17q-19 0 -25 16l-6 16l-230 571q-22 55 -39 67q-12 11 -56 11q-35 1 -35 26q0 23 27 23q8 0 13 -1q17 -2 58 -3q68 -2 72 -2h13l83 2q35 1 48 3h12
q13 0 18 -4.5t5 -17.5q0 -21 -29 -24l-19 -1l-16 -2l-21 -2q-18 -2 -18 -18q0 -10 13 -44l151 -394q16 -44 16 -91q0 -13 -1 -26q19 76 36 113l166 391l11 28q6 14 6 22q0 16 -28 19l-23 2q-9 1 -21 3q-31 3 -31 24q0 23 22 23q8 0 14 -1q46 -4 103 -4q35 0 64 1
q6 0 18.5 0.5t16.5 1.5t12 1q23 0 23 -21z" />
    <glyph glyph-name="W" unicode="W" horiz-adv-x="1200" 
d="M1193 690q0 -13 -9.5 -19t-34.5 -7q-31 -1 -45.5 -12.5t-28.5 -43.5l-17 -37l-236 -554l-7 -18q-7 -17 -30 -17q-13 0 -19 5.5t-12 23.5l-126 384q-8 22 -16 56q-4 16 -8 50q-2 -13 -3 -21q-1 -3 -3.5 -13.5t-3.5 -15.5l-9 -27l-156 -399l-7 -20q-7 -22 -35 -22
q-4 0 -12 2q-6 1 -9 10q-1 1 -6 13l-214 561l-12 32q-11 28 -17.5 37.5t-18.5 16.5q-17 10 -49 10h-8l-4 -1q-15 0 -20.5 5t-5.5 18q0 23 22 23q8 0 14 -1q5 0 12.5 -0.5t19.5 -1t21 -0.5q19 0 38.5 -0.5t30.5 -1t21 -0.5q61 0 125 4q5 1 15 1q12 0 16.5 -4.5t4.5 -16.5
q0 -24 -26 -24q-40 -1 -53.5 -5.5t-13.5 -17.5q0 -9 8 -32l134 -373q11 -31 21 -84q2 -16 4 -55l4 14l11 41l13 38l127 348l-21 64q-12 35 -26.5 47t-48.5 14q-22 1 -29.5 6t-7.5 19q0 22 24 22q9 0 14 -1q20 -2 46 -2q69 -2 104 -2q89 0 125 4h11q13 0 18.5 -4.5t5.5 -15.5
q0 -25 -33 -25h-27q-31 0 -42 -5t-11 -18q0 -11 4 -24l8 -27l109 -348q5 -17 9 -39q7 -35 8 -92l1 -18q1 5 3 11.5t2 8.5q2 9 4.5 19.5t2.5 12.5q9 31 25 73l143 359q19 48 19 62q0 11 -10 16t-37 7l-25 2q-29 1 -29 24q0 22 20 22q2 0 7 -0.5t8 -0.5q8 -1 31 -3
q14 0 32.5 -0.5t28 -1t15.5 -0.5q8 0 64 2q24 2 35 3q3 0 7 0.5t5 0.5q21 0 21 -21z" />
    <glyph glyph-name="X" unicode="X" horiz-adv-x="807" 
d="M807 24q0 -25 -24 -25h-11q-1 0 -9 0.5t-15 0.5l-27 1q-21 1 -76 1q-43 0 -83 -2l-27 -1q-6 0 -13 -0.5t-9 -0.5q-4 0 -9.5 -0.5t-7.5 -0.5q-24 0 -24 23t29 23q33 0 44 3.5t11 13.5q0 14 -21 41l-155 207l-81 -106l-33 -43l-37 -48q-27 -34 -27 -47q0 -10 9 -14t35 -5
q8 0 16 -1h7q4 0 10 -3q9 -5 9 -19q0 -25 -21 -25h-7l-19 2q-4 0 -9 0.5t-12.5 1t-13.5 0.5q-27 1 -56 1h-7l-65 -1q-8 0 -17.5 -0.5t-10.5 -0.5l-17 -2h-9q-24 0 -24 21q0 9 4 14q6 11 44 13q36 2 57.5 15.5t60.5 59.5q10 11 19.5 22t19 22.5t13.5 15.5q5 6 56 66l79 99
l-180 241l-26 34q-18 25 -36 34t-51 9q-26 1 -26 22q0 25 26 25q7 0 10 -1q4 0 13.5 -0.5t14.5 -0.5l45 -2q19 0 40.5 -0.5t24.5 -0.5q34 0 57 1q45 1 66 3q4 1 10 1q22 0 22 -23q0 -22 -24 -23h-17l-18 -2q-20 -1 -20 -15q0 -11 16 -32l130 -168l53 65l34 42l36 48
q26 35 26 46q0 16 -32 16h-2h-17q-13 0 -18.5 5t-5.5 18t5.5 18t18.5 5q7 0 10 -1l18 -1q6 -1 28 -1l43 -1h16q73 0 101 3q3 1 8 1q21 0 21 -19q0 -27 -35 -28q-43 -1 -62 -9q-12 -4 -22.5 -13.5t-34.5 -38.5l-39 -46l-41 -49l-81 -98l210 -285q1 -2 4 -6t7.5 -11t8.5 -13
q22 -31 38 -40t52 -9q16 0 22.5 -5t6.5 -17z" />
    <glyph glyph-name="Y" unicode="Y" horiz-adv-x="820" 
d="M813 688q0 -13 -8 -18t-30 -6q-42 -2 -62 -17q-18 -14 -52 -69l-201 -316v-155q0 -31 2 -40.5t9 -15.5q7 -5 22 -5h24l29 -1h19q23 0 23 -25q0 -23 -23 -23q-8 0 -12 1q-18 2 -55 3q-94 2 -99 2q-36 0 -99 -3q-8 0 -25.5 -0.5t-23.5 -1.5q-5 -1 -12 -1q-25 0 -25 23
q0 24 27 24h25l9 -1q25 0 40 4q17 4 21.5 15t4.5 47v155l-201 332q-23 39 -37 52q-16 13 -66 13h-3q-15 0 -21 5.5t-6 19.5q0 24 22 24q1 0 4.5 -0.5t5.5 -0.5q11 0 23 -1q16 0 36 -1q27 -1 79 -1l78 1q34 0 37 1q17 0 24 1q5 1 13 1q24 0 24 -24q0 -23 -41 -23
q-4 0 -11 -0.5t-8 -0.5l-16 -1q-22 0 -22 -15q0 -7 5 -15l13 -21l171 -292l160 266l25 41q7 14 7 23q0 15 -22 15l-21 1h-23h-2q-16 0 -22.5 5t-6.5 19q0 22 21 22h9q16 -2 38 -2q56 -2 81 -2q68 0 93 4q4 1 12 1q20 0 20 -23z" />
    <glyph glyph-name="Z" unicode="Z" horiz-adv-x="782" 
d="M740 219q0 -8 -4 -13q-1 -2 -2.5 -4.5t-4.5 -7t-5 -8.5q-11 -18 -34 -73l-9 -23q-4 -11 -4 -21q0 -8 17 -23q12 -11 12 -22t-8 -19.5t-18 -8.5q-6 0 -18 3q-12 2 -25 2q-27 2 -112 2h-295q-85 0 -137 -6q-3 0 -8 -0.5t-7 -0.5q-29 0 -29 27q0 7 3.5 11.5t20.5 20.5
q10 10 20 23l19 24l442 560h-157q-72 -1 -88 -9q-16 -7 -72 -73q-42 -48 -66 -70q-30 -27 -50 -27q-9 0 -15 5t-6 12q0 8 5 14q1 4 10 16q53 88 53 118q0 7 -15 19q-12 9 -12 22q0 21 22 21q2 0 6.5 -0.5t7.5 -0.5q32 -4 103 -4h289h50q25 0 41 3q20 3 27 3q23 0 23 -23
q0 -13 -23 -36q-18 -18 -25 -28l-23 -30l-429 -548l218 1q82 1 104 12q19 10 34 32q2 2 31 42q76 107 120 107q10 0 16.5 -6t6.5 -15z" />
    <glyph glyph-name="bracketleft" unicode="[" horiz-adv-x="358" 
d="M369 -228q0 -14 -12 -32h-269v1097h263q11 -16 11 -29q0 -17 -14 -30h-194v-979h205q10 -15 10 -27z" />
    <glyph glyph-name="backslash" unicode="\" horiz-adv-x="571" 
d="M594 -223q0 -19 -14.5 -30.5t-38.5 -11.5h-9q-19 49 -47 112l-72 165q-30 67 -77 165q-17 38 -33 72t-24.5 51t-9.5 20l-75 155l-56 116l-45 91l-38 75q-17 33 -17 45q0 15 16 26t44 12l8 -22q25 -58 35 -85q6 -13 31.5 -68t43.5 -92l81 -171l74 -157l74 -154l63 -132
q29 -61 61 -120q25 -47 25 -62z" />
    <glyph glyph-name="bracketright" unicode="]" horiz-adv-x="359" 
d="M270 -260h-263q-11 16 -11 29t13 30h195v979h-203q-12 12 -12 27q0 14 12 32h269v-1097z" />
    <glyph glyph-name="asciicircum" unicode="^" horiz-adv-x="532" 
d="M569 304h-56l-210 314l-216 -315h-125l303 441h13z" />
    <glyph glyph-name="underscore" unicode="_" horiz-adv-x="544" 
d="M544 -178h-544v60h544v-60z" />
    <glyph glyph-name="grave" unicode="`" 
d="M337 559q0 -8 -6.5 -14.5t-14.5 -6.5t-15 7l-3 2l-4 4l-106 130q-24 30 -24 48t13.5 31t32.5 13q30 0 47 -36l74 -160q6 -12 6 -18z" />
    <glyph glyph-name="a" unicode="a" horiz-adv-x="488" 
d="M484 47q0 -21 -36 -37.5t-82 -16.5q-35 0 -49 15.5t-16 56.5v15q-4 -4 -29 -26l-33 -29q-41 -36 -81 -36q-43 0 -72.5 31t-29.5 75q0 65 65 112.5t183 68.5v18l-1 41v36q-2 21 -15 37q-29 37 -91 37q-26 0 -44.5 -9t-18.5 -22q0 -7 6 -11l12 -10q20 -17 20 -42
q0 -23 -17.5 -38.5t-44.5 -15.5q-26 0 -41.5 16t-15.5 42q0 34 28 64q33 35 85 57t101 22q60 0 97 -35q17 -16 23.5 -37t6.5 -60q0 -31 -1 -51l-4 -172v-19q0 -38 6 -50t26 -12q8 0 28 4q12 2 15 2q20 0 20 -21zM304 248q-81 -16 -118.5 -45t-37.5 -74q0 -29 15.5 -48
t38.5 -19q27 0 63 26l30 22l7 5z" />
    <glyph glyph-name="b" unicode="b" horiz-adv-x="574" 
d="M528 252q0 -120 -68.5 -191.5t-183.5 -71.5q-41 0 -93 15q-33 9 -41 9q-3 0 -11 -2l-15 -5q-10 -2 -13 -2q-9 0 -15 6t-6 14q0 6 3 21q4 20 4 63v477q0 31 -3 38q-6 12 -43 26q-20 8 -26.5 13.5t-6.5 15.5q0 13 8 18.5t32 7.5q47 3 77 19l21 12q6 3 16 3q25 0 25 -21
q0 -1 -2 -13q0 -2 -0.5 -5.5t-1 -8t-0.5 -8.5q-1 -7 -2 -18t-1 -14v-43l-1 -48v-127q73 67 153 67q85 0 139.5 -69t54.5 -178zM429 232q0 96 -38.5 150t-107.5 54q-55 0 -102 -38v-308l9 -8q13 -12 26 -21q35 -27 80 -27q62 0 97.5 53t35.5 145z" />
    <glyph glyph-name="c" unicode="c" horiz-adv-x="491" 
d="M462 98q0 -15 -19 -37q-66 -78 -175 -78q-98 0 -160 71.5t-62 186.5q0 114 69 187.5t176 73.5q71 0 120.5 -33.5t49.5 -80.5q0 -28 -18.5 -45t-47.5 -17q-27 0 -44 16t-17 42q0 14 7 34q2 10 2 11q0 12 -18.5 20.5t-44.5 8.5q-63 0 -101.5 -52.5t-38.5 -137.5
q0 -94 45 -151.5t119 -57.5q56 0 107 40q9 8 16 13q9 7 16 7q19 0 19 -21z" />
    <glyph glyph-name="d" unicode="d" horiz-adv-x="580" 
d="M570 60q0 -13 -8.5 -19t-31.5 -9q-14 -2 -38 -9t-37 -14l-23 -11q-7 -4 -17 -4q-23 0 -23 25q0 13 1 22q2 16 2 39q-29 -27 -62 -50q-56 -39 -98 -39q-83 0 -136 67.5t-53 174.5q0 121 64 191t174 70q40 0 60 -5.5t50 -24.5v115l-1 21q0 15 -1 19q-1 16 -30 26
q-30 11 -38.5 17.5t-8.5 18.5q0 25 39 26q50 3 67 12l27 16q12 7 21 7q10 0 17.5 -7t7.5 -17q0 -5 -3 -22q-1 -7 -3 -28l-1 -27l-1 -28v-462l1 -27q0 -21 4 -28q9 -15 41 -15q23 0 30.5 -4t7.5 -17zM394 114v285q-40 56 -113 56q-65 0 -100 -52t-35 -150q0 -91 34.5 -143
t95.5 -52q29 0 54 12t64 44z" />
    <glyph glyph-name="e" unicode="e" horiz-adv-x="513" 
d="M467 322q0 -27 -5 -40q-5 -9 -26 -9h-2h-20l-274 5q-1 -15 -1 -30q0 -87 39.5 -135t111.5 -48q77 0 134 52q14 13 22 13q15 0 15 -18q0 -15 -18 -40q-67 -91 -180 -91q-99 0 -158.5 70t-59.5 186q0 117 63.5 191t163.5 74q81 0 138 -52.5t57 -127.5zM363 318
q-3 141 -104 141q-99 0 -114 -148z" />
    <glyph glyph-name="f" unicode="f" horiz-adv-x="390" 
d="M461 667q0 -27 -17.5 -45t-44.5 -18q-55 0 -70 63q-8 31 -36 31q-43 0 -63 -52t-20 -165v-18h17l42 1q41 2 42 2q11 1 26 1q10 0 14 -5t4 -19q0 -26 -25 -26h-2h-18q-27 0 -39 1h-46h-5h-10v-309q0 -25 2 -43q1 -14 8.5 -19t28.5 -6h20q24 0 31.5 -4t7.5 -15
q0 -24 -18 -24q-6 0 -9 1q-26 3 -106 3q-81 0 -106 -3h-11q-22 0 -22 19q0 21 22 22l16 1q4 0 7.5 0.5t5.5 0.5h2q16 0 21.5 4.5t5.5 17.5v3.5t0.5 7.5t0.5 11q1 9 1 24v307q-22 0 -39 -1q-12 -1 -26 -1q-12 0 -16.5 5.5t-4.5 19.5q0 26 22 26h8q7 -1 12 -1l32 -2h13
q4 131 52 196q65 85 175 85q53 0 84 -21t31 -56z" />
    <glyph glyph-name="g" unicode="g" horiz-adv-x="531" 
d="M524 453q0 -24 -12.5 -39.5t-32.5 -15.5q-19 0 -41 21q-24 22 -39 29q-14 7 -55 17q37 -15 57.5 -52.5t20.5 -88.5q0 -75 -46.5 -121t-122.5 -46q-38 0 -69 14q-41 -14 -41 -49q0 -36 37 -47q20 -7 95 -9q88 -2 120 -13q38 -13 60.5 -48t22.5 -82q0 -84 -69.5 -134.5
t-183.5 -50.5q-98 0 -154.5 34.5t-56.5 93.5q0 91 123 129q-88 29 -88 98q0 75 109 92q-82 51 -82 149q0 77 49.5 122.5t132.5 45.5q67 0 127 -19l19 -6q8 -2 9 -2q5 0 14 10q22 25 49 25q21 0 34.5 -16t13.5 -41zM328 338q0 69 -18 100t-57 31q-83 0 -83 -147
q0 -130 82 -130q41 0 58.5 34t17.5 112zM405 -111q0 44 -35 68q-19 12 -46 17t-88 7q-8 0 -18.5 0.5t-16 1t-8.5 0.5q-1 0 -19 2q-32 -14 -51 -41.5t-19 -59.5q0 -50 37.5 -78.5t104.5 -28.5q71 0 115 31t44 81z" />
    <glyph glyph-name="h" unicode="h" horiz-adv-x="580" 
d="M559 18q0 -20 -22 -20q-6 0 -10 1q-45 3 -74 3h-8l-49 -1q-30 0 -36 -1q-5 -1 -12 -1q-21 0 -21 19q0 6 4 14q1 3 6 5q8 2 12 2l6 1h11q16 0 22 6t7 23v18v20v175q0 60 -5 85q-7 29 -30 46.5t-56 17.5q-50 0 -114 -43v-281l2 -39q0 -17 6 -23t24 -6h13q26 0 26 -23
q0 -18 -21 -18q-6 0 -10 1q-26 3 -86 3q-50 0 -82 -3q-3 -1 -10 -1q-22 0 -22 21q0 20 27 20q28 1 34.5 8t6.5 35v27v452v32l-1 19q0 10 -2 16q-5 7 -39 21q-17 7 -19 8q-19 8 -19 23q0 14 7 18.5t32 6.5q54 6 77 19q18 11 24 13q6 3 15 3q23 0 23 -20q0 -1 -0.5 -4.5
t-0.5 -5.5q-3 -15 -4 -64l-1 -52v-179q21 20 46 38q63 45 118 45q34 0 65 -14.5t47 -37.5q21 -33 21 -127v-211l1 -27q0 -24 5 -30q7 -12 24 -12q2 0 6 0.5t7 0.5h5q24 0 24 -22z" />
    <glyph glyph-name="i" unicode="i" horiz-adv-x="303" 
d="M226 652q0 -26 -19 -45t-45 -19t-45 19t-19 45t19 45t45 19t45 -19t19 -45zM282 18q0 -20 -23 -20q-2 0 -7 0.5t-8 0.5q-32 3 -78 3q-60 0 -94 -3q-5 -1 -13 -1q-24 0 -24 19q0 22 26 22h3h4q29 0 36.5 8.5t7.5 40.5v25v191v34l-1 28q-1 20 -8.5 28t-31.5 13
q-23 4 -31 10.5t-8 19.5t7.5 18.5t27.5 5.5q54 0 80 15l25 15q7 4 14 4q9 0 16 -7q8 -7 8 -14q0 -6 -1 -9q-5 -26 -5 -67v-288l1 -37q0 -21 6.5 -28t25.5 -7h2l3 1q40 0 40 -21z" />
    <glyph glyph-name="j" unicode="j" horiz-adv-x="297" 
d="M229 652q0 -26 -18.5 -45t-44.5 -19q-27 0 -45.5 19t-18.5 45t18.5 45t45.5 19q26 0 44.5 -19t18.5 -45zM213 474q0 -8 -1 -15q-5 -27 -5 -118q0 -64 1 -111q1 -44 1 -96q0 -158 -14 -222q-12 -61 -60.5 -104t-106.5 -43q-31 0 -51 17.5t-20 43.5q0 21 14.5 35.5
t34.5 14.5q37 0 52 -40q12 -29 26 -29q17 0 27.5 20.5t10.5 52.5v12l-5 99q-4 69 -4 228q0 89 1 118v23q0 26 -8 34t-40 16q-32 7 -32 28q0 25 33 25h2h9q51 0 69 12l27 16q8 5 16 5q9 0 16 -6.5t7 -15.5z" />
    <glyph glyph-name="k" unicode="k" horiz-adv-x="585" 
d="M585 21q0 -22 -28 -22h-13q-4 1 -14 1.5t-15 0.5q-22 1 -51 1q-25 0 -52 -1q-22 0 -36 -2q-5 -1 -14 -1q-21 0 -21 21t26 21q22 0 22 11q0 8 -11 20l-13 18l-118 157h-55v-139l1 -30q1 -22 7.5 -29t27.5 -7h4h2q23 0 23 -20q0 -22 -23 -22h-11q-12 2 -30 2q-27 1 -53 1
q-49 0 -79 -4h-11q-20 0 -20 22t28 22q28 1 35 6t7 25v41v476v22q0 14 -8 24q-8 9 -42 18q-32 8 -32 29q0 12 6.5 16.5t23.5 4.5h6q52 0 90 23q22 14 34 14q21 0 21 -19q0 -7 -2 -14q-5 -32 -5 -105v-326q4 0 9.5 -0.5t7.5 -0.5q7 0 27 2q6 0 11.5 1t8.5 1.5t4 0.5
q11 5 24 20q21 22 64 74q32 41 32 56t-33 15h-7h-4q-16 0 -22 4.5t-6 16.5q0 21 23 21q10 0 16 -1q14 -2 31 -2q20 -1 45 -1h8l50 1q30 0 34 1q6 1 15 1q10 0 13.5 -4t3.5 -15q0 -14 -6.5 -18t-26.5 -4q-31 0 -58 -18q-16 -10 -76 -75q-46 -49 -58 -61l152 -188
q1 -1 3.5 -4.5t7 -9.5t9.5 -12q16 -22 27 -28.5t31 -7.5q33 0 33 -21z" />
    <glyph glyph-name="l" unicode="l" horiz-adv-x="292" 
d="M271 17q0 -18 -19 -18q-11 0 -18 1q-5 1 -36 1l-54 2l-56 -2q-9 0 -18 -0.5t-13.5 -1t-6.5 -0.5q-5 -1 -13 -1q-20 0 -20 21q0 20 31 20q35 2 42 7q11 9 11 62v458q0 19 -2 49q-1 20 -8.5 26t-38.5 12q-34 6 -34 28q0 14 9 19t33 6q46 0 87 24q20 12 30 12q21 0 21 -20
q0 -1 -0.5 -5.5t-0.5 -7.5q-2 -10 -2 -19q-2 -34 -2 -55v-522q0 -39 1.5 -49t8.5 -16q6 -6 34 -8q20 -1 27 -5.5t7 -17.5z" />
    <glyph glyph-name="m" unicode="m" horiz-adv-x="867" 
d="M842 19q0 -21 -18 -21q-5 0 -7 1q-13 1 -38 3q-44 2 -53 2q-2 0 -18 -0.5t-30 -0.5q-24 -1 -36 -3q-2 0 -6 -0.5t-6 -0.5q-19 0 -19 20q0 11 4.5 15t18.5 5l18 1q16 1 21 6t5 21q1 4 1 21q0 6 0.5 13t0.5 9v195q0 66 -10 90q-16 37 -76 37q-49 0 -105 -40q0 -5 0.5 -12
t0.5 -9q1 -23 1 -44v-219v-27q0 -2 0.5 -8t0.5 -10q2 -15 7.5 -18.5t28.5 -3.5h3q29 0 29 -23q0 -19 -21 -19h-9q-12 1 -42 3q-21 1 -47 1q-57 0 -76 -4q-3 0 -7.5 -0.5t-6.5 -0.5q-21 0 -21 20t26 21l16 1q15 1 20 6.5t6 21.5l1 19v21v205q0 64 -13 89q-17 30 -68 30
q-40 0 -74 -18q-16 -8 -39 -25v-282l1 -29v-18q0 -21 39 -21h3q16 0 22 -4t6 -15q0 -21 -22 -21h-6q-43 4 -83 4q-1 0 -19.5 -0.5t-34.5 -0.5q-30 -2 -33 -2q-4 -1 -11 -1q-22 0 -22 21q0 20 27 20q18 0 27 3q9 4 10 7q2 3 4 14v17v27v212l-1 31q0 31 -5 40q-9 12 -55 27
q-20 6 -20 21q0 12 7.5 17t28.5 8q2 0 10.5 1.5t14.5 2.5q39 8 58 18q22 12 33 12q23 0 23 -22v-10q-1 -4 -1 -29q0 -1 -0.5 -7t-0.5 -11l10 9q28 25 41 34q47 38 107 38q94 0 123 -81l13 13q19 16 36 30q50 38 112 38q79 0 109 -52q16 -27 16 -109v-231v-26q0 -27 6 -34
q8 -8 28 -8q3 0 5 1h9q13 0 17.5 -5t4.5 -17z" />
    <glyph glyph-name="n" unicode="n" horiz-adv-x="592" 
d="M567 18q0 -20 -21 -20q-7 0 -10 1q-45 3 -75 3h-8l-47 -1q-31 0 -37 -1q-5 -1 -13 -1q-20 0 -20 19q0 9 4 14q2 4 6 5q6 2 11 2l6 1h12q16 0 22 6.5t6 22.5q0 13 1 18v20v175q0 61 -6 85q-13 63 -87 63q-49 0 -112 -43v-280l1 -39q1 -18 6.5 -23.5t23.5 -5.5h13
q26 0 26 -23q0 -18 -20 -18q-7 0 -11 1q-26 3 -86 3q-49 0 -81 -3q-4 -1 -11 -1q-22 0 -22 21q0 20 27 20q28 1 34.5 8t6.5 35l1 27v210q0 5 -0.5 23t-0.5 27q-1 19 -9.5 27.5t-31.5 12.5q-22 5 -29.5 10.5t-7.5 16.5q0 23 34 27q54 6 79 18l24 13q7 4 15 4q20 0 20 -20v-10
q-2 -18 -2 -46v-7q55 48 90 65.5t74 17.5q35 0 66 -14.5t47 -37.5q21 -32 21 -127v-211v-27q1 -9 1 -18q0 -6 4 -12q9 -12 24 -12q2 0 6.5 0.5t7.5 0.5h5q23 0 23 -22z" />
    <glyph glyph-name="o" unicode="o" horiz-adv-x="579" 
d="M533 244q0 -115 -68 -187.5t-175 -72.5t-175.5 72.5t-68.5 187.5q0 114 68.5 187t175.5 73t175 -73t68 -187zM428 244q0 107 -35.5 163t-102.5 56q-68 0 -103 -56t-35 -163t35.5 -163.5t102.5 -56.5t102.5 56.5t35.5 163.5z" />
    <glyph glyph-name="p" unicode="p" horiz-adv-x="591" 
d="M545 249q0 -116 -67.5 -185t-179.5 -69q-49 0 -103 22v-176q0 -41 7 -50q6 -9 36 -9h14l4 1q14 0 19.5 -4.5t5.5 -15.5q0 -24 -21 -24h-9q-42 5 -89 5q-67 0 -104 -5q-2 0 -5.5 -0.5t-4.5 -0.5q-22 0 -22 23q0 11 6.5 15t25.5 5q31 0 39 10q5 6 5 58v449v41q0 25 -3 37
q-6 21 -40 30q-22 6 -30 13t-8 19q0 14 8.5 19t34.5 6q17 0 39 5q26 7 28 8t5.5 2.5t10 4.5t12.5 6q10 6 21 6q8 0 14 -5.5t6 -12.5q0 -8 -1 -13q-3 -12 -3 -41q8 9 21 22q58 52 133 52q86 0 140.5 -69.5t54.5 -178.5zM444 228q0 97 -39 152t-107 55q-27 0 -47 -8t-56 -33
v-309q52 -49 111 -49q65 0 101.5 50.5t36.5 141.5z" />
    <glyph glyph-name="q" unicode="q" horiz-adv-x="574" 
d="M567 -242q0 -19 -20 -19q-1 0 -5 0.5t-6 0.5q-30 5 -91 5q-51 0 -103 -5q-6 -1 -15 -1q-18 0 -18 21q0 13 6 17.5t21 4.5h3h16l5 -1q19 0 27 7q8 6 9.5 15t1.5 41v218q-4 -3 -8.5 -7.5t-8 -7.5t-5.5 -5q-62 -53 -133 -53q-87 0 -142 70t-55 180q0 117 69 189t181 72
q26 0 55 -6q30 -5 66 -18q9 -4 17 -4q6 0 14 4l16 8q7 4 15 4q9 0 15 -5t6 -13q0 -1 -2 -13q-8 -27 -8 -81v-516v-27q0 -39 8 -46q6 -6 40 -6q16 0 22.5 -5t6.5 -18zM398 96v299q-44 61 -112 61q-67 0 -102.5 -51.5t-35.5 -148.5t36.5 -148.5t105.5 -51.5q51 0 108 40z" />
    <glyph glyph-name="r" unicode="r" horiz-adv-x="421" 
d="M407 431q0 -31 -19 -52t-47 -21q-16 0 -28 9q-8 6 -22 32q-11 20 -23 20q-22 0 -64 -52v-260q0 -52 8 -60q7 -7 53 -7q23 0 23 -20q0 -22 -20 -22q-7 0 -10 1q-8 0 -18 1l-41 2q-4 0 -15 0.5t-18 0.5q-22 0 -52 -2l-33 -1l-21 -1h-5q-20 0 -20 20q0 21 21 21l17 1
q28 0 34 8q5 6 5 58v214v26v24q0 26 -41 40q-18 6 -23 11t-5 16q0 13 8.5 18.5t33.5 9.5q36 5 59 17l26 13q6 3 13 3q22 0 22 -23v-7q-2 -28 -2 -53v-13q23 26 50 51q48 44 90 44q28 0 46 -19t18 -48z" />
    <glyph glyph-name="s" unicode="s" horiz-adv-x="432" 
d="M378 136q0 -69 -44.5 -111.5t-117.5 -42.5q-33 0 -71 13q-23 8 -33 8q-7 0 -10 -1l-9 -2q-5 -2 -14 -2q-20 0 -20 23v11q0 2 0.5 5.5t0.5 4.5q0 2 -0.5 5.5t-0.5 5.5q-4 46 -12 69q-5 13 -5 18q0 7 6 12t14 5q25 0 71 -71q19 -30 32 -43q22 -19 59 -19t60 20t23 51
q0 25 -14 42q-21 25 -95 62q-68 34 -94 58q-37 35 -37 90q0 63 43 104.5t108 41.5q19 0 44 -5l21 -5q2 0 6 -0.5t5 -0.5q8 0 14 3l13 7q5 3 11 3q20 0 21 -32q1 -35 11 -67q9 -29 9 -34q0 -10 -6 -16.5t-14 -6.5q-30 0 -76 71q-17 26 -31 34.5t-37 8.5q-33 0 -53.5 -17.5
t-20.5 -46.5q0 -24 15.5 -41t54.5 -34q91 -41 125 -70q48 -39 48 -108z" />
    <glyph glyph-name="t" unicode="t" horiz-adv-x="375" 
d="M368 78q0 -18 -24 -42q-49 -47 -118 -47q-84 0 -110 56q-17 37 -17 138q0 84 2 136l3 77l1 21h-43q-22 0 -30 5.5t-8 20.5q0 4 2 10q3 6 8.5 8.5t28.5 9.5q58 16 75 83q7 25 14 33.5t21 8.5q24 0 24 -21q0 -2 -0.5 -6t-0.5 -7q-5 -25 -5 -85q6 0 12 -0.5t8 -0.5
q3 0 15.5 0.5t22.5 0.5l34 2q17 0 35 3q3 0 8 0.5t7 0.5q14 0 19.5 -7t5.5 -24q0 -38 -23 -38q-14 0 -25 1q-2 0 -10.5 0.5t-14.5 0.5q-34 2 -78 2h-18l1 -202q0 -83 7 -110q13 -47 67 -47q37 0 79 32q8 5 11 5q6 0 10 -6q4 -4 4 -12z" />
    <glyph glyph-name="u" unicode="u" horiz-adv-x="569" 
d="M559 58q0 -20 -25 -24l-18 -4q-41 -8 -69 -23q-30 -15 -41 -15q-23 0 -23 25q0 13 1 22q0 3 0.5 12.5t0.5 15.5v10l-15 -11l-43 -36q-50 -41 -102 -41q-131 0 -131 166v8l2 62l2 130v4q0 14 -1 27q0 20 -1 28q-1 33 -37 33l-16 -1q-25 0 -25 22t20 22h8q1 0 6 -0.5
t9 -0.5q7 0 16 -0.5t14 -1t8 -0.5l43 1q20 0 25 1h8q18 0 18 -19v-7q-1 -4 -1.5 -16t-0.5 -18q0 -9 -0.5 -22t-0.5 -17q-1 -17 -1 -34l-2 -140v-5q0 -85 18 -119t63 -34q59 0 116 50v252v40q-1 31 -5 37q-5 9 -38 9h-4h-14q-23 0 -23 22t22 22h18q46 -2 69 -2h23l19 1h4
q17 0 22.5 -3.5t5.5 -16.5q0 -2 -3 -32q-4 -52 -4 -73v-185v-39v-7q0 -35 5 -42q9 -13 52 -13q15 -1 20.5 -5t5.5 -15z" />
    <glyph glyph-name="v" unicode="v" horiz-adv-x="575" 
d="M568 467q0 -23 -23 -24q-32 -1 -45 -11q-9 -7 -16 -20q-5 -8 -15 -34l-135 -310l-8 -18q-9 -25 -10 -27q-8 -25 -14 -30t-26 -5q-18 0 -24.5 5.5t-12.5 25.5q-2 9 -7 22l-6 16l-126 318l-10 24q-4 7 -8 15.5t-4 9.5q-13 19 -42 21q-17 2 -23 6t-6 16q0 21 19 21
q8 0 12 -1q10 -1 38 -3q60 -2 62 -2l55 2q22 0 34 2q5 1 13 1q17 0 17 -19q0 -24 -24 -24h-2h-6q-36 0 -36 -19q0 -7 5 -22l11 -32l70 -191l11 -32q13 -32 17 -78h4q6 39 18 70l9 23l79 201q17 43 17 58q0 21 -35 21q-19 0 -25.5 4.5t-6.5 18.5q0 21 17 21q2 0 14 -2
q12 0 28 -1l46 -2h10q3 0 16 0.5t23 0.5q22 2 25 2q3 1 9 1q17 0 17 -19z" />
    <glyph glyph-name="w" unicode="w" horiz-adv-x="865" 
d="M858 468q0 -14 -7 -18.5t-29 -5.5q-21 -1 -33 -12t-25 -40l-9 -19l-124 -289l-13 -33l-11 -28q-9 -23 -15.5 -28.5t-25.5 -5.5q-16 0 -23.5 7t-12.5 28q-5 22 -10 33l-67 187q-17 45 -18 90l-3 1q0 -2 -0.5 -5t-1 -4.5t-0.5 -2.5q-1 -5 -2 -11l-1.5 -9t-0.5 -5
q-1 -2 -3.5 -11t-4.5 -16q-4 -16 -8 -25l-75 -173q-16 -39 -20 -52q-5 -20 -13 -26.5t-27 -6.5q-16 0 -23.5 6t-12.5 22l-5 19l-7 22l-127 314q-6 16 -11 31q-9 23 -20.5 32.5t-30.5 10.5q-18 0 -24.5 5t-6.5 17q0 11 3.5 15t13.5 4q9 0 14 -1q16 -2 92 -2q63 0 77 3
q3 0 7.5 0.5t6.5 0.5q18 0 18 -20q0 -22 -27 -22q-17 0 -23.5 -3.5t-6.5 -13.5q0 -8 3 -15l11 -26l78 -212q2 -5 9 -28q2 -6 10 -34q6 -20 8 -43l5 1q3 21 10 39l13 36l11 29l73 182l-15 43l-10 25q-8 17 -35 19q-18 1 -24 5.5t-6 18.5q0 19 18 19q8 0 12 -1q2 0 12 -0.5
t18 -0.5l65 -2q28 0 53 1q6 0 13 0.5t11 1t7 0.5q3 1 11 1q16 0 16 -21q0 -12 -5 -16.5t-18 -4.5h-5h-4q-19 0 -25.5 -5t-6.5 -18q0 -12 11 -46l67 -206q14 -39 21 -99h3q3 18 9 39q2 6 10 28t13 35l67 170l13 35l9 27q2 5 2 16q0 22 -41 23q-14 1 -19.5 6t-5.5 17
q0 19 19 19h6q4 -1 13.5 -1.5t14.5 -0.5q17 -1 39 -1h9l54 1q5 0 11 0.5t10 1t6 0.5t4 0.5t4 0.5q14 0 14 -19z" />
    <glyph glyph-name="x" unicode="x" horiz-adv-x="580" 
d="M555 16q0 -18 -19 -18q-8 0 -12 1q-12 2 -29 2q-26 2 -59 2h-11l-54 -1q-33 -2 -34 -2h-12q-19 0 -19 20q0 21 30 22q24 0 24 14q0 8 -19 34l-74 108l-40 -49l-24 -34l-19 -27q-18 -24 -18 -35q0 -7 2.5 -8.5t13.5 -2.5l14 -2q14 -2 19 -6t5 -15q0 -21 -16 -21
q-6 0 -11 1t-30 1l-49 1q-21 0 -42 -1q-5 0 -10.5 -0.5t-9.5 -1t-6 -0.5h-8q-17 0 -17 19q0 13 7 17t29 6q16 2 25 6q27 15 60 57l31 37l34 40l39 49l-100 147q-22 33 -40 51q-16 16 -42 16t-26 22q0 12 4.5 16.5t15.5 4.5q7 0 12 -1q45 -3 83 -3h6q4 0 11.5 0.5t21.5 1
t26 0.5q18 0 32 2q4 1 12 1q11 0 14.5 -4t3.5 -15q0 -14 -4 -19t-17 -6l-15 -1q-18 -3 -18 -11q0 -9 16 -33l18 -26l47 -71l37 49l32 42l19 26q7 10 7 16q0 10 -16 10q-24 1 -28 3q-10 5 -10 21q0 17 18 17h11q16 -2 52 -2h12l39 1h25q5 1 14 1q18 0 18 -18q0 -13 -6.5 -18
t-26.5 -6q-15 0 -27 -6q-20 -9 -58 -53l-44 -52l-48 -58l110 -163q31 -45 45 -57q18 -15 47 -15q16 0 21 -4.5t5 -18.5z" />
    <glyph glyph-name="y" unicode="y" horiz-adv-x="576" 
d="M565 465q0 -21 -25 -21q-31 -1 -44.5 -14t-33.5 -63l-18 -44l-134 -333q2 -32 2 -33q0 -95 -53 -158.5t-133 -63.5q-43 0 -69 21.5t-26 56.5q0 28 18.5 47t46.5 19q25 0 41.5 -15t16.5 -38q0 -19 -10 -32q-6 -8 -6 -11q0 -9 17 -9q40 0 70 40.5t30 95.5q0 69 -49 195
l-104 263q-18 45 -27 57q-10 16 -36 19q-20 2 -26 6.5t-6 18.5q0 19 18 19q5 0 15 -2q14 -2 35 -2q11 0 23 -0.5t18.5 -1t9.5 -0.5h6l55 2q24 1 37 1q10 2 14 2q17 0 17 -18q0 -26 -28 -26h-2q-23 0 -29.5 -3t-6.5 -14q0 -17 10 -40l74 -200q19 -55 25 -94q3 -16 4 -50h3
q3 31 16 69l78 215l16 46q13 39 13 50q0 13 -8 17.5t-31 4.5q-28 0 -28 22q0 21 19 21q7 0 12 -1q15 -3 72 -3q61 0 76 3q4 1 11 1q14 0 14 -22z" />
    <glyph glyph-name="z" unicode="z" horiz-adv-x="538" 
d="M499 151q0 -2 -4 -14q-6 -11 -12 -24q-26 -55 -26 -63q0 -6 4 -10l6 -9q3 -4 3 -10q0 -9 -6.5 -15.5t-16.5 -6.5q-7 0 -13 1q-18 2 -58 2h-216h-56q-16 0 -28 -2q-5 0 -10.5 -0.5t-8.5 -1t-4 -0.5q-9 0 -15 6t-6 15t22 32q9 7 19 22l293 370h-86q-51 0 -68 -8
q-18 -7 -53 -48q-23 -24 -46 -46q-20 -19 -38 -19q-20 0 -20 15q0 8 16 36q30 53 30 64q0 6 -4 9l-10 10q-4 4 -4 10q0 20 21 20q9 0 14 -1q20 -4 63 -4h201h43q6 0 30 3q4 1 12 1q23 0 23 -18q0 -11 -17 -29q-1 -1 -19 -21q-13 -16 -21 -26l-271 -348h114q30 0 37 1
q20 0 35 9q15 8 45 47q52 67 83 67q23 0 23 -16z" />
    <glyph glyph-name="braceleft" unicode="{" horiz-adv-x="401" 
d="M341 -235q0 -23 -36 -23q-85 0 -136.5 49t-51.5 131q0 33 5 115l5 61q3 24 3 65q0 102 -79 105q-12 0 -17.5 5t-5.5 18q0 22 23 22q79 3 79 106q0 38 -3 65l-5 60q-5 85 -5 115q0 82 52 131.5t137 49.5q35 0 35 -23q0 -20 -36 -23q-32 -4 -61 -15q-29 -16 -40.5 -40.5
t-11.5 -69.5q0 -11 2 -55l2 -56l1 -50l2 -44v-8q0 -59 -23 -103q-19 -40 -68 -62q21 -9 36 -21q55 -46 55 -150l-2 -48l-1 -48l-2 -58q-2 -42 -2 -52q0 -59 21 -86q27 -35 92 -41q36 -3 36 -22z" />
    <glyph glyph-name="bar" unicode="|" horiz-adv-x="544" 
d="M308 -177h-72v886h72v-886z" />
    <glyph glyph-name="braceright" unicode="}" horiz-adv-x="401" 
d="M373 291q0 -23 -23 -23q-79 -3 -79 -106q0 -37 3 -64l5 -60q5 -57 5 -116q0 -82 -51.5 -131t-136.5 -49q-36 0 -36 22q0 20 38 23q32 3 59 16q29 15 40.5 39t11.5 71q0 6 -0.5 24t-0.5 29l-2 58l-2 48l-1 45l-1 8q0 58 23 104q19 40 69 62q-24 9 -37 20q-54 43 -54 151
l1 46l2 50l2 56q0 12 0.5 30t0.5 23q0 62 -21 87q-26 34 -91 40q-37 2 -37 22q0 24 36 24q85 0 136.5 -49.5t51.5 -131.5q0 -57 -5 -115l-5 -60q-3 -48 -3 -66q0 -102 79 -105q13 0 18 -5t5 -17z" />
    <glyph glyph-name="asciitilde" unicode="~" horiz-adv-x="721" 
d="M591 778q-30 -52 -70.5 -81.5t-81.5 -29.5q-22 0 -68 14q-51 18 -63 20q-33 11 -58 11q-26 0 -45 -12.5t-49 -50.5l-25 17q67 111 152 111q30 0 99 -23q56 -20 81 -20q56 0 103 61z" />
    <glyph glyph-name="nbspace" unicode="&#xa0;" horiz-adv-x="200" 
 />
    <glyph glyph-name="exclamdown" unicode="&#xa1;" horiz-adv-x="303" 
d="M220 430q0 -28 -20 -48t-48 -20t-48 20t-20 48t20 48t48 20t48 -20t20 -48zM216 -153q0 -44 -18 -69.5t-47 -25.5q-63 0 -63 100q0 47 14 144l9 60q12 76 16 148l2 37l1 24q1 27 23 27q14 0 19 -8.5t5 -39.5q0 -24 1 -42q4 -69 5 -79q3 -39 17 -124l7 -43q9 -67 9 -109z
" />
    <glyph glyph-name="cent" unicode="&#xa2;" horiz-adv-x="512" 
d="M462 98q0 -15 -19 -37q-66 -78 -174 -78v-5q0 -41 8 -76q-18 -3 -19 -3q-31 0 -31 46v34v8q-82 14 -131.5 83t-49.5 171q0 99 52.5 168.5t139.5 87.5v24q0 37 -1 62q9 2 16 2q28 0 28 -40v-7q0 -1 -0.5 -9t-0.5 -15q0 -2 -0.5 -6t-0.5 -6h12q71 0 120.5 -33.5t49.5 -80.5
q0 -28 -18.5 -45t-47.5 -17q-27 0 -44 16t-17 42q0 14 7 34q2 10 2 11q0 12 -18.5 20.5t-44.5 8.5h-2l-1 -16l-2 -62l-3 -122l-3 -121v-66v-5v-3q15 -4 35 -4q56 0 107 40q9 8 16 13q9 7 16 7q19 0 19 -21zM238 444v7q-45 -16 -71.5 -65t-26.5 -118q0 -67 24 -117t66 -73v3
v7l2 106l3 110z" />
    <glyph glyph-name="sterling" unicode="&#xa3;" horiz-adv-x="697" 
d="M654 210q0 -75 -73 -153q-67 -76 -138 -76q-39 0 -108 39q-36 20 -50 27q-12 7 -60 32q-38 -73 -96 -73q-24 0 -37.5 13t-13.5 36q0 38 37.5 66t89.5 28q15 0 27 -1q17 38 17 61q0 29 -37 87q-28 43 -38 61h-10l-34 -1q-17 0 -44 -3q-2 0 -5.5 -0.5t-4.5 -0.5
q-28 0 -28 27q0 24 28 24q2 0 5 -0.5t4 -0.5q3 0 12 -0.5t14 -0.5l30 -1h9q-21 56 -21 96q0 92 81.5 158t196.5 66q92 0 150.5 -40.5t58.5 -102.5q0 -40 -26 -67.5t-64 -27.5q-36 0 -59.5 22.5t-23.5 56.5q0 29 19 48.5t47 19.5q9 0 20 -3q14 -6 18 -11l8 -8l2 -2v4
q0 12 -30 36q-50 35 -116 35q-79 0 -127.5 -37t-48.5 -98q0 -37 28 -87l23 -44l10 -18h8l56 1l61 4q16 1 27 1q5 1 12 1q18 0 18 -21q0 -16 -10 -24q-5 -4 -15 -4q-11 0 -29 -1h-52l-52 1h-5q11 -22 11 -54q0 -70 -59 -158q5 -1 11 -3q9 -1 65 -18q78 -23 132 -23
q53 0 94 22q39 22 39 36q0 8 -19 27q-21 20 -21 38q0 15 13 27t29 12q20 0 32 -14t12 -36z" />
    <glyph glyph-name="currency" unicode="&#xa4;" horiz-adv-x="652" 
d="M581 154q-20 -40 -56 -56q-6 9 -12 15q-8 9 -29 32t-31 34l-3 4q-58 -40 -124 -40q-70 0 -124 40l-4 -4q-37 -39 -70 -79q-37 14 -56 54q39 31 81 72l3 3q-40 57 -40 123q0 67 41 124l-4 4q-34 31 -35 32q-5 5 -45 39q13 36 55 56q31 -39 70 -81l4 -4q55 40 124 40
q68 0 124 -41l4 4q26 28 32 34q24 28 39 48q40 -20 55 -56q-34 -28 -81 -71l-4 -4q41 -56 41 -123q0 -69 -40 -124l3 -3q52 -48 82 -72zM457 352q0 58 -38 98t-93 40q-54 0 -92.5 -40t-38.5 -98q0 -57 38.5 -97t92.5 -40q55 0 93 40t38 97z" />
    <glyph glyph-name="yen" unicode="&#xa5;" horiz-adv-x="619" 
d="M658 690q0 -12 -6 -16.5t-24 -5.5q-23 -1 -43.5 -19t-47.5 -62l-172 -278v-25l166 3q7 -11 7 -22q0 -10 -7 -24l-166 1v-74l151 4q9 -14 9 -22q0 -9 -10 -24l-150 2v-50q0 -25 8 -30.5t42 -5.5q14 0 30 2h8q18 0 23.5 -5t5.5 -20q0 -12 -5.5 -17t-19.5 -5q-11 0 -17 1
q-16 2 -40 2l-94 2h-10q-1 0 -77 -2q-8 0 -18.5 -0.5t-17 -1t-10.5 -0.5q-5 -1 -14 -1q-14 0 -19.5 4.5t-5.5 15.5q0 14 6 19.5t23 5.5q1 0 5 -0.5t5 -0.5h6q33 0 54 3q12 1 15.5 7.5t3.5 27.5v50l-152 -4q-8 13 -8 23q0 7 6 24l154 -4v75l-168 -4q-6 16 -6 24q0 9 8 23
l166 -3v27l-168 293q-28 46 -41 55q-8 6 -14 6q-1 0 -7 0.5t-12 0.5q-35 0 -35 25q0 20 25 20q2 0 7.5 -0.5t8.5 -0.5q22 -3 118 -3q75 0 104 4q4 0 10.5 0.5t8.5 0.5q15 0 20 -4.5t5 -16.5q0 -24 -32 -24q-12 0 -23 -2l-16 -1q-16 -1 -16 -10q0 -7 11 -25l9 -16l134 -250
l121 209q15 27 17 33q6 9 12.5 19t7.5 12q5 8 5 16q0 14 -38 16q-21 0 -28 5t-7 18q0 21 20 21q10 0 16 -1q21 -3 67 -3h9q35 0 71 3q5 1 13 1q13 0 18 -4.5t5 -16.5z" />
    <glyph glyph-name="brokenbar" unicode="&#xa6;" horiz-adv-x="544" 
d="M308 345h-72v364h72v-364zM308 -177h-72v348h72v-348z" />
    <glyph glyph-name="section" unicode="&#xa7;" horiz-adv-x="529" 
d="M467 616q0 -31 -19.5 -50t-49.5 -19t-48.5 17.5t-18.5 44.5q0 24 12 36l11 12q3 3 3 6q0 9 -49 9q-93 0 -149 -82q92 -94 155 -194q32 -46 68 -119q62 -127 62 -235q0 -132 -69.5 -215t-179.5 -83q-64 0 -107 31t-43 77q0 31 21 52t52 21q30 0 48.5 -19t18.5 -48
q0 -26 -16 -44q-6 -6 -6 -8q0 -15 51 -15q101 0 164 110l-13 14q-283 312 -283 532q0 116 69 192t175 76q63 0 102 -27.5t39 -71.5zM400 2q0 65 -24 124q-32 86 -110 214l-70 112l-52 87l-5 7q-12 -36 -12 -69q0 -98 115 -286l79 -128q54 -87 67 -105q1 -2 5 -8q7 25 7 52z
" />
    <glyph glyph-name="dieresis" unicode="&#xa8;" 
d="M404 629q0 -26 -18.5 -45t-44.5 -19t-44.5 19t-18.5 45q0 25 19 44t44 19t44 -19t19 -44zM224 629q0 -26 -19 -45t-45 -19t-44.5 19t-18.5 45q0 25 18.5 44t44.5 19t45 -18.5t19 -44.5z" />
    <glyph glyph-name="copyright" unicode="&#xa9;" horiz-adv-x="901" 
d="M823 360q0 -153 -109 -262t-263 -109t-263.5 109t-109.5 262q0 154 109 262.5t264 108.5q154 0 263 -108.5t109 -262.5zM778 360q0 137 -95.5 234t-231.5 97t-232 -97t-96 -234t96 -233.5t232 -96.5t231.5 96.5t95.5 233.5zM648 434q0 -6 -5 -11q-6 -6 -11 -6
q-15 0 -45 43l-18 26q-24 34 -48 47.5t-58 13.5q-124 0 -124 -178q0 -188 136 -188q34 0 66.5 16t49.5 41q15 22 27 22q7 0 12 -5t5 -12q0 -18 -23 -39q-58 -60 -156 -60q-103 0 -161.5 59t-58.5 163q0 99 59 158t157 59q62 0 88 -13l23 -10q8 -2 10 -2h2v1l3 9q4 14 16 14
q16 0 17 -19q0 -4 6 -22l9 -38q10 -34 18 -55q4 -7 4 -14z" />
    <glyph glyph-name="ordfeminine" unicode="&#xaa;" horiz-adv-x="390" 
d="M339 450q0 -14 -23.5 -26t-52.5 -12q-23 0 -32 10t-11 37l-10 -8l-20 -18q-27 -23 -52 -23q-27 0 -46 20t-19 48q0 41 38.5 70t110.5 42v8l-1 24v22q0 10 -9 19q-15 20 -50 20q-33 0 -33 -13q0 -2 1 -3l8 -6q14 -11 14 -29q0 -16 -12 -26.5t-31 -10.5q-17 0 -27.5 10.5
t-10.5 28.5q0 22 18 42q20 21 52 34.5t63 13.5q38 0 61 -22q20 -17 20 -61q0 -7 -2 -31l-2 -103l1 -11q0 -21 2 -27t12 -6l16 2q3 1 10 1q17 0 17 -16zM222 565q-85 -19 -85 -66q0 -16 7.5 -26t20.5 -10q15 0 34 15l18 13l4 2zM220 459v1v-1z" />
    <glyph glyph-name="guillemotleft" unicode="&#xab;" horiz-adv-x="419" 
d="M370 421q0 -42 -17.5 -88.5t-45.5 -77.5q27 -30 40 -67q19 -57 19 -94q0 -12 -5 -19t-11 -7q-11 0 -18 16q-6 16 -27 52q-31 48 -84 101l-18 19q38 32 59 57q55 61 72 109q9 21 21 21q15 0 15 -22zM248 450q0 -16 -21 -68q-17 -42 -33 -67q-22 -39 -49 -61
q46 -43 75 -111q26 -62 26 -83q0 -19 -16 -19q-11 0 -21 18q-4 8 -14 22q-6 9 -18 24q-20 26 -39 49q-26 28 -40 41q-25 22 -76 60q54 38 81 63q26 24 57.5 62.5t45.5 63.5q11 24 26 24q16 0 16 -18z" />
    <glyph glyph-name="logicalnot" unicode="&#xac;" horiz-adv-x="544" 
d="M506 -6h-116v238h-353v57h469v-295z" />
    <glyph glyph-name="registered" unicode="&#xae;" horiz-adv-x="901" 
d="M823 360q0 -153 -109 -262t-263 -109t-263.5 109t-109.5 262q0 154 109 262.5t264 108.5q154 0 263 -108.5t109 -262.5zM778 360q0 137 -95.5 234t-231.5 97t-232 -97t-96 -234t96 -233.5t232 -96.5t231.5 96.5t95.5 233.5zM687 165q0 -21 -31 -21h-3l-31 1l-35 2
q-19 0 -29 6q-10 5 -16 13.5t-21 38.5q-5 10 -29 52q-18 33 -30 51q-23 35 -59 35q-12 0 -24 -1v-129l1 -14q0 -7 3 -8.5t15 -1.5h6h6q15 0 20.5 -4.5t5.5 -17.5q0 -18 -18 -18q-2 0 -4.5 0.5t-3.5 0.5t-10 0.5t-17 0.5l-49 1l-39 -1q-23 0 -33 -2h-10q-19 0 -19 20
q0 21 28 21h1h5q18 0 21.5 4t3.5 26v283q0 22 -3 27.5t-16 5.5h-4q-4 0 -9 -1t-6 -1q-18 0 -18 19q0 21 18 21h10q10 -2 22 -2q38 -2 40 -2q6 0 38 2l43 2q36 3 58 3q131 0 131 -107q0 -71 -58 -101q-18 -10 -32 -12q10 -4 20 -11q20 -17 62 -80l21 -32q22 -34 31.5 -43
t23.5 -10q23 0 23 -16zM505 467q0 36 -20 56t-55 20l-29 -1q-15 0 -18.5 -4.5t-3.5 -23.5v-136l12 -1h22q45 0 63 16q29 24 29 74z" />
    <glyph glyph-name="macron" unicode="&#xaf;" 
d="M394 604q0 -13 -6 -32q-64 4 -138 4q-75 0 -138 -4q-6 16 -6 32t6 33q49 -4 138 -4t138 4q6 -20 6 -33z" />
    <glyph glyph-name="degree" unicode="&#xb0;" horiz-adv-x="310" 
d="M292 615q0 -56 -40.5 -96.5t-96.5 -40.5q-57 0 -97 40.5t-40 96.5q0 57 40 97.5t97 40.5q56 0 96.5 -40.5t40.5 -97.5zM241 615q0 36 -25 61.5t-61 25.5t-61 -25.5t-25 -61.5q0 -35 25 -60.5t61 -25.5t61 25.5t25 60.5z" />
    <glyph glyph-name="plusminus" unicode="&#xb1;" horiz-adv-x="549" 
d="M538 358q0 -17 -11 -32q-33 2 -89 2l-82 1h-41v-41l1 -92q2 -73 4 -110q-25 -8 -45 -8q-19 0 -44 8q3 78 3 110l1 92l1 41h-41h-76q-64 -1 -95 -3q-12 17 -12 32t12 33q32 -3 95 -4h76l41 -1l-1 41v94l-2 71v35q24 11 42 11q20 0 42 -12v-34l-1 -71l-1 -94v-41l41 1h75
q63 1 96 4q11 -17 11 -33zM538 11q0 -17 -11 -32q-7 0 -14.5 0.5t-8.5 0.5q-12 1 -101 1l-128 1l-127 -1q-90 0 -102 -1q-1 0 -8.5 -0.5t-13.5 -0.5q-12 17 -12 32q0 14 12 31q6 0 13.5 -0.5t8.5 -0.5l34 -1h68l127 -1l128 1q33 0 66.5 0.5t34.5 0.5t8.5 0.5t14.5 0.5
q11 -15 11 -31z" />
    <glyph glyph-name="twosuperior" unicode="&#xb2;" horiz-adv-x="403" 
d="M358 374q0 -6 -11 -26q-11 -25 -19 -66q-70 5 -164 5q-65 0 -97 -4q-5 -1 -12 -1q-20 0 -20 19q0 11 17 24q1 1 21 17q2 2 16 13.5t24 20.5q17 15 38 35t22 21q46 49 66 82.5t20 66.5q0 32 -21.5 52t-55.5 20q-32 0 -53.5 -19.5t-21.5 -50.5q0 -8 1 -12q3 -12 3 -14v-2
q0 -17 -17 -17q-8 0 -14 7q-17 23 -17 57q0 52 42 89.5t99 37.5q59 0 96.5 -34.5t37.5 -88.5q0 -61 -53 -122q-14 -17 -50 -47.5t-65 -52.5l-28 -23h17h28q14 -1 65 -1q36 0 45.5 2t15.5 11q9 14 12.5 17t11.5 3q21 0 21 -19z" />
    <glyph glyph-name="threesuperior" unicode="&#xb3;" horiz-adv-x="403" 
d="M348 417q0 -62 -46.5 -102t-118.5 -40q-54 0 -88.5 22t-34.5 56q0 21 15 35.5t36 14.5t34.5 -13t13.5 -32q0 -11 -5.5 -21t-10.5 -14l-5 -4q14 -9 41 -9q37 0 61.5 24t24.5 62t-23.5 63t-60.5 25q-5 0 -15 -2t-14 -2q-8 0 -14 6t-6 14q0 11 5.5 15.5t23.5 8.5
q35 6 61.5 30.5t26.5 52.5q0 23 -17 37.5t-45 14.5q-27 0 -44.5 -16.5t-17.5 -41.5q0 -11 -0.5 -15.5t-5 -10.5t-13.5 -6t-15.5 12t-6.5 32q0 53 35 84.5t95 31.5q52 0 83.5 -27t31.5 -71q0 -28 -21.5 -54.5t-60.5 -43.5q50 -9 75.5 -40t25.5 -76z" />
    <glyph glyph-name="acute" unicode="&#xb4;" 
d="M337 723q0 -17 -24 -48l-107 -129l-2 -2q-11 -12 -20 -12q-8 0 -14 6t-6 15q0 6 3 18l76 160q16 36 47 36q19 0 33 -13t14 -31z" />
    <glyph glyph-name="mu" unicode="&#xb5;" horiz-adv-x="541" 
d="M532 49q0 -16 -21 -28q-42 -27 -98 -27q-61 0 -61 64v3q-23 -20 -37 -30q-34 -26 -55 -34.5t-49 -8.5q-45 0 -77 21q-22 15 -32 33q-2 -14 -2 -52q0 -43 8 -64q6 -20 20 -29q1 -1 4 -3t8.5 -5.5t10.5 -7.5q21 -12 21 -34q0 -24 -16 -40.5t-40 -16.5q-34 0 -54 27.5
t-20 75.5q0 25 5 55l10 59q7 58 7 60q5 44 7 168l1 90v77l1 42v22q0 18 18 18h15q14 0 22 1t18 1q13 0 17.5 -4.5t4.5 -21.5v-11q-2 -15 -3 -39q-3 -77 -3 -125l-1 -62v-17q0 -73 12 -102q10 -20 31 -33t46 -13q46 0 102 42v20q-1 19 -1 84q0 63 1 83l1 88l1 52q0 24 -1 31
v3q0 15 4.5 20t15.5 5h5q6 -1 34 -1h14h4q11 0 15 -3.5t4 -12.5q0 -6 -1 -10q0 -1 -0.5 -3.5t-1 -5.5t-0.5 -6l-2 -32l-3 -80l-2 -76l-1 -76q-1 -21 -1 -50q0 -40 5.5 -53t24.5 -13q9 0 17 1q4 0 7.5 0.5t6 1t3.5 0.5q9 3 13 3q8 0 13 -6t5 -15z" />
    <glyph glyph-name="paragraph" unicode="&#xb6;" horiz-adv-x="598" 
d="M550 707q0 -29 -24 -29q-7 0 -18 1q-1 0 -4.5 0.5t-6.5 0.5q-32 0 -41 -17q-11 -18 -14 -57.5t-3 -150.5q0 -114 1 -179q0 -28 0.5 -61t0.5 -38q0 -162 -8 -224.5t-34 -112.5q-25 -49 -72 -76t-105 -27q-80 0 -129 45t-49 118q0 61 39 100.5t98 39.5q46 0 75.5 -25.5
t29.5 -63.5q0 -34 -21.5 -56.5t-53.5 -22.5q-30 0 -50 20t-20 49q0 26 10 42q4 4 4 8q0 1 -5 1q-25 0 -43 -25.5t-18 -61.5q0 -55 37 -89t96 -34q55 0 95.5 32.5t54.5 88.5q17 71 17 266q0 24 -2 114q-37 -11 -80 -11q-101 0 -156.5 55t-55.5 155q0 116 65.5 179.5
t185.5 63.5q20 0 32 -1l40 -2h35q50 0 59 2q8 2 18 2q20 0 20 -19z" />
    <glyph glyph-name="periodcentered" unicode="&#xb7;" horiz-adv-x="161" 
d="M161 372q0 -33 -24 -56.5t-57 -23.5t-56.5 23.5t-23.5 56.5t23.5 57t56.5 24t57 -24t24 -57z" />
    <glyph glyph-name="cedilla" unicode="&#xb8;" 
d="M336 -138q0 -39 -36.5 -69.5t-82.5 -30.5q-22 0 -35.5 9t-13.5 22q0 21 34 28q15 -22 31 -22q14 0 23 12.5t9 30.5q0 44 -58 51q-15 0 -15 13q0 6 10 15q2 2 10 8q16 13 38 37l23 27l12 12h35q-14 -21 -32 -43q-12 -13 -23 -23q34 -5 52.5 -25.5t18.5 -51.5z" />
    <glyph glyph-name="onesuperior" unicode="&#xb9;" horiz-adv-x="403" 
d="M336 302q0 -20 -21 -20q-4 0 -6 1q-10 0 -15 1q-44 2 -67 2q-5 0 -10.5 -0.5t-15.5 -1t-21 -0.5q-13 0 -47 -2h-4q-13 0 -18 4.5t-5 16.5q0 11 6 15.5t23 4.5h14h16q13 0 13 6l1 13v277v13q-63 -30 -79 -30q-21 0 -21 18q0 13 18 20l15 6l20 8q55 25 94 61q16 15 26 15
q8 0 13 -4q9 -9 9 -15q0 -4 -4 -11q-8 -24 -8 -80v-280q3 -14 5 -15h22q7 -1 16 -1h2q18 0 23.5 -4.5t5.5 -17.5z" />
    <glyph glyph-name="ordmasculine" unicode="&#xba;" horiz-adv-x="429" 
d="M365 564q0 -71 -42 -116t-108 -45q-67 0 -109 45t-42 116t42 115.5t109 44.5q66 0 108 -45t42 -115zM293 564q0 126 -78 126t-78 -126q0 -128 78 -128t78 128z" />
    <glyph glyph-name="guillemotright" unicode="&#xbb;" horiz-adv-x="419" 
d="M398 255q-52 -37 -81 -62q-27 -27 -58.5 -65t-44.5 -62q-15 -24 -27 -24q-6 0 -11 5t-5 13q0 12 21 68q17 39 33 67q25 42 49 61q-27 27 -42 49t-32 63q-26 57 -26 83q0 18 16 18q12 0 20 -16q3 -5 8 -13.5t6 -10.5q6 -9 18 -24q27 -36 39 -48q18 -23 41 -41
q30 -28 76 -61zM219 254q-43 -32 -63 -57q-53 -61 -71 -109q-7 -20 -20 -20q-16 0 -16 21q0 42 18 88.5t46 77.5q-27 29 -41 67q-18 54 -18 94q0 12 5 19.5t11 7.5q9 0 17 -17q8 -20 28 -52q26 -42 84 -101z" />
    <glyph glyph-name="onequarter" unicode="&#xbc;" horiz-adv-x="892" 
d="M336 302q0 -20 -21 -20q-4 0 -6 1q-10 0 -15 1q-44 2 -67 2q-5 0 -10.5 -0.5t-15.5 -1t-21 -0.5q-13 0 -47 -2h-4q-13 0 -18 4.5t-5 16.5q0 11 6 15.5t23 4.5h14h16q13 0 13 6l1 13v277v13q-63 -30 -79 -30q-21 0 -21 18q0 13 18 20l15 6l20 8q55 25 94 61q16 15 26 15
q8 0 13 -4q9 -9 9 -15q0 -4 -4 -11q-8 -24 -8 -80v-280q3 -14 5 -15h22q7 -1 16 -1h2q18 0 23.5 -4.5t5.5 -17.5zM663 703q0 -9 -17 -39l-22 -39l-36 -61l-44 -78l-58 -105l-53 -97q-50 -93 -59 -112l-56 -111q-9 -19 -15 -31t-11 -23.5t-10 -20.5q-30 0 -42 7.5t-12 23.5
q0 12 18 41t95 171l56 103l58 107l62 115q15 28 29.5 55t21 39.5t7.5 14.5q5 10 14 29t13 28l7 15h5q49 0 49 -32zM872 152q0 -13 -6 -18t-22 -5h-61v-70v-11q0 -8 5 -8h9q26 0 26 -21q0 -8 -6 -14t-14 -6q-7 0 -11 1q-18 2 -51 2q-29 0 -52 -3h-7q-21 0 -21 19q0 21 25 21
h11q6 0 6 8v14v68h-164q-28 0 -28 18q0 6 6 15l5 6l202 250q22 27 41 27q23 0 23 -20q0 -4 -1 -8q-2 -10 -2 -11q-1 -5 -1 -14q0 -5 -1 -15v-21v-163h65q14 0 19 -4.5t5 -18.5v-18zM703 192v152l-115 -152h115z" />
    <glyph glyph-name="onehalf" unicode="&#xbd;" horiz-adv-x="892" 
d="M336 302q0 -20 -21 -20q-4 0 -6 1q-10 0 -15 1q-44 2 -67 2q-5 0 -10.5 -0.5t-15.5 -1t-21 -0.5q-13 0 -47 -2h-4q-13 0 -18 4.5t-5 16.5q0 11 6 15.5t23 4.5h14h16q13 0 13 6l1 13v277v13q-63 -30 -79 -30q-21 0 -21 18q0 13 18 20l15 6l20 8q55 25 94 61q16 15 26 15
q8 0 13 -4q9 -9 9 -15q0 -4 -4 -11q-8 -24 -8 -80v-280q3 -14 5 -15h22q7 -1 16 -1h2q18 0 23.5 -4.5t5.5 -17.5zM663 703q0 -9 -17 -39l-22 -39l-36 -61l-44 -78l-58 -105l-53 -97q-50 -93 -59 -112l-56 -111q-9 -19 -15 -31t-11 -23.5t-10 -20.5q-30 0 -42 7.5t-12 23.5
q0 12 18 41t95 171l56 103l58 107l62 115q15 28 29.5 55t21 39.5t7.5 14.5q5 10 14 29t13 28l7 15h5q49 0 49 -32zM846 91q0 -6 -11 -26q-11 -25 -19 -66q-70 5 -164 5q-65 0 -97 -4q-5 -1 -12 -1q-20 0 -20 19q0 11 17 24q1 1 21 17q2 2 16 13.5t24 20.5q17 15 38 35t22 21
q46 49 66 82.5t20 66.5q0 32 -21.5 52t-55.5 20q-32 0 -53.5 -19.5t-21.5 -50.5q0 -8 1 -12q3 -12 3 -14v-2q0 -17 -17 -17q-8 0 -14 7q-17 23 -17 57q0 52 42 89.5t99 37.5q59 0 96.5 -34.5t37.5 -88.5q0 -61 -53 -122q-14 -17 -50 -47.5t-65 -53.5l-28 -22h17h28
q14 -1 65 -1q36 0 45.5 2t15.5 11q9 14 12.5 17t11.5 3q21 0 21 -19z" />
    <glyph glyph-name="threequarters" unicode="&#xbe;" horiz-adv-x="892" 
d="M348 417q0 -62 -46.5 -102t-118.5 -40q-54 0 -88.5 22t-34.5 56q0 21 15 35.5t36 14.5t34.5 -13t13.5 -32q0 -11 -5.5 -21t-10.5 -14l-5 -4q14 -9 41 -9q37 0 61.5 24t24.5 62t-23.5 63t-60.5 25q-5 0 -15 -2t-14 -2q-8 0 -14 6t-6 14q0 11 5.5 15.5t23.5 8.5
q35 6 61.5 30.5t26.5 52.5q0 23 -17 37.5t-45 14.5q-27 0 -44.5 -16.5t-17.5 -41.5q0 -11 -0.5 -15.5t-5 -10.5t-13.5 -6t-15.5 12t-6.5 32q0 53 35 84.5t95 31.5q52 0 83.5 -27t31.5 -71q0 -28 -21.5 -54.5t-60.5 -43.5q50 -9 75.5 -40t25.5 -76zM664 703q0 -9 -17 -39
l-22 -39l-36 -61l-44 -78l-58 -105l-53 -97q-50 -93 -59 -112l-56 -111q-9 -19 -15 -31t-11 -23.5t-10 -20.5q-30 0 -42 7.5t-12 23.5q0 12 18 41t95 171l56 103l58 107l62 115q15 28 29.5 55t21 39.5t7.5 14.5q5 10 14 29t13 28l7 15h5q49 0 49 -32zM872 152q0 -13 -6 -18
t-22 -5h-61v-70v-11q0 -8 5 -8h9q26 0 26 -21q0 -8 -6 -14t-14 -6q-7 0 -11 1q-18 2 -51 2q-29 0 -52 -3h-7q-21 0 -21 19q0 21 25 21h11q6 0 6 8v14v68h-164q-28 0 -28 18q0 6 6 15l5 6l202 250q22 27 41 27q23 0 23 -20q0 -4 -1 -8q-2 -10 -2 -11q-1 -5 -1 -14
q0 -5 -1 -15v-21v-163h65q14 0 19 -4.5t5 -18.5v-18zM703 192v152l-115 -152h115z" />
    <glyph glyph-name="questiondown" unicode="&#xbf;" horiz-adv-x="498" 
d="M328 430q0 -28 -20 -48t-48 -20t-48 20t-20 48t20 48t48 20t48 -20t20 -48zM428 -78q0 -70 -55.5 -119t-134.5 -49q-83 0 -135.5 52.5t-52.5 136.5q0 77 42 132q18 23 38 39t68 47q53 35 60 42q9 9 9 29q0 16 -9 28t-22 12q-23 0 -23 -22v-3v-5q0 -24 -24 -24
q-29 0 -29 26q0 28 27.5 48t67.5 20q46 0 75 -31t29 -80q0 -26 -9 -47q-10 -21 -24 -34q-14 -14 -36 -26q-1 0 -14.5 -7.5t-24.5 -14.5q-66 -36 -88 -63q-33 -36 -33 -91t34 -89t89 -34q48 0 80 26.5t32 66.5q0 8 -3 20q-14 -13 -36 -13q-24 0 -39.5 16t-15.5 41
q0 29 21 49.5t52 20.5q37 0 60.5 -27.5t23.5 -72.5z" />
    <glyph glyph-name="Agrave" unicode="&#xc0;" horiz-adv-x="823" 
d="M473 770q0 -5 -4 -9q-4 -7 -13 -7q-7 0 -19 9l-153 120q-34 27 -34 52q0 20 15.5 34.5t36.5 14.5q16 0 27 -8t27 -30l105 -152q12 -18 12 -24zM830 21q0 -13 -6 -17.5t-25 -4.5q-11 0 -55 2q-62 2 -85 2h-11q-3 0 -91 -2q-26 -1 -40 -3q-7 -1 -17 -1q-23 0 -23 23
q0 22 32 23l26 1q27 2 38 7t11 17q0 9 -11 39l-75 190h-239l-77 -177q-17 -37 -17 -52q0 -14 20 -18q2 0 9.5 -1.5l12.5 -2.5q7 -1 16 -2.5t12 -1.5q18 -2 25 -7t7 -17q0 -24 -24 -24q-2 0 -7 0.5t-8 0.5q-54 6 -97 6q-2 0 -6 -0.5t-6 -0.5l-53 -1q-22 0 -36 -2
q-4 0 -10 -0.5t-8 -0.5q-19 0 -19 20q0 12 7 18t25 7q35 3 56 14q18 9 32 41q9 21 12 27l256 567l6 12q3 7 8 10q9 6 37 6q17 0 25 -5q6 -4 17 -31l215 -537l14 -33l12 -27q14 -37 70 -39l20 -1q25 0 25 -24zM482 339l-68 174q-9 23 -17 58q-4 24 -5 60q-8 -32 -18 -60
q-2 -7 -4.5 -14t-4 -10.5t-1.5 -4.5q-7 -21 -11 -29l-75 -174h204z" />
    <glyph glyph-name="Aacute" unicode="&#xc1;" horiz-adv-x="823" 
d="M593 935q0 -25 -34 -52l-152 -120q-12 -9 -20 -9q-6 0 -11 5t-5 11t12 24l105 152q16 22 27 30t27 8q21 0 36 -14.5t15 -34.5zM830 21q0 -13 -6 -17.5t-25 -4.5q-11 0 -55 2q-62 2 -85 2h-11q-3 0 -91 -2q-26 -1 -40 -3q-7 -1 -17 -1q-23 0 -23 23q0 22 32 23l26 1
q27 2 38 7t11 17q0 9 -11 39l-75 190h-239l-77 -177q-17 -37 -17 -52q0 -14 20 -18q2 0 9.5 -1.5l12.5 -2.5q7 -1 16 -2.5t12 -1.5q18 -2 25 -7t7 -17q0 -24 -24 -24q-2 0 -7 0.5t-8 0.5q-54 6 -97 6q-2 0 -6 -0.5t-6 -0.5l-53 -1q-22 0 -36 -2q-4 0 -10 -0.5t-8 -0.5
q-19 0 -19 20q0 12 7 18t25 7q35 3 56 14q18 9 32 41q9 21 12 27l256 567l6 12q3 7 8 10q9 6 37 6q17 0 25 -5q6 -4 17 -31l215 -537l14 -33l12 -27q14 -37 70 -39l20 -1q25 0 25 -24zM482 339l-68 174q-9 23 -17 58q-4 24 -5 60q-8 -32 -18 -60q-2 -7 -4.5 -14t-4 -10.5
t-1.5 -4.5q-7 -21 -11 -29l-75 -174h204z" />
    <glyph glyph-name="Acircumflex" unicode="&#xc2;" horiz-adv-x="823" 
d="M599 776q-33 -24 -76 -24h-7l-104 141l-102 -137q-10 -2 -15 -2q-20 0 -34 13l149 188q14 17 23 17q11 0 25 -17zM830 21q0 -13 -6 -17.5t-25 -4.5q-11 0 -55 2q-62 2 -85 2h-11q-3 0 -91 -2q-26 -1 -40 -3q-7 -1 -17 -1q-23 0 -23 23q0 22 32 23l26 1q27 2 38 7t11 17
q0 9 -11 39l-75 190h-239l-77 -177q-17 -37 -17 -52q0 -14 20 -18q2 0 9.5 -1.5l12.5 -2.5q7 -1 16 -2.5t12 -1.5q18 -2 25 -7t7 -17q0 -24 -24 -24q-2 0 -7 0.5t-8 0.5q-54 6 -97 6q-2 0 -6 -0.5t-6 -0.5l-53 -1q-22 0 -36 -2q-4 0 -10 -0.5t-8 -0.5q-19 0 -19 20
q0 12 7 18t25 7q35 3 56 14q18 9 32 41q9 21 12 27l256 567l6 12q3 7 8 10q9 6 37 6q17 0 25 -5q6 -4 17 -31l215 -537l14 -33l12 -27q14 -37 70 -39l20 -1q25 0 25 -24zM482 339l-68 174q-9 23 -17 58q-4 24 -5 60q-8 -32 -18 -60q-2 -7 -4.5 -14t-4 -10.5t-1.5 -4.5
q-7 -21 -11 -29l-75 -174h204z" />
    <glyph glyph-name="Atilde" unicode="&#xc3;" horiz-adv-x="823" 
d="M617 941q0 -27 -36 -86q-8 -14 -16 -19t-24 -6q-14 -2 -54 -2q-26 0 -68 2l-50 3q-44 2 -47 2q-57 0 -57 -28l-1 -5q0 -4 1 -5l5 -13q2 -8 2 -13q0 -17 -18 -17q-10 0 -18.5 7.5t-8.5 16.5q0 2 2 14l8 36q10 49 36 71.5t72 22.5q41 0 91 -6l48 -5q26 -2 43 -2q53 0 53 6
l-7 6q-12 11 -12 24q0 11 8 19t19 8q13 0 21 -8.5t8 -22.5zM830 21q0 -13 -6 -17.5t-25 -4.5q-11 0 -55 2q-62 2 -85 2h-11q-3 0 -91 -2q-26 -1 -40 -3q-7 -1 -17 -1q-23 0 -23 23q0 22 32 23l26 1q27 2 38 7t11 17q0 9 -11 39l-75 190h-239l-77 -177q-17 -37 -17 -52
q0 -14 20 -18q2 0 9.5 -1.5l12.5 -2.5q7 -1 16 -2.5t12 -1.5q18 -2 25 -7t7 -17q0 -24 -24 -24q-2 0 -7 0.5t-8 0.5q-54 6 -97 6q-2 0 -6 -0.5t-6 -0.5l-53 -1q-22 0 -36 -2q-4 0 -10 -0.5t-8 -0.5q-19 0 -19 20q0 12 7 18t25 7q35 3 56 14q18 9 32 41q9 21 12 27l256 567
l6 12q3 7 8 10q9 6 37 6q17 0 25 -5q6 -4 17 -31l215 -537l14 -33l12 -27q14 -37 70 -39l20 -1q25 0 25 -24zM482 339l-68 174q-9 23 -17 58q-4 24 -5 60q-8 -32 -18 -60q-2 -7 -4.5 -14t-4 -10.5t-1.5 -4.5q-7 -21 -11 -29l-75 -174h204z" />
    <glyph glyph-name="Adieresis" unicode="&#xc4;" horiz-adv-x="823" 
d="M624 856q0 -29 -20.5 -49t-49.5 -20q-28 0 -48.5 20.5t-20.5 48.5q0 29 20 49.5t49 20.5t49.5 -20.5t20.5 -49.5zM362 856q0 -28 -20.5 -48.5t-49.5 -20.5t-49.5 20.5t-20.5 48.5q0 29 20.5 49.5t49.5 20.5t49.5 -20.5t20.5 -49.5zM830 21q0 -13 -6 -17.5t-25 -4.5
q-11 0 -55 2q-62 2 -85 2h-11q-3 0 -91 -2q-26 -1 -40 -3q-7 -1 -17 -1q-23 0 -23 23q0 22 32 23l26 1q27 2 38 7t11 17q0 9 -11 39l-75 190h-239l-77 -177q-17 -37 -17 -52q0 -14 20 -18q2 0 9.5 -1.5l12.5 -2.5q7 -1 16 -2.5t12 -1.5q18 -2 25 -7t7 -17q0 -24 -24 -24
q-2 0 -7 0.5t-8 0.5q-54 6 -97 6q-2 0 -6 -0.5t-6 -0.5l-53 -1q-22 0 -36 -2q-4 0 -10 -0.5t-8 -0.5q-19 0 -19 20q0 12 7 18t25 7q35 3 56 14q18 9 32 41q9 21 12 27l256 567l6 12q3 7 8 10q9 6 37 6q17 0 25 -5q6 -4 17 -31l215 -537l14 -33l12 -27q14 -37 70 -39l20 -1
q25 0 25 -24zM482 339l-68 174q-9 23 -17 58q-4 24 -5 60q-8 -32 -18 -60q-2 -7 -4.5 -14t-4 -10.5t-1.5 -4.5q-7 -21 -11 -29l-75 -174h204z" />
    <glyph glyph-name="Aring" unicode="&#xc5;" horiz-adv-x="823" 
d="M532 863q0 -44 -32 -76t-77 -32q-44 0 -76 32t-32 76q0 45 32 77t76 32q45 0 77 -32t32 -77zM830 21q0 -13 -6 -17.5t-25 -4.5q-11 0 -55 2q-62 2 -85 2h-11q-3 0 -91 -2q-26 -1 -40 -3q-7 -1 -17 -1q-23 0 -23 23q0 22 32 23l26 1q27 2 38 7t11 17q0 9 -11 39l-75 190
h-239l-77 -177q-17 -37 -17 -52q0 -14 20 -18q2 0 9.5 -1.5l12.5 -2.5q7 -1 16 -2.5t12 -1.5q18 -2 25 -7t7 -17q0 -24 -24 -24q-2 0 -7 0.5t-8 0.5q-54 6 -97 6q-2 0 -6 -0.5t-6 -0.5l-53 -1q-22 0 -36 -2q-4 0 -10 -0.5t-8 -0.5q-19 0 -19 20q0 12 7 18t25 7q35 3 56 14
q18 9 32 41q9 21 12 27l256 567l6 12q3 7 8 10q9 6 37 6q17 0 25 -5q6 -4 17 -31l215 -537l14 -33l12 -27q14 -37 70 -39l20 -1q25 0 25 -24zM485 863q0 26 -18 44t-44 18t-43.5 -18t-17.5 -44q0 -25 18 -43t43 -18q26 0 44 17.5t18 43.5zM482 339l-68 174q-9 23 -17 58
q-4 24 -5 60q-8 -32 -18 -60q-2 -7 -4.5 -14t-4 -10.5t-1.5 -4.5q-7 -21 -11 -29l-75 -174h204z" />
    <glyph glyph-name="AE" unicode="&#xc6;" horiz-adv-x="1142" 
d="M1124 177q0 -9 -6 -20l-10 -19q-26 -52 -26 -74q0 -4 4 -14l7 -12q2 -4 2 -9q0 -13 -8.5 -21t-21.5 -8h-15q-5 1 -29 1q-26 0 -46 1h-37h-323l-65 -2q-16 0 -32 -0.5t-24.5 -1t-11.5 -0.5q-5 -1 -14 -1q-28 0 -28 23q0 24 27 24h6q12 -1 39 -1q32 0 41 8.5t10 36.5v26
v235h-242l-9 -14q-38 -62 -54 -93l-51 -96q-25 -46 -25 -66q0 -17 11 -24t39 -8q35 -2 45.5 -6.5t10.5 -18.5q0 -25 -26 -25q-8 0 -12 1q-4 0 -10 0.5t-17 1t-19 0.5l-71 2h-10q-25 0 -42 -1q-24 -1 -40 -3q-7 -1 -20 -1q-28 0 -28 24q0 12 9 17.5t33 8.5q35 4 52.5 15.5
t34.5 42.5l30 52q10 18 36 62t35 60q87 146 150 237l51 74l23 32q9 15 9 23q0 11 -11 14t-53 3h-23q-9 0 -17 3q-9 4 -9 17q0 15 6 20.5t21 5.5q10 0 15 -1q4 0 13.5 -0.5t15.5 -0.5q19 -1 119 -1h365q76 0 105 3q18 2 20 2q24 0 24 -22q0 -9 -7 -20q-6 -11 -6 -17
q0 -8 4 -17q14 -34 29 -58l10 -16q5 -6 5 -15q0 -10 -7 -17t-17 -7q-19 0 -57.5 28.5t-74.5 68.5q-29 34 -41 38q-9 4 -60 4h-100l-20 -1q-15 0 -18 -3q-5 -5 -5 -41v-227q7 -1 14 -1q1 0 13.5 0.5t24.5 0.5q59 2 85 14q31 15 56 78q6 15 11.5 20.5t14.5 5.5q22 0 22 -21
q0 -7 -1 -11q-6 -54 -6 -115q0 -24 1 -39q1 -48 4 -70q1 -2 1 -7q0 -21 -23 -21q-19 0 -26 26q-8 35 -19.5 53.5t-31.5 29.5q-17 11 -40 13q-5 1 -48 3q-10 1 -26 1q-14 0 -26 -1v-255q0 -31 5 -39q6 -6 38 -6h145q37 0 57 5q19 5 49 40q49 56 80 82q29 25 46 25
q9 0 15.5 -6.5t6.5 -16.5zM563 391v268q-4 1 -9 1q-26 0 -51 -32q-30 -38 -91 -130q-43 -68 -66 -107h217z" />
    <glyph glyph-name="Ccedilla" unicode="&#xc7;" horiz-adv-x="787" 
d="M741 495q0 -11 -6.5 -17.5t-17.5 -6.5q-19 0 -40.5 22.5t-62.5 83.5q-40 60 -69 78q-42 27 -105 27q-110 0 -168.5 -84.5t-58.5 -242.5q0 -164 63.5 -248.5t186.5 -84.5q65 0 123.5 29.5t98.5 81.5q12 17 24 17q10 0 17.5 -7.5t7.5 -18.5q0 -17 -21 -41
q-100 -109 -264 -112l-21 -24l-7 -8q79 -17 79 -86q0 -46 -42.5 -81.5t-98.5 -35.5q-24 0 -37.5 9t-13.5 24q0 22 37 35q14 -26 36 -26q17 0 27.5 13t10.5 33q0 55 -60 61q-20 1 -20 16q0 9 14 22q5 4 19 16q14 13 29 28l5 5q-152 11 -242 111.5t-90 260.5q0 169 102 275
t263 106q35 0 74 -6q44 -7 96 -24q15 -5 23 -5t15 5l13 10q11 10 24 10q17 0 23 -11t6 -41q0 -44 6 -74q2 -12 7 -32q5 -19 8 -30q7 -21 7 -32z" />
    <glyph glyph-name="Egrave" unicode="&#xc8;" horiz-adv-x="721" 
d="M452 770q0 -7 -5 -10q-5 -6 -11 -6q-8 0 -20 9l-152 120q-34 27 -34 52q0 20 15.5 34.5t35.5 14.5q29 0 54 -38l105 -152q12 -18 12 -24zM704 177q0 -8 -7 -20l-9 -19q-26 -48 -26 -74q0 -6 3 -14l7 -12q2 -4 2 -9q0 -13 -8.5 -21t-21.5 -8h-14q-8 1 -40 1q-36 0 -73 1
q-43 1 -190 1q-95 0 -124 -1l-63 -1l-54 -2q-16 0 -22 -1h-6q-13 0 -18 4.5t-5 17.5t6 18.5t21 5.5h3h21l20 1q22 2 29 10t7 33v522v23q-2 13 -8 18q-8 10 -32 10h-20q-23 1 -30 5.5t-7 20.5q0 21 19 21h6q2 0 7 -0.5t10 -0.5l49 -2q35 -1 119 -1h89l133 2l65 1q16 0 40 2
q16 2 20 2q24 0 24 -22q0 -9 -7 -20q-6 -11 -6 -17q0 -8 4 -17q15 -34 29 -58l10 -16q6 -8 6 -15q0 -10 -7.5 -17t-17.5 -7q-19 0 -57.5 28.5t-74.5 68.5q-29 34 -41 38q-9 4 -60 4h-99l-21 -1q-15 0 -18 -3q-5 -5 -5 -41v-227q7 -1 14 -1q1 0 14 0.5t25 0.5q58 2 84 14
q31 15 56 78q6 16 11.5 21t15.5 5q21 0 21 -21q0 -7 -1 -11q-6 -54 -6 -115q0 -5 0.5 -18t0.5 -21q1 -48 4 -70q1 -2 1 -7q0 -21 -22 -21q-20 0 -27 26q-8 35 -19.5 53.5t-31.5 29.5q-17 11 -39 13q-6 1 -49 3q-10 1 -26 1q-14 0 -26 -1v-255q0 -32 5 -39q6 -6 39 -6h144
q37 0 57 5q19 5 49 40q49 56 80 82q29 25 46 25q9 0 16 -6.5t7 -16.5z" />
    <glyph glyph-name="Eacute" unicode="&#xc9;" horiz-adv-x="721" 
d="M532 935q0 -25 -34 -52l-152 -120q-12 -9 -20 -9q-6 0 -11 5t-5 11t12 24l105 152q25 38 54 38q21 0 36 -14.5t15 -34.5zM704 177q0 -8 -7 -20l-9 -19q-26 -48 -26 -74q0 -6 3 -14l7 -12q2 -4 2 -9q0 -13 -8.5 -21t-21.5 -8h-14q-8 1 -40 1q-36 0 -73 1q-43 1 -190 1
q-95 0 -124 -1l-63 -1l-54 -2q-16 0 -22 -1h-6q-13 0 -18 4.5t-5 17.5t6 18.5t21 5.5h3h21l20 1q22 2 29 10t7 33v522v23q-2 13 -8 18q-8 10 -32 10h-20q-23 1 -30 5.5t-7 20.5q0 21 19 21h6q2 0 7 -0.5t10 -0.5l49 -2q35 -1 119 -1h89l133 2l65 1q16 0 40 2q16 2 20 2
q24 0 24 -22q0 -9 -7 -20q-6 -11 -6 -17q0 -8 4 -17q15 -34 29 -58l10 -16q6 -8 6 -15q0 -10 -7.5 -17t-17.5 -7q-19 0 -57.5 28.5t-74.5 68.5q-29 34 -41 38q-9 4 -60 4h-99l-21 -1q-15 0 -18 -3q-5 -5 -5 -41v-227q7 -1 14 -1q1 0 14 0.5t25 0.5q58 2 84 14q31 15 56 78
q6 16 11.5 21t15.5 5q21 0 21 -21q0 -7 -1 -11q-6 -54 -6 -115q0 -5 0.5 -18t0.5 -21q1 -48 4 -70q1 -2 1 -7q0 -21 -22 -21q-20 0 -27 26q-8 35 -19.5 53.5t-31.5 29.5q-17 11 -39 13q-6 1 -49 3q-10 1 -26 1q-14 0 -26 -1v-255q0 -32 5 -39q6 -6 39 -6h144q37 0 57 5
q19 5 49 40q49 56 80 82q29 25 46 25q9 0 16 -6.5t7 -16.5z" />
    <glyph glyph-name="Ecircumflex" unicode="&#xca;" horiz-adv-x="721" 
d="M551 778q-36 -22 -77 -22h-8l-103 141l-102 -138q-10 -2 -16 -2q-17 0 -35 13l151 189q13 16 23 16q11 0 24 -16zM704 177q0 -8 -7 -20l-9 -19q-26 -48 -26 -74q0 -6 3 -14l7 -12q2 -4 2 -9q0 -13 -8.5 -21t-21.5 -8h-14q-8 1 -40 1q-36 0 -73 1q-43 1 -190 1
q-95 0 -124 -1l-63 -1l-54 -2q-16 0 -22 -1h-6q-13 0 -18 4.5t-5 17.5t6 18.5t21 5.5h3h21l20 1q22 2 29 10t7 33v522v23q-2 13 -8 18q-8 10 -32 10h-20q-23 1 -30 5.5t-7 20.5q0 21 19 21h6q2 0 7 -0.5t10 -0.5l49 -2q35 -1 119 -1h89l133 2l65 1q16 0 40 2q16 2 20 2
q24 0 24 -22q0 -9 -7 -20q-6 -11 -6 -17q0 -8 4 -17q15 -34 29 -58l10 -16q6 -8 6 -15q0 -10 -7.5 -17t-17.5 -7q-19 0 -57.5 28.5t-74.5 68.5q-29 34 -41 38q-9 4 -60 4h-99l-21 -1q-15 0 -18 -3q-5 -5 -5 -41v-227q7 -1 14 -1q1 0 14 0.5t25 0.5q58 2 84 14q31 15 56 78
q6 16 11.5 21t15.5 5q21 0 21 -21q0 -7 -1 -11q-6 -54 -6 -115q0 -5 0.5 -18t0.5 -21q1 -48 4 -70q1 -2 1 -7q0 -21 -22 -21q-20 0 -27 26q-8 35 -19.5 53.5t-31.5 29.5q-17 11 -39 13q-6 1 -49 3q-10 1 -26 1q-14 0 -26 -1v-255q0 -32 5 -39q6 -6 39 -6h144q37 0 57 5
q19 5 49 40q49 56 80 82q29 25 46 25q9 0 16 -6.5t7 -16.5z" />
    <glyph glyph-name="Edieresis" unicode="&#xcb;" horiz-adv-x="721" 
d="M571 856q0 -28 -20.5 -48.5t-48.5 -20.5q-29 0 -49.5 20t-20.5 49t20.5 49.5t49.5 20.5t49 -20.5t20 -49.5zM309 856q0 -29 -20.5 -49t-49.5 -20t-49 20.5t-20 48.5q0 29 20 49.5t49 20.5t49.5 -20.5t20.5 -49.5zM704 177q0 -8 -7 -20l-9 -19q-26 -48 -26 -74q0 -6 3 -14
l7 -12q2 -4 2 -9q0 -13 -8.5 -21t-21.5 -8h-14q-8 1 -40 1q-36 0 -73 1q-43 1 -190 1q-95 0 -124 -1l-63 -1l-54 -2q-16 0 -22 -1h-6q-13 0 -18 4.5t-5 17.5t6 18.5t21 5.5h3h21l20 1q22 2 29 10t7 33v522v23q-2 13 -8 18q-8 10 -32 10h-20q-23 1 -30 5.5t-7 20.5
q0 21 19 21h6q2 0 7 -0.5t10 -0.5l49 -2q35 -1 119 -1h89l133 2l65 1q16 0 40 2q16 2 20 2q24 0 24 -22q0 -9 -7 -20q-6 -11 -6 -17q0 -8 4 -17q15 -34 29 -58l10 -16q6 -8 6 -15q0 -10 -7.5 -17t-17.5 -7q-19 0 -57.5 28.5t-74.5 68.5q-29 34 -41 38q-9 4 -60 4h-99l-21 -1
q-15 0 -18 -3q-5 -5 -5 -41v-227q7 -1 14 -1q1 0 14 0.5t25 0.5q58 2 84 14q31 15 56 78q6 16 11.5 21t15.5 5q21 0 21 -21q0 -7 -1 -11q-6 -54 -6 -115q0 -5 0.5 -18t0.5 -21q1 -48 4 -70q1 -2 1 -7q0 -21 -22 -21q-20 0 -27 26q-8 35 -19.5 53.5t-31.5 29.5q-17 11 -39 13
q-6 1 -49 3q-10 1 -26 1q-14 0 -26 -1v-255q0 -32 5 -39q6 -6 39 -6h144q37 0 57 5q19 5 49 40q49 56 80 82q29 25 46 25q9 0 16 -6.5t7 -16.5z" />
    <glyph glyph-name="Igrave" unicode="&#xcc;" horiz-adv-x="417" 
d="M290 770q0 -5 -4 -9q-4 -7 -13 -7q-7 0 -19 9l-152 120q-35 27 -35 52q0 20 15.5 34.5t36.5 14.5q16 0 27 -8t27 -30l105 -152q12 -18 12 -24zM389 20q0 -23 -23 -23q-1 0 -6.5 0.5t-9.5 0.5q-45 5 -163 5q-63 0 -116 -5q-5 0 -11.5 -0.5t-8.5 -0.5q-23 0 -23 25
q0 11 6 15.5t22 4.5h2q3 0 8 0.5t11 0.5h22q35 0 45 10q8 9 8 64v474l-1 26q-1 30 -7 38t-29 8q-4 0 -12 0.5t-13 0.5q-10 1 -21 1h-2q-28 0 -28 23q0 14 5 19t20 5q9 0 13 -1q44 -4 141 -4q90 0 126 3q9 1 21 1q19 0 19 -23q0 -9 -2 -13q-3 -9 -10 -11t-33 -2h-17l-19 -1
q-20 0 -25.5 -6.5t-6.5 -29.5v-21v-492v-26v-4q0 -24 8.5 -31t37.5 -8h25q11 0 20 1h3q13 0 18.5 -5t5.5 -19z" />
    <glyph glyph-name="Iacute" unicode="&#xcd;" horiz-adv-x="417" 
d="M380 935q0 -25 -34 -52l-152 -120q-13 -9 -20 -9q-6 0 -11.5 5t-5.5 11t12 24l105 152q16 22 27 30t27 8q21 0 36.5 -14.5t15.5 -34.5zM389 20q0 -23 -23 -23q-1 0 -6.5 0.5t-9.5 0.5q-45 5 -163 5q-63 0 -116 -5q-5 0 -11.5 -0.5t-8.5 -0.5q-23 0 -23 25q0 11 6 15.5
t22 4.5h2q3 0 8 0.5t11 0.5h22q35 0 45 10q8 9 8 64v474l-1 26q-1 30 -7 38t-29 8q-4 0 -12 0.5t-13 0.5q-10 1 -21 1h-2q-28 0 -28 23q0 14 5 19t20 5q9 0 13 -1q44 -4 141 -4q90 0 126 3q9 1 21 1q19 0 19 -23q0 -9 -2 -13q-3 -9 -10 -11t-33 -2h-17l-19 -1
q-20 0 -25.5 -6.5t-6.5 -29.5v-21v-492v-26v-4q0 -24 8.5 -31t37.5 -8h25q11 0 20 1h3q13 0 18.5 -5t5.5 -19z" />
    <glyph glyph-name="Icircumflex" unicode="&#xce;" horiz-adv-x="417" 
d="M360 774q-22 -17 -61 -17h-16l-81 134l-81 -134q-6 -2 -12 -2q-14 0 -31 13l124 194q8 13 21 13q11 0 21 -16zM389 20q0 -23 -23 -23q-1 0 -6.5 0.5t-9.5 0.5q-45 5 -163 5q-63 0 -116 -5q-5 0 -11.5 -0.5t-8.5 -0.5q-23 0 -23 25q0 11 6 15.5t22 4.5h2q3 0 8 0.5t11 0.5
h22q35 0 45 10q8 9 8 64v474l-1 26q-1 30 -7 38t-29 8q-4 0 -12 0.5t-13 0.5q-10 1 -21 1h-2q-28 0 -28 23q0 14 5 19t20 5q9 0 13 -1q44 -4 141 -4q90 0 126 3q9 1 21 1q19 0 19 -23q0 -9 -2 -13q-3 -9 -10 -11t-33 -2h-17l-19 -1q-20 0 -25.5 -6.5t-6.5 -29.5v-21v-492
v-26v-4q0 -24 8.5 -31t37.5 -8h25q11 0 20 1h3q13 0 18.5 -5t5.5 -19z" />
    <glyph glyph-name="Idieresis" unicode="&#xcf;" horiz-adv-x="417" 
d="M389 851q0 -26 -19 -45t-46 -19q-26 0 -45 19t-19 45t19 45.5t45 19.5t45.5 -19.5t19.5 -45.5zM173 851q0 -26 -19.5 -45t-45.5 -19t-45 19t-19 45t19 45.5t45 19.5t45.5 -19.5t19.5 -45.5zM389 20q0 -23 -23 -23q-1 0 -6.5 0.5t-9.5 0.5q-45 5 -163 5q-63 0 -116 -5
q-5 0 -11.5 -0.5t-8.5 -0.5q-23 0 -23 25q0 11 6 15.5t22 4.5h2q3 0 8 0.5t11 0.5h22q35 0 45 10q8 9 8 64v474l-1 26q-1 30 -7 38t-29 8q-4 0 -12 0.5t-13 0.5q-10 1 -21 1h-2q-28 0 -28 23q0 14 5 19t20 5q9 0 13 -1q44 -4 141 -4q90 0 126 3q9 1 21 1q19 0 19 -23
q0 -9 -2 -13q-3 -9 -10 -11t-33 -2h-17l-19 -1q-20 0 -25.5 -6.5t-6.5 -29.5v-21v-492v-26v-4q0 -24 8.5 -31t37.5 -8h25q11 0 20 1h3q13 0 18.5 -5t5.5 -19z" />
    <glyph glyph-name="Eth" unicode="&#xd0;" horiz-adv-x="886" 
d="M812 356q0 -173 -100 -266.5t-287 -93.5q-16 0 -86 2q-93 4 -121 4h-7q-35 0 -66 -1q-36 -2 -52 -3q-5 -1 -16 -1q-14 0 -20 4.5t-6 17.5q0 22 26 22h25q42 0 51 10q7 9 9 29v34v233l-15 1l-31 -1q-18 -1 -32 -1q-6 -1 -14 -1q-20 0 -20 23q0 21 24 21q7 0 10 -1
q4 0 23.5 -0.5t39.5 -0.5l15 -1v235q0 31 -4.5 38t-22.5 7h-12q-9 -1 -29 -1q-18 0 -22 3q-11 6 -11 25q0 20 16 20q3 0 25 -2q36 -4 130 -4h33l75 3q42 2 65 2q112 0 182 -21t125 -71q100 -89 100 -264zM678 361q0 224 -136 284q-51 23 -160 23q-77 0 -88 -11
q-8 -7 -10.5 -20.5t-2.5 -56.5v-194h16l40 1h33q13 1 25 1q5 1 12 1q20 0 20 -21q0 -13 -6 -17.5t-22 -4.5h-14q-5 1 -40 1q-11 0 -21 0.5t-15.5 0.5h-6.5q-2 0 -9 -0.5t-12 -0.5v-213q0 -44 1.5 -56.5t8.5 -19.5q15 -17 111 -17q146 0 211 75.5t65 244.5z" />
    <glyph glyph-name="Ntilde" unicode="&#xd1;" horiz-adv-x="881" 
d="M668 947q0 -27 -36 -86q-8 -14 -16 -19t-24 -6q-14 -2 -54 -2q-26 0 -69 2l-49 3q-46 2 -47 2q-58 0 -58 -28q0 -5 1 -10l5 -13q2 -8 2 -13q0 -17 -18 -17q-10 0 -18.5 7.5t-8.5 16.5q0 2 2 14l8 36q10 49 36 71.5t72 22.5q42 0 91 -6l48 -5q26 -2 43 -2q53 0 53 6l-7 6
q-12 11 -12 24q0 11 8 19t19 8q13 0 21 -8.5t8 -22.5zM860 689q0 -13 -8 -18.5t-29 -7.5q-45 -3 -56 -14q-10 -10 -10 -62l-5 -416v-67v-54l2 -29v-3q0 -15 -7.5 -21t-27.5 -6q-17 0 -26.5 7t-24.5 31q-17 26 -44 61l-441 568l6 -507l1 -49q1 -35 15 -45.5t62 -12.5
q30 -1 30 -22q0 -24 -24 -24h-8q-25 3 -32 3q-22 2 -68 2q-61 0 -95 -4q-5 -1 -13 -1q-22 0 -22 23q0 11 7 16.5t26 7.5l27 3q20 3 27.5 8t11.5 19q5 20 5 66l1 449v21q-2 31 -3 33q-6 19 -45 19l-24 1q-27 0 -27 25q0 21 22 21h12l37 -1l69 -2q4 0 25.5 0.5t38.5 0.5l32 2
h10q17 0 32 -20l321 -411q35 -44 46 -68q15 -32 27 -87l-1 25l-2 37l-2 36l-1 28l-1 325v31q-1 32 -9 42t-34 13l-30 4q-20 2 -27.5 7.5t-7.5 17.5q0 22 23 22q9 0 14 -1q13 -2 32 -3q46 -2 56 -2h10l63 2q27 0 32 1t13 1q19 0 19 -21z" />
    <glyph glyph-name="Ograve" unicode="&#xd2;" horiz-adv-x="885" 
d="M527 770q0 -5 -4 -9q-4 -7 -12 -7t-20 9l-152 120q-34 27 -34 52q0 20 15.5 34.5t35.5 14.5q29 0 54 -38l105 -152q12 -18 12 -24zM807 355q0 -170 -102.5 -276.5t-266.5 -106.5q-160 0 -260 106t-100 276q0 169 100 273q105 110 263 110q162 0 264 -106.5t102 -275.5z
M669 354q0 339 -227 339q-226 0 -226 -339q0 -338 226 -338q227 0 227 338z" />
    <glyph glyph-name="Oacute" unicode="&#xd3;" horiz-adv-x="885" 
d="M594 941q0 -25 -34 -52l-152 -120q-12 -9 -20 -9q-6 0 -11 5t-5 11t12 24l105 152q25 38 54 38q21 0 36 -14.5t15 -34.5zM807 355q0 -170 -102.5 -276.5t-266.5 -106.5q-160 0 -260 106t-100 276q0 169 100 273q105 110 263 110q162 0 264 -106.5t102 -275.5zM669 354
q0 339 -227 339q-226 0 -226 -339q0 -338 226 -338q227 0 227 338z" />
    <glyph glyph-name="Ocircumflex" unicode="&#xd4;" horiz-adv-x="885" 
d="M625 784q-36 -22 -77 -22h-8l-103 141l-102 -138q-10 -2 -16 -2q-17 0 -35 13l151 189q13 16 23 16q14 0 24 -16zM807 355q0 -170 -102.5 -276.5t-266.5 -106.5q-160 0 -260 106t-100 276q0 169 100 273q105 110 263 110q162 0 264 -106.5t102 -275.5zM669 354
q0 339 -227 339q-226 0 -226 -339q0 -338 226 -338q227 0 227 338z" />
    <glyph glyph-name="Otilde" unicode="&#xd5;" horiz-adv-x="885" 
d="M657 941q0 -27 -36 -86q-8 -14 -15.5 -19t-24.5 -6q-14 -2 -54 -2q-26 0 -68 2l-50 3q-44 2 -47 2q-57 0 -57 -28l-1 -5q0 -4 1 -5l5 -13q2 -8 2 -13q0 -17 -18 -17q-10 0 -18.5 7.5t-8.5 16.5q0 2 2 14l8 36q10 49 36 71.5t72 22.5q41 0 91 -6l48 -5q26 -2 43 -2
q53 0 53 6l-7 6q-12 11 -12 24q0 11 8 19t19 8q13 0 21 -8.5t8 -22.5zM807 355q0 -170 -102.5 -276.5t-266.5 -106.5q-160 0 -260 106t-100 276q0 169 100 273q105 110 263 110q162 0 264 -106.5t102 -275.5zM669 354q0 339 -227 339q-226 0 -226 -339q0 -338 226 -338
q227 0 227 338z" />
    <glyph glyph-name="Odieresis" unicode="&#xd6;" horiz-adv-x="885" 
d="M656 856q0 -28 -20 -48.5t-49 -20.5t-49.5 20t-20.5 49t20.5 49.5t49.5 20.5t49 -20.5t20 -49.5zM394 856q0 -29 -20.5 -49t-49.5 -20q-28 0 -48.5 20.5t-20.5 48.5q0 29 20 49.5t49 20.5t49.5 -20.5t20.5 -49.5zM807 355q0 -170 -102.5 -276.5t-266.5 -106.5
q-160 0 -260 106t-100 276q0 169 100 273q105 110 263 110q162 0 264 -106.5t102 -275.5zM669 354q0 339 -227 339q-226 0 -226 -339q0 -338 226 -338q227 0 227 338z" />
    <glyph glyph-name="multiply" unicode="&#xd7;" horiz-adv-x="614" 
d="M573 157q-25 -47 -64 -64l-19 19l-88 92l-98 99l-7 7l-6 -6q-2 -2 -29.5 -30t-53.5 -54q-68 -69 -118 -127q-36 15 -48 50q12 8 17 13l101 99l92 89l5 5l-4 4l-88 87q-63 63 -118 112q13 27 26 39.5t40 23.5q35 -43 99 -107q63 -61 97 -97l5 -6l12 12l87 89l81 86l20 22
q35 -16 47 -47l-19 -17l-93 -89l-85 -84l-11 -10l10 -10l101 -98l42 -40t32.5 -31t16.5 -15q1 -1 3.5 -3t6.5 -5.5t8 -7.5z" />
    <glyph glyph-name="Oslash" unicode="&#xd8;" horiz-adv-x="889" 
d="M807 355q0 -170 -102.5 -276.5t-265.5 -106.5q-129 0 -227 76l-11 -13q-19 -22 -51 -66q-28 10 -28 29q0 11 21 33q8 8 17 18l16 17l7 8q-105 108 -105 279q0 170 100 274q105 110 263 110q130 0 232 -77l8 9q22 28 23 31q12 15 23 34q27 -14 27 -31q0 -8 -7 -16
q-16 -20 -41 -45l-6 -6q107 -107 107 -281zM621 593q-61 100 -179 100q-112 0 -169 -85t-57 -252q0 -124 29 -201l25 28l104 119l130 153l99 116zM669 352q0 128 -30 204l-25 -29l-107 -121l-117 -137l-106 -126l-21 -26q61 -101 180 -101q111 0 168.5 85t57.5 251z" />
    <glyph glyph-name="Ugrave" unicode="&#xd9;" horiz-adv-x="858" 
d="M510 782q0 -5 -4 -9q-4 -7 -12 -7t-20 9l-152 120q-34 26 -34 52q0 20 15 34.5t36 14.5q16 0 27 -8t27 -30l105 -152q12 -18 12 -24zM837 690q0 -26 -29 -26h-28q-29 -1 -37 -8t-9 -33l-1 -30v-315q0 -100 -21.5 -157t-72.5 -91q-81 -53 -209 -53q-109 0 -186 41
q-43 22 -70 62q-24 34 -33 73t-9 107v336q0 49 -8.5 58.5t-51.5 9.5h-6h-3q-35 0 -35 26q0 21 26 21h14q49 -4 108 -4q120 0 146 3q5 1 14 1q14 0 19 -5t5 -18t-6.5 -17.5t-25.5 -5.5l-21 -2q-15 0 -27 -2q-15 -2 -20 -10.5t-6 -31.5v-37v-295q0 -92 14 -140
q16 -55 67.5 -86t125.5 -31q89 0 147 42q35 26 52 70q17 47 17 150v289v35q0 31 -6 39t-28 9h-24l-22 1q-14 0 -19.5 5t-5.5 19q0 21 20 21h13q21 -4 103 -4q58 0 98 4q4 1 10 1q21 0 21 -21z" />
    <glyph glyph-name="Uacute" unicode="&#xda;" horiz-adv-x="858" 
d="M620 935q0 -25 -34 -52l-152 -120q-13 -9 -20 -9q-6 0 -11 5t-5 11t12 24l105 152q25 38 53 38q21 0 36.5 -14.5t15.5 -34.5zM837 690q0 -26 -29 -26h-28q-29 -1 -37 -8t-9 -33l-1 -30v-315q0 -100 -21.5 -157t-72.5 -91q-81 -53 -209 -53q-109 0 -186 41q-43 22 -70 62
q-24 34 -33 73t-9 107v336q0 49 -8.5 58.5t-51.5 9.5h-6h-3q-35 0 -35 26q0 21 26 21h14q49 -4 108 -4q120 0 146 3q5 1 14 1q14 0 19 -5t5 -18t-6.5 -17.5t-25.5 -5.5l-21 -2q-15 0 -27 -2q-15 -2 -20 -10.5t-6 -31.5v-37v-295q0 -92 14 -140q16 -55 67.5 -86t125.5 -31
q89 0 147 42q35 26 52 70q17 47 17 150v289v35q0 31 -6 39t-28 9h-24l-22 1q-14 0 -19.5 5t-5.5 19q0 21 20 21h13q21 -4 103 -4q58 0 98 4q4 1 10 1q21 0 21 -21z" />
    <glyph glyph-name="Ucircumflex" unicode="&#xdb;" horiz-adv-x="858" 
d="M630 778q-36 -22 -77 -22h-7l-104 141l-102 -138q-10 -2 -15 -2q-19 0 -36 13l151 189q13 16 23 16q12 0 25 -16zM837 690q0 -26 -29 -26h-28q-29 -1 -37 -8t-9 -33l-1 -30v-315q0 -100 -21.5 -157t-72.5 -91q-81 -53 -209 -53q-109 0 -186 41q-43 22 -70 62
q-24 34 -33 73t-9 107v336q0 49 -8.5 58.5t-51.5 9.5h-6h-3q-35 0 -35 26q0 21 26 21h14q49 -4 108 -4q120 0 146 3q5 1 14 1q14 0 19 -5t5 -18t-6.5 -17.5t-25.5 -5.5l-21 -2q-15 0 -27 -2q-15 -2 -20 -10.5t-6 -31.5v-37v-295q0 -92 14 -140q16 -55 67.5 -86t125.5 -31
q89 0 147 42q35 26 52 70q17 47 17 150v289v35q0 31 -6 39t-28 9h-24l-22 1q-14 0 -19.5 5t-5.5 19q0 21 20 21h13q21 -4 103 -4q58 0 98 4q4 1 10 1q21 0 21 -21z" />
    <glyph glyph-name="Udieresis" unicode="&#xdc;" horiz-adv-x="858" 
d="M655 850q0 -29 -20.5 -49t-49.5 -20t-49 20.5t-20 48.5q0 29 20 49.5t49 20.5t49.5 -20.5t20.5 -49.5zM393 850q0 -28 -20.5 -48.5t-49.5 -20.5t-49.5 20.5t-20.5 48.5q0 29 20.5 49.5t49.5 20.5t49.5 -20.5t20.5 -49.5zM837 690q0 -26 -29 -26h-28q-29 -1 -37 -8t-9 -33
l-1 -30v-315q0 -100 -21.5 -157t-72.5 -91q-81 -53 -209 -53q-109 0 -186 41q-43 22 -70 62q-24 34 -33 73t-9 107v336q0 49 -8.5 58.5t-51.5 9.5h-6h-3q-35 0 -35 26q0 21 26 21h14q49 -4 108 -4q120 0 146 3q5 1 14 1q14 0 19 -5t5 -18t-6.5 -17.5t-25.5 -5.5l-21 -2
q-15 0 -27 -2q-15 -2 -20 -10.5t-6 -31.5v-37v-295q0 -92 14 -140q16 -55 67.5 -86t125.5 -31q89 0 147 42q35 26 52 70q17 47 17 150v289v35q0 31 -6 39t-28 9h-24l-22 1q-14 0 -19.5 5t-5.5 19q0 21 20 21h13q21 -4 103 -4q58 0 98 4q4 1 10 1q21 0 21 -21z" />
    <glyph glyph-name="Yacute" unicode="&#xdd;" horiz-adv-x="820" 
d="M521 929q0 -26 -34 -52l-152 -120q-12 -9 -20 -9q-6 0 -11 5t-5 11t12 24l105 152q16 22 27 30t27 8q21 0 36 -14.5t15 -34.5zM813 688q0 -13 -8 -18t-30 -6q-42 -2 -62 -17q-18 -14 -52 -69l-201 -316v-155q0 -31 2 -40.5t9 -15.5q7 -5 22 -5h24l29 -1h19q23 0 23 -25
q0 -23 -23 -23q-8 0 -12 1q-18 2 -55 3q-94 2 -99 2q-36 0 -99 -3q-8 0 -25.5 -0.5t-23.5 -1.5q-5 -1 -12 -1q-25 0 -25 23q0 24 27 24h25l9 -1q25 0 40 4q17 4 21.5 15t4.5 47v155l-201 332q-23 39 -37 52q-16 13 -66 13h-3q-15 0 -21 5.5t-6 19.5q0 24 22 24q1 0 4.5 -0.5
t5.5 -0.5q11 0 23 -1q16 0 36 -1q27 -1 79 -1l78 1q34 0 37 1q17 0 24 1q5 1 13 1q24 0 24 -24q0 -23 -41 -23q-4 0 -11 -0.5t-8 -0.5l-16 -1q-22 0 -22 -15q0 -7 5 -15l13 -21l171 -292l160 266l25 41q7 14 7 23q0 15 -22 15l-21 1h-23h-2q-16 0 -22.5 5t-6.5 19
q0 22 21 22h9q16 -2 38 -2q56 -2 81 -2q68 0 93 4q4 1 12 1q20 0 20 -23z" />
    <glyph glyph-name="Thorn" unicode="&#xde;" horiz-adv-x="683" 
d="M644 368q0 -103 -62.5 -161t-173.5 -58q-54 0 -138 19v-60v-28q1 -23 11 -29.5t46 -6.5h23h22q16 0 22 -4.5t6 -17.5q0 -25 -19 -25q-10 0 -16 1q-16 2 -24 2q-36 3 -135 3q-42 0 -90 -2l-32 -2q-6 0 -13 -0.5t-9 -0.5q-5 -1 -12 -1q-22 0 -22 21q0 7 4 15q5 7 11 7
q2 1 19 1h25l26 1q24 0 32 13q5 7 5 49v492l1 33q0 16 -8 26q-7 8 -42 8h-24q-7 0 -15.5 0.5t-9.5 0.5q-15 3 -15 25t19 22q1 0 5 -0.5t7 -0.5q18 -3 74 -4q43 -1 85 -1q43 0 70 1q18 0 58 2q4 1 11 1q26 0 26 -21q0 -26 -25 -26h-4q-8 1 -38 1q-18 0 -28 -1
q-19 -2 -23 -9.5t-4 -41.5v-30l10 1q54 5 104 5q134 0 197 -53t63 -166zM514 369q0 90 -37.5 133.5t-115.5 43.5q-63 0 -79 -11q-12 -11 -12 -49v-286q46 -11 84 -11q84 0 122 43t38 137z" />
    <glyph glyph-name="germandbls" unicode="&#xdf;" horiz-adv-x="603" 
d="M571 144q0 -66 -44.5 -110t-112.5 -44q-41 0 -67.5 18.5t-26.5 47.5q0 20 14 33t35 13q22 0 36 -12.5t17 -34.5l2 -17q3 -11 13 -11q23 0 40 18.5t17 44.5t-10 43q-19 35 -83 91l-40 35q-49 43 -49 92q0 23 7 39t31 48l30 42q6 8 33 46q25 42 25 87q0 36 -26.5 59
t-67.5 23q-58 0 -94 -39q-18 -19 -27 -47q-10 -28 -12.5 -53t-2.5 -100v-350l1 -27q1 -24 7 -31.5t24 -7.5h3h3q16 0 22 -4.5t6 -15.5q0 -21 -23 -21q-10 0 -15 1l-34 2q-14 0 -28.5 0.5t-15.5 0.5h-6l-54 -2q-6 0 -14.5 -0.5t-13 -1t-7.5 -0.5q-4 -1 -10 -1q-18 0 -18 21
q0 12 6.5 16t25.5 4h5q32 0 40 10q4 8 4 21v35v310h-29q-28 0 -38 4.5t-10 17.5q0 21 21 25l24 5q20 3 29 34l9 37q50 201 249 201q70 0 114.5 -36t44.5 -92q0 -27 -13 -52q-11 -21 -23 -34.5t-48 -40.5q-34 -25 -46.5 -43t-12.5 -39q0 -20 11 -34.5t49 -44.5
q9 -7 18.5 -14.5t15.5 -12.5t9 -7q24 -21 43 -45q38 -47 38 -100z" />
    <glyph glyph-name="agrave" unicode="&#xe0;" horiz-adv-x="488" 
d="M303 559q0 -8 -6.5 -14.5t-14.5 -6.5t-15 7l-3 2l-4 4l-106 130q-24 30 -24 48t13.5 31t32.5 13q30 0 47 -36l74 -160q6 -12 6 -18zM484 47q0 -21 -36 -37.5t-82 -16.5q-35 0 -49 15.5t-16 56.5v15q-4 -4 -29 -26l-33 -29q-41 -36 -81 -36q-43 0 -72.5 31t-29.5 75
q0 65 65 112.5t183 68.5v18l-1 41v36q-2 21 -15 37q-29 37 -91 37q-26 0 -44.5 -9t-18.5 -22q0 -7 6 -11l12 -10q20 -17 20 -42q0 -23 -17.5 -38.5t-44.5 -15.5q-26 0 -41.5 16t-15.5 42q0 34 28 64q33 35 85 57t101 22q60 0 97 -35q17 -16 23.5 -37t6.5 -60q0 -31 -1 -51
l-4 -172v-19q0 -38 6 -50t26 -12q8 0 28 4q12 2 15 2q20 0 20 -21zM304 248q-81 -16 -118.5 -45t-37.5 -74q0 -29 15.5 -48t38.5 -19q27 0 63 26l30 22l7 5z" />
    <glyph glyph-name="aacute" unicode="&#xe1;" horiz-adv-x="488" 
d="M375 723q0 -17 -24 -48l-107 -129l-2 -2q-11 -12 -20 -12q-8 0 -14 6t-6 15q0 6 3 18l76 160q16 36 47 36q19 0 33 -13t14 -31zM484 47q0 -21 -36 -37.5t-82 -16.5q-35 0 -49 15.5t-16 56.5v15q-4 -4 -29 -26l-33 -29q-41 -36 -81 -36q-43 0 -72.5 31t-29.5 75
q0 65 65 112.5t183 68.5v18l-1 41v36q-2 21 -15 37q-29 37 -91 37q-26 0 -44.5 -9t-18.5 -22q0 -7 6 -11l12 -10q20 -17 20 -42q0 -23 -17.5 -38.5t-44.5 -15.5q-26 0 -41.5 16t-15.5 42q0 34 28 64q33 35 85 57t101 22q60 0 97 -35q17 -16 23.5 -37t6.5 -60q0 -31 -1 -51
l-4 -172v-19q0 -38 6 -50t26 -12q8 0 28 4q12 2 15 2q20 0 20 -21zM304 248q-81 -16 -118.5 -45t-37.5 -74q0 -29 15.5 -48t38.5 -19q27 0 63 26l30 22l7 5z" />
    <glyph glyph-name="acircumflex" unicode="&#xe2;" horiz-adv-x="488" 
d="M378 571q-28 -20 -54 -20q-6 0 -13 2l-70 127l-69 -127q-4 0 -7 -0.5t-4 -0.5q-12 0 -30 12l106 173q4 7 8 11q6 6 12 6q9 0 19 -14zM484 47q0 -21 -36 -37.5t-82 -16.5q-35 0 -49 15.5t-16 56.5v15q-4 -4 -29 -26l-33 -29q-41 -36 -81 -36q-43 0 -72.5 31t-29.5 75
q0 65 65 112.5t183 68.5v18l-1 41v36q-2 21 -15 37q-29 37 -91 37q-26 0 -44.5 -9t-18.5 -22q0 -7 6 -11l12 -10q20 -17 20 -42q0 -23 -17.5 -38.5t-44.5 -15.5q-26 0 -41.5 16t-15.5 42q0 34 28 64q33 35 85 57t101 22q60 0 97 -35q17 -16 23.5 -37t6.5 -60q0 -31 -1 -51
l-4 -172v-19q0 -38 6 -50t26 -12q8 0 28 4q12 2 15 2q20 0 20 -21zM304 248q-81 -16 -118.5 -45t-37.5 -74q0 -29 15.5 -48t38.5 -19q27 0 63 26l30 22l7 5z" />
    <glyph glyph-name="atilde" unicode="&#xe3;" horiz-adv-x="488" 
d="M415 677q0 -20 -23 -61q-10 -19 -21.5 -25.5t-35.5 -6.5h-30l-39 1l-36 2l-39 1h-12q-31 0 -42.5 -4t-11.5 -16q0 -3 5 -17q2 -8 2 -14q0 -15 -16 -15q-10 0 -17 6.5t-7 14.5q0 39 25 82q12 22 29.5 30t51.5 8q16 0 44 -2l33 -4q12 -1 39 -3q26 -2 46 -2q23 0 23 6
q-1 0 -1 1l-9 8q-6 4 -6 14q0 9 7.5 16t17.5 7q9 0 16 -8t7 -19zM484 47q0 -21 -36 -37.5t-82 -16.5q-35 0 -49 15.5t-16 56.5v15q-4 -4 -29 -26l-33 -29q-41 -36 -81 -36q-43 0 -72.5 31t-29.5 75q0 65 65 112.5t183 68.5v18l-1 41v36q-2 21 -15 37q-29 37 -91 37
q-26 0 -44.5 -9t-18.5 -22q0 -7 6 -11l12 -10q20 -17 20 -42q0 -23 -17.5 -38.5t-44.5 -15.5q-26 0 -41.5 16t-15.5 42q0 34 28 64q33 35 85 57t101 22q60 0 97 -35q17 -16 23.5 -37t6.5 -60q0 -31 -1 -51l-4 -172v-19q0 -38 6 -50t26 -12q8 0 28 4q12 2 15 2q20 0 20 -21z
M304 248q-81 -16 -118.5 -45t-37.5 -74q0 -29 15.5 -48t38.5 -19q27 0 63 26l30 22l7 5z" />
    <glyph glyph-name="adieresis" unicode="&#xe4;" horiz-adv-x="488" 
d="M400 629q0 -26 -18.5 -45t-44.5 -19t-44.5 19t-18.5 45q0 25 19 44t44 19t44 -19t19 -44zM220 629q0 -26 -19 -45t-45 -19t-44.5 19t-18.5 45q0 25 18.5 44t44.5 19t45 -18.5t19 -44.5zM484 47q0 -21 -36 -37.5t-82 -16.5q-35 0 -49 15.5t-16 56.5v15q-4 -4 -29 -26
l-33 -29q-41 -36 -81 -36q-43 0 -72.5 31t-29.5 75q0 65 65 112.5t183 68.5v18l-1 41v36q-2 21 -15 37q-29 37 -91 37q-26 0 -44.5 -9t-18.5 -22q0 -7 6 -11l12 -10q20 -17 20 -42q0 -23 -17.5 -38.5t-44.5 -15.5q-26 0 -41.5 16t-15.5 42q0 34 28 64q33 35 85 57t101 22
q60 0 97 -35q17 -16 23.5 -37t6.5 -60q0 -31 -1 -51l-4 -172v-19q0 -38 6 -50t26 -12q8 0 28 4q12 2 15 2q20 0 20 -21zM304 248q-81 -16 -118.5 -45t-37.5 -74q0 -29 15.5 -48t38.5 -19q27 0 63 26l30 22l7 5z" />
    <glyph glyph-name="aring" unicode="&#xe5;" horiz-adv-x="488" 
d="M355 630q0 -40 -28.5 -69t-69.5 -29t-69.5 29t-28.5 69t28.5 69t69.5 29t69.5 -29t28.5 -69zM484 47q0 -21 -36 -37.5t-82 -16.5q-35 0 -49 15.5t-16 56.5v15q-4 -4 -29 -26l-33 -29q-41 -36 -81 -36q-43 0 -72.5 31t-29.5 75q0 65 65 112.5t183 68.5v18l-1 41v36
q-2 21 -15 37q-29 37 -91 37q-26 0 -44.5 -9t-18.5 -22q0 -7 6 -11l12 -10q20 -17 20 -42q0 -23 -17.5 -38.5t-44.5 -15.5q-26 0 -41.5 16t-15.5 42q0 34 28 64q33 35 85 57t101 22q60 0 97 -35q17 -16 23.5 -37t6.5 -60q0 -31 -1 -51l-4 -172v-19q0 -38 6 -50t26 -12
q8 0 28 4q12 2 15 2q20 0 20 -21zM313 630q0 23 -16.5 39.5t-39.5 16.5q-24 0 -40 -16.5t-16 -39.5t16 -39.5t40 -16.5q23 0 39.5 16.5t16.5 39.5zM304 248q-81 -16 -118.5 -45t-37.5 -74q0 -29 15.5 -48t38.5 -19q27 0 63 26l30 22l7 5z" />
    <glyph glyph-name="ae" unicode="&#xe6;" horiz-adv-x="743" 
d="M697 321q0 -6 -2 -24q-2 -13 -6.5 -16.5t-16.5 -4.5h-25l-265 -14q-1 -14 -1 -29q0 -167 140 -167q28 0 54 8q16 6 48 23q18 10 25 17q19 17 28 17q15 0 15 -15q0 -17 -16 -43q-27 -41 -77 -64.5t-108 -23.5q-119 0 -172 93q-39 -28 -52 -36l-42 -27q-45 -27 -71 -27
q-40 0 -69 32t-29 76q0 133 238 182v17l1 37v5q0 45 -13 66q-25 41 -88 41q-25 0 -41 -8t-16 -21q0 -9 7 -13l15 -12q14 -12 14 -36q0 -25 -17 -41t-43 -16q-27 0 -43 16t-16 42q0 39 43 78q71 65 165 65q79 0 107 -65q32 39 61.5 54.5t72.5 15.5q81 0 138 -53t57 -129z
M592 331q0 59 -27.5 95t-71.5 36q-99 0 -111 -169l209 23q1 6 1 15zM307 105q-1 4 -5 18q-8 35 -8 71v37v18q-148 -36 -148 -119q0 -29 15 -49.5t37 -20.5q27 0 59 18l36 20z" />
    <glyph glyph-name="ccedilla" unicode="&#xe7;" horiz-adv-x="491" 
d="M462 98q0 -15 -19 -37q-60 -72 -162 -78q-8 -11 -17 -21q-11 -13 -23 -23q34 -5 52.5 -25.5t18.5 -51.5q0 -39 -36.5 -69.5t-82.5 -30.5q-22 0 -35.5 9t-13.5 22q0 21 34 28q15 -22 31 -22q14 0 23 12.5t9 30.5q0 44 -58 51q-15 0 -15 13q0 6 10 15q2 2 10 8q16 13 38 37
l16 18q-88 10 -142 80t-54 177q0 114 69 187.5t176 73.5q71 0 120.5 -33.5t49.5 -80.5q0 -28 -18.5 -45t-47.5 -17q-27 0 -44 16t-17 42q0 14 7 34q2 10 2 11q0 12 -18.5 20.5t-44.5 8.5q-63 0 -101.5 -52.5t-38.5 -137.5q0 -94 45 -151.5t119 -57.5q56 0 107 40q9 8 16 13
q9 7 16 7q19 0 19 -21z" />
    <glyph glyph-name="egrave" unicode="&#xe8;" horiz-adv-x="513" 
d="M314 559q0 -8 -6.5 -14.5t-14.5 -6.5t-15 7l-2 2q-3 2 -5 4l-106 130q-24 30 -24 48t13.5 31t32.5 13q30 0 47 -36l74 -160q6 -12 6 -18zM467 322q0 -27 -5 -40q-5 -9 -26 -9h-2h-20l-274 5q-1 -15 -1 -30q0 -87 39.5 -135t111.5 -48q77 0 134 52q14 13 22 13
q15 0 15 -18q0 -15 -18 -40q-67 -91 -180 -91q-99 0 -158.5 70t-59.5 186q0 117 63.5 191t163.5 74q81 0 138 -52.5t57 -127.5zM363 318q-3 141 -104 141q-99 0 -114 -148z" />
    <glyph glyph-name="eacute" unicode="&#xe9;" horiz-adv-x="513" 
d="M394 723q0 -17 -24 -48l-107 -129l-2 -2q-11 -12 -20 -12q-8 0 -14 6t-6 15q0 6 3 18l76 160q16 36 47 36q19 0 33 -13t14 -31zM467 322q0 -27 -5 -40q-5 -9 -26 -9h-2h-20l-274 5q-1 -15 -1 -30q0 -87 39.5 -135t111.5 -48q77 0 134 52q14 13 22 13q15 0 15 -18
q0 -15 -18 -40q-67 -91 -180 -91q-99 0 -158.5 70t-59.5 186q0 117 63.5 191t163.5 74q81 0 138 -52.5t57 -127.5zM363 318q-3 141 -104 141q-99 0 -114 -148z" />
    <glyph glyph-name="ecircumflex" unicode="&#xea;" horiz-adv-x="513" 
d="M400 551q-28 -20 -54 -20q-6 0 -13 2l-70 127l-69 -127q-4 0 -7 -0.5t-4 -0.5q-12 0 -30 12l106 173q4 7 8 11q6 6 12 6q9 0 19 -14zM467 322q0 -27 -5 -40q-5 -9 -26 -9h-2h-20l-274 5q-1 -15 -1 -30q0 -87 39.5 -135t111.5 -48q77 0 134 52q14 13 22 13q15 0 15 -18
q0 -15 -18 -40q-67 -91 -180 -91q-99 0 -158.5 70t-59.5 186q0 117 63.5 191t163.5 74q81 0 138 -52.5t57 -127.5zM363 318q-3 141 -104 141q-99 0 -114 -148z" />
    <glyph glyph-name="edieresis" unicode="&#xeb;" horiz-adv-x="513" 
d="M425 629q0 -26 -18.5 -45t-44.5 -19t-44.5 19t-18.5 45q0 25 18.5 44t44.5 19t44.5 -19t18.5 -44zM245 629q0 -26 -19 -45t-45 -19t-44.5 19t-18.5 45q0 25 19 44t44 19q26 0 45 -18.5t19 -44.5zM467 322q0 -27 -5 -40q-5 -9 -26 -9h-2h-20l-274 5q-1 -15 -1 -30
q0 -87 39.5 -135t111.5 -48q77 0 134 52q14 13 22 13q15 0 15 -18q0 -15 -18 -40q-67 -91 -180 -91q-99 0 -158.5 70t-59.5 186q0 117 63.5 191t163.5 74q81 0 138 -52.5t57 -127.5zM363 318q-3 141 -104 141q-99 0 -114 -148z" />
    <glyph glyph-name="igrave" unicode="&#xec;" horiz-adv-x="303" 
d="M208 559q0 -8 -6.5 -14.5t-14.5 -6.5t-15 7l-2 2q-3 2 -5 4l-106 130q-24 30 -24 48t13.5 31t32.5 13q30 0 47 -36l74 -160q6 -12 6 -18zM282 18q0 -20 -23 -20q-2 0 -7 0.5t-8 0.5q-32 3 -78 3q-60 0 -94 -3q-5 -1 -13 -1q-24 0 -24 19q0 22 26 22h3h4q29 0 36.5 8.5
t7.5 40.5v25v191v34l-1 28q-1 20 -8.5 28t-31.5 13q-23 4 -31 10.5t-8 19.5t7.5 18.5t27.5 5.5q54 0 80 15l25 15q7 4 14 4q9 0 16 -7q8 -7 8 -14q0 -6 -1 -9q-5 -26 -5 -67v-288l1 -37q0 -21 6.5 -28t25.5 -7h2l3 1q40 0 40 -21z" />
    <glyph glyph-name="iacute" unicode="&#xed;" horiz-adv-x="303" 
d="M268 723q0 -17 -24 -48l-107 -129l-2 -2q-11 -12 -20 -12q-8 0 -14 6t-6 15q0 6 3 18l76 160q16 36 47 36q19 0 33 -13t14 -31zM282 18q0 -20 -23 -20q-2 0 -7 0.5t-8 0.5q-32 3 -78 3q-60 0 -94 -3q-5 -1 -13 -1q-24 0 -24 19q0 22 26 22h3h4q29 0 36.5 8.5t7.5 40.5v25
v191v34l-1 28q-1 20 -8.5 28t-31.5 13q-23 4 -31 10.5t-8 19.5t7.5 18.5t27.5 5.5q54 0 80 15l25 15q7 4 14 4q9 0 16 -7q8 -7 8 -14q0 -6 -1 -9q-5 -26 -5 -67v-288l1 -37q0 -21 6.5 -28t25.5 -7h2l3 1q40 0 40 -21z" />
    <glyph glyph-name="icircumflex" unicode="&#xee;" horiz-adv-x="303" 
d="M276 551q-27 -20 -54 -20q-6 0 -13 2l-70 127l-69 -127q-4 0 -7 -0.5t-4 -0.5q-12 0 -30 12l106 173q4 7 8 11q6 6 12 6q9 0 19 -14zM282 18q0 -20 -23 -20q-2 0 -7 0.5t-8 0.5q-32 3 -78 3q-60 0 -94 -3q-5 -1 -13 -1q-24 0 -24 19q0 22 26 22h3h4q29 0 36.5 8.5
t7.5 40.5v25v191v34l-1 28q-1 20 -8.5 28t-31.5 13q-23 4 -31 10.5t-8 19.5t7.5 18.5t27.5 5.5q54 0 80 15l25 15q7 4 14 4q9 0 16 -7q8 -7 8 -14q0 -6 -1 -9q-5 -26 -5 -67v-288l1 -37q0 -21 6.5 -28t25.5 -7h2l3 1q40 0 40 -21z" />
    <glyph glyph-name="idieresis" unicode="&#xef;" horiz-adv-x="303" 
d="M305 629q0 -26 -18.5 -45t-44.5 -19t-44.5 19t-18.5 45q0 25 18.5 44t44.5 19t44.5 -19t18.5 -44zM125 629q0 -26 -19 -45t-45 -19t-44.5 19t-18.5 45q0 25 19 44t44 19q26 0 45 -18.5t19 -44.5zM282 18q0 -20 -23 -20q-2 0 -7 0.5t-8 0.5q-32 3 -78 3q-60 0 -94 -3
q-5 -1 -13 -1q-24 0 -24 19q0 22 26 22h3h4q29 0 36.5 8.5t7.5 40.5v25v191v34l-1 28q-1 20 -8.5 28t-31.5 13q-23 4 -31 10.5t-8 19.5t7.5 18.5t27.5 5.5q54 0 80 15l25 15q7 4 14 4q9 0 16 -7q8 -7 8 -14q0 -6 -1 -9q-5 -26 -5 -67v-288l1 -37q0 -21 6.5 -28t25.5 -7h2
l3 1q40 0 40 -21z" />
    <glyph glyph-name="eth" unicode="&#xf0;" horiz-adv-x="578" 
d="M529 299q0 -151 -64 -234t-180 -83q-103 0 -171 74.5t-68 187.5q0 109 68 184t167 75q39 0 72 -15q35 -15 65 -57q-15 72 -32 121q-17 45 -48 86q-3 -2 -6.5 -4t-4.5 -2q-3 -2 -13.5 -10.5t-18.5 -14.5l-25 -21l-18 -15q-8 -4 -10 -4q-7 0 -13 8q-4 5 -4 13q0 12 24 25
q22 13 66 50q-3 2 -5.5 4.5l-4.5 4.5t-4 3.5t-3 2.5q-37 29 -83 29q-38 0 -43 -27q-4 -24 -12 -30q-8 -5 -21 -5q-17 0 -27.5 9.5t-10.5 25.5q0 28 30 44.5t82 16.5q45 0 78.5 -9.5t75.5 -34.5l11 10q2 2 11 9.5l15 12.5q19 16 24 16q8 0 15 -12q3 -5 3 -8q0 -10 -17 -21
q-6 -4 -12 -8.5t-9 -6.5t-4 -2q-5 -3 -13 -10q45 -39 71 -87q67 -123 67 -291zM427 261q0 60 -4 127q-22 24 -25 27q-22 21 -53.5 34t-59.5 13q-62 0 -98 -55.5t-36 -153.5q0 -231 138 -231q80 0 113 76q25 55 25 163z" />
    <glyph glyph-name="ntilde" unicode="&#xf1;" horiz-adv-x="592" 
d="M469 677q0 -20 -23 -61q-10 -19 -21.5 -25.5t-35.5 -6.5h-30l-39 1l-36 2l-39 1h-12q-31 0 -42.5 -4t-11.5 -16q0 -3 5 -17q2 -8 2 -14q0 -15 -16 -15q-10 0 -17 6.5t-7 14.5q0 39 25 82q12 22 29.5 30t51.5 8q16 0 44 -2l33 -4q12 -1 39 -3q26 -2 46 -2q23 0 23 6
q-1 0 -1 1l-9 8q-6 4 -6 14q0 9 7.5 16t17.5 7q9 0 16 -8t7 -19zM567 18q0 -20 -21 -20q-7 0 -10 1q-45 3 -75 3h-8l-47 -1q-31 0 -37 -1q-5 -1 -13 -1q-20 0 -20 19q0 9 4 14q2 4 6 5q6 2 11 2l6 1h12q16 0 22 6.5t6 22.5q0 13 1 18v20v175q0 61 -6 85q-13 63 -87 63
q-49 0 -112 -43v-280l1 -39q1 -18 6.5 -23.5t23.5 -5.5h13q26 0 26 -23q0 -18 -20 -18q-7 0 -11 1q-26 3 -86 3q-49 0 -81 -3q-4 -1 -11 -1q-22 0 -22 21q0 20 27 20q28 1 34.5 8t6.5 35l1 27v210q0 5 -0.5 23t-0.5 27q-1 19 -9.5 27.5t-31.5 12.5q-22 5 -29.5 10.5
t-7.5 16.5q0 23 34 27q54 6 79 18l24 13q7 4 15 4q20 0 20 -20v-10q-2 -18 -2 -46v-7q55 48 90 65.5t74 17.5q35 0 66 -14.5t47 -37.5q21 -32 21 -127v-211v-27q1 -9 1 -18q0 -6 4 -12q9 -12 24 -12q2 0 6.5 0.5t7.5 0.5h5q23 0 23 -22z" />
    <glyph glyph-name="ograve" unicode="&#xf2;" horiz-adv-x="579" 
d="M347 559q0 -8 -6.5 -14.5t-14.5 -6.5t-15 7l-3 2l-4 4l-106 130q-24 30 -24 48t13.5 31t32.5 13q30 0 47 -36l74 -160q6 -12 6 -18zM533 244q0 -115 -68 -187.5t-175 -72.5t-175.5 72.5t-68.5 187.5q0 114 68.5 187t175.5 73t175 -73t68 -187zM428 244q0 107 -35.5 163
t-102.5 56q-68 0 -103 -56t-35 -163t35.5 -163.5t102.5 -56.5t102.5 56.5t35.5 163.5z" />
    <glyph glyph-name="oacute" unicode="&#xf3;" horiz-adv-x="579" 
d="M417 723q0 -17 -24 -48l-107 -129l-2 -2q-11 -12 -20 -12q-8 0 -14 6t-6 15q0 6 3 18l76 160q16 36 47 36q19 0 33 -13t14 -31zM533 244q0 -115 -68 -187.5t-175 -72.5t-175.5 72.5t-68.5 187.5q0 114 68.5 187t175.5 73t175 -73t68 -187zM428 244q0 107 -35.5 163
t-102.5 56q-68 0 -103 -56t-35 -163t35.5 -163.5t102.5 -56.5t102.5 56.5t35.5 163.5z" />
    <glyph glyph-name="ocircumflex" unicode="&#xf4;" horiz-adv-x="579" 
d="M424 551q-28 -20 -54 -20q-6 0 -13 2l-70 127l-69 -127q-4 0 -7 -0.5t-4 -0.5q-12 0 -30 12l106 173q4 7 8 11q6 6 12 6q9 0 19 -14zM533 244q0 -115 -68 -187.5t-175 -72.5t-175.5 72.5t-68.5 187.5q0 114 68.5 187t175.5 73t175 -73t68 -187zM428 244q0 107 -35.5 163
t-102.5 56q-68 0 -103 -56t-35 -163t35.5 -163.5t102.5 -56.5t102.5 56.5t35.5 163.5z" />
    <glyph glyph-name="otilde" unicode="&#xf5;" horiz-adv-x="579" 
d="M464 677q0 -20 -23 -61q-10 -19 -21.5 -25.5t-35.5 -6.5h-30l-39 1l-36 2l-39 1h-12q-31 0 -42.5 -4t-11.5 -16q0 -3 5 -17q2 -8 2 -14q0 -15 -16 -15q-10 0 -17 6.5t-7 14.5q0 39 25 82q12 22 29.5 30t51.5 8q16 0 44 -2l33 -4q12 -1 39 -3q26 -2 46 -2q23 0 23 6
q-1 0 -1 1l-9 8q-6 4 -6 14q0 9 7.5 16t17.5 7q9 0 16 -8t7 -19zM533 244q0 -115 -68 -187.5t-175 -72.5t-175.5 72.5t-68.5 187.5q0 114 68.5 187t175.5 73t175 -73t68 -187zM428 244q0 107 -35.5 163t-102.5 56q-68 0 -103 -56t-35 -163t35.5 -163.5t102.5 -56.5
t102.5 56.5t35.5 163.5z" />
    <glyph glyph-name="odieresis" unicode="&#xf6;" horiz-adv-x="579" 
d="M454 629q0 -26 -18.5 -45t-44.5 -19t-44.5 19t-18.5 45q0 25 19 44t44 19t44 -19t19 -44zM274 629q0 -26 -19 -45t-45 -19t-44.5 19t-18.5 45q0 25 18.5 44t44.5 19t45 -18.5t19 -44.5zM533 244q0 -115 -68 -187.5t-175 -72.5t-175.5 72.5t-68.5 187.5q0 114 68.5 187
t175.5 73t175 -73t68 -187zM428 244q0 107 -35.5 163t-102.5 56q-68 0 -103 -56t-35 -163t35.5 -163.5t102.5 -56.5t102.5 56.5t35.5 163.5z" />
    <glyph glyph-name="divide" unicode="&#xf7;" horiz-adv-x="549" 
d="M341 504q0 -27 -19.5 -46.5t-46.5 -19.5t-46.5 19.5t-19.5 46.5t19.5 46.5t46.5 19.5q28 0 47 -19.5t19 -46.5zM538 349q0 -17 -11 -32q-12 1 -23 1q-3 0 -101 2l-128 1l-127 -1q-99 -2 -102 -2q-11 0 -22 -1q-12 17 -12 32t12 33q6 -1 13 -2t9 -1l34 -1h68l127 -1l128 1
q33 0 66 0.5t34 0.5q2 0 9.5 1t14.5 2q11 -17 11 -33zM331 205q0 -28 -19.5 -47.5t-46.5 -19.5q-28 0 -47.5 19.5t-19.5 47.5q0 27 19.5 46.5t47.5 19.5q27 0 46.5 -19.5t19.5 -46.5z" />
    <glyph glyph-name="oslash" unicode="&#xf8;" horiz-adv-x="583" 
d="M533 244q1 -115 -67.5 -187.5t-175.5 -72.5q-93 0 -160 58l-11 -14q-24 -30 -26 -33l-7 -9q-23 5 -23 24q0 17 44 55q-61 77 -61 179q0 114 68.5 187t175.5 73q97 0 163 -62l11 13l15 18q11 13 21 27q21 -9 21 -27q0 -14 -44 -56q56 -75 56 -173zM403 387q-2 6 -5 11.5
t-4 7.5q-34 57 -105 57q-67 0 -102 -56t-35 -163q0 -63 13 -112l17 17l67 71l71 76q17 18 34.5 37t25 27t9.5 10q5 5 14 17zM428 246q0 51 -12 103q-42 -42 -88 -89q-100 -106 -136 -145l-15 -16q37 -75 113 -75q68 0 103 56.5t35 165.5z" />
    <glyph glyph-name="ugrave" unicode="&#xf9;" horiz-adv-x="569" 
d="M342 559q0 -8 -6.5 -14.5t-14.5 -6.5t-15 7l-2 2q-3 2 -5 4l-106 130q-24 30 -24 48t13.5 31t32.5 13q30 0 47 -36l74 -160q6 -12 6 -18zM559 58q0 -20 -25 -24l-18 -4q-41 -8 -69 -23q-30 -15 -41 -15q-23 0 -23 25q0 13 1 22q0 3 0.5 12.5t0.5 15.5v10l-15 -11l-43 -36
q-50 -41 -102 -41q-131 0 -131 166v8l2 62l2 130v4q0 14 -1 27q0 20 -1 28q-1 33 -37 33l-16 -1q-25 0 -25 22t20 22h8q1 0 6 -0.5t9 -0.5q7 0 16 -0.5t14 -1t8 -0.5l43 1q20 0 25 1h8q18 0 18 -19v-7q-1 -4 -1.5 -16t-0.5 -18q0 -9 -0.5 -22t-0.5 -17q-1 -17 -1 -34
l-2 -140v-5q0 -85 18 -119t63 -34q59 0 116 50v252v40q-1 31 -5 37q-5 9 -38 9h-4h-14q-23 0 -23 22t22 22h18q46 -2 69 -2h23l19 1h4q17 0 22.5 -3.5t5.5 -16.5q0 -2 -3 -32q-4 -52 -4 -73v-185v-39v-7q0 -35 5 -42q9 -13 52 -13q15 -1 20.5 -5t5.5 -15z" />
    <glyph glyph-name="uacute" unicode="&#xfa;" horiz-adv-x="569" 
d="M392 723q0 -17 -24 -48l-107 -129l-2 -2q-11 -12 -20 -12q-8 0 -14 6t-6 15q0 6 3 18l76 160q16 36 47 36q19 0 33 -13t14 -31zM559 58q0 -20 -25 -24l-18 -4q-41 -8 -69 -23q-30 -15 -41 -15q-23 0 -23 25q0 13 1 22q0 3 0.5 12.5t0.5 15.5v10l-15 -11l-43 -36
q-50 -41 -102 -41q-131 0 -131 166v8l2 62l2 130v4q0 14 -1 27q0 20 -1 28q-1 33 -37 33l-16 -1q-25 0 -25 22t20 22h8q1 0 6 -0.5t9 -0.5q7 0 16 -0.5t14 -1t8 -0.5l43 1q20 0 25 1h8q18 0 18 -19v-7q-1 -4 -1.5 -16t-0.5 -18q0 -9 -0.5 -22t-0.5 -17q-1 -17 -1 -34
l-2 -140v-5q0 -85 18 -119t63 -34q59 0 116 50v252v40q-1 31 -5 37q-5 9 -38 9h-4h-14q-23 0 -23 22t22 22h18q46 -2 69 -2h23l19 1h4q17 0 22.5 -3.5t5.5 -16.5q0 -2 -3 -32q-4 -52 -4 -73v-185v-39v-7q0 -35 5 -42q9 -13 52 -13q15 -1 20.5 -5t5.5 -15z" />
    <glyph glyph-name="ucircumflex" unicode="&#xfb;" horiz-adv-x="569" 
d="M409 551q-28 -20 -54 -20q-6 0 -13 2l-70 127l-69 -127q-3 0 -7 -1h-4q-12 0 -30 12l106 173q4 7 8 11q6 6 12 6q9 0 19 -14zM559 58q0 -20 -25 -24l-18 -4q-41 -8 -69 -23q-30 -15 -41 -15q-23 0 -23 25q0 13 1 22q0 3 0.5 12.5t0.5 15.5v10l-15 -11l-43 -36
q-50 -41 -102 -41q-131 0 -131 166v8l2 62l2 130v4q0 14 -1 27q0 20 -1 28q-1 33 -37 33l-16 -1q-25 0 -25 22t20 22h8q1 0 6 -0.5t9 -0.5q7 0 16 -0.5t14 -1t8 -0.5l43 1q20 0 25 1h8q18 0 18 -19v-7q-1 -4 -1.5 -16t-0.5 -18q0 -9 -0.5 -22t-0.5 -17q-1 -17 -1 -34
l-2 -140v-5q0 -85 18 -119t63 -34q59 0 116 50v252v40q-1 31 -5 37q-5 9 -38 9h-4h-14q-23 0 -23 22t22 22h18q46 -2 69 -2h23l19 1h4q17 0 22.5 -3.5t5.5 -16.5q0 -2 -3 -32q-4 -52 -4 -73v-185v-39v-7q0 -35 5 -42q9 -13 52 -13q15 -1 20.5 -5t5.5 -15z" />
    <glyph glyph-name="udieresis" unicode="&#xfc;" horiz-adv-x="569" 
d="M439 629q0 -26 -18.5 -45t-44.5 -19t-44.5 19t-18.5 45q0 25 18.5 44t44.5 19t44.5 -19t18.5 -44zM259 629q0 -26 -19 -45t-45 -19t-44.5 19t-18.5 45q0 25 19 44t44 19q26 0 45 -18.5t19 -44.5zM559 58q0 -20 -25 -24l-18 -4q-41 -8 -69 -23q-30 -15 -41 -15
q-23 0 -23 25q0 13 1 22q0 3 0.5 12.5t0.5 15.5v10l-15 -11l-43 -36q-50 -41 -102 -41q-131 0 -131 166v8l2 62l2 130v4q0 14 -1 27q0 20 -1 28q-1 33 -37 33l-16 -1q-25 0 -25 22t20 22h8q1 0 6 -0.5t9 -0.5q7 0 16 -0.5t14 -1t8 -0.5l43 1q20 0 25 1h8q18 0 18 -19v-7
q-1 -4 -1.5 -16t-0.5 -18q0 -9 -0.5 -22t-0.5 -17q-1 -17 -1 -34l-2 -140v-5q0 -85 18 -119t63 -34q59 0 116 50v252v40q-1 31 -5 37q-5 9 -38 9h-4h-14q-23 0 -23 22t22 22h18q46 -2 69 -2h23l19 1h4q17 0 22.5 -3.5t5.5 -16.5q0 -2 -3 -32q-4 -52 -4 -73v-185v-39v-7
q0 -35 5 -42q9 -13 52 -13q15 -1 20.5 -5t5.5 -15z" />
    <glyph glyph-name="yacute" unicode="&#xfd;" horiz-adv-x="576" 
d="M375 723q0 -17 -24 -48l-107 -129l-2 -2q-11 -12 -20 -12q-8 0 -14 6t-6 15q0 6 3 18l76 160q16 36 47 36q19 0 33 -13t14 -31zM565 465q0 -21 -25 -21q-31 -1 -44.5 -14t-33.5 -63l-18 -44l-134 -333q2 -32 2 -33q0 -95 -53 -158.5t-133 -63.5q-43 0 -69 21.5t-26 56.5
q0 28 18.5 47t46.5 19q25 0 41.5 -15t16.5 -38q0 -19 -10 -32q-6 -8 -6 -11q0 -9 17 -9q40 0 70 40.5t30 95.5q0 69 -49 195l-104 263q-18 45 -27 57q-10 16 -36 19q-20 2 -26 6.5t-6 18.5q0 19 18 19q5 0 15 -2q14 -2 35 -2q11 0 23 -0.5t18.5 -1t9.5 -0.5h6l55 2
q24 1 37 1q10 2 14 2q17 0 17 -18q0 -26 -28 -26h-2q-23 0 -29.5 -3t-6.5 -14q0 -17 10 -40l74 -200q19 -55 25 -94q3 -16 4 -50h3q3 31 16 69l78 215l16 46q13 39 13 50q0 13 -8 17.5t-31 4.5q-28 0 -28 22q0 21 19 21q7 0 12 -1q15 -3 72 -3q61 0 76 3q4 1 11 1
q14 0 14 -22z" />
    <glyph glyph-name="thorn" unicode="&#xfe;" horiz-adv-x="578" 
d="M532 249q0 -116 -67.5 -185t-179.5 -69q-49 0 -103 22v-176q0 -41 7 -50q6 -9 36 -9h14l4 1q14 0 19.5 -4.5t5.5 -15.5q0 -24 -21 -24h-9q-42 5 -89 5q-67 0 -104 -5q-1 0 -5 -0.5t-5 -0.5q-22 0 -22 23q0 11 6.5 15t25.5 5q31 0 39 10q6 6 6 58v731l-1 21q0 28 -7 37
t-34 15q-41 10 -41 31q0 23 40 23l9 -1q37 0 70 19q21 12 23 13q8 3 17 3q23 0 23 -21q0 -4 -2 -12q-5 -29 -5 -62v-224q9 10 22 23q58 52 134 52q86 0 140 -69.5t54 -178.5zM431 228q0 97 -39 152t-107 55q-26 0 -46.5 -8t-56.5 -33v-309q52 -49 111 -49q65 0 101.5 50.5
t36.5 141.5z" />
    <glyph glyph-name="ydieresis" unicode="&#xff;" horiz-adv-x="576" 
d="M453 629q0 -26 -18.5 -45t-44.5 -19t-44.5 19t-18.5 45q0 25 18.5 44t44.5 19t44.5 -19t18.5 -44zM273 629q0 -26 -19 -45t-45 -19t-44.5 19t-18.5 45q0 25 19 44t44 19q26 0 45 -18.5t19 -44.5zM565 465q0 -21 -25 -21q-31 -1 -44.5 -14t-33.5 -63l-18 -44l-134 -333
q2 -32 2 -33q0 -95 -53 -158.5t-133 -63.5q-43 0 -69 21.5t-26 56.5q0 28 18.5 47t46.5 19q25 0 41.5 -15t16.5 -38q0 -19 -10 -32q-6 -8 -6 -11q0 -9 17 -9q40 0 70 40.5t30 95.5q0 69 -49 195l-104 263q-18 45 -27 57q-10 16 -36 19q-20 2 -26 6.5t-6 18.5q0 19 18 19
q5 0 15 -2q14 -2 35 -2q11 0 23 -0.5t18.5 -1t9.5 -0.5h6l55 2q24 1 37 1q10 2 14 2q17 0 17 -18q0 -26 -28 -26h-2q-23 0 -29.5 -3t-6.5 -14q0 -17 10 -40l74 -200q19 -55 25 -94q3 -16 4 -50h3q3 31 16 69l78 215l16 46q13 39 13 50q0 13 -8 17.5t-31 4.5q-28 0 -28 22
q0 21 19 21q7 0 12 -1q15 -3 72 -3q61 0 76 3q4 1 11 1q14 0 14 -22z" />
    <glyph glyph-name="dotlessi" unicode="&#x131;" horiz-adv-x="303" 
d="M282 18q0 -20 -23 -20q-2 0 -7 0.5t-8 0.5q-32 3 -78 3q-60 0 -94 -3q-5 -1 -13 -1q-24 0 -24 19q0 22 26 22h3h4q29 0 36.5 8.5t7.5 40.5v25v191v34l-1 28q-1 20 -8.5 28t-31.5 13q-23 4 -31 10.5t-8 19.5t7.5 18.5t27.5 5.5q54 0 80 15l25 15q7 4 14 4q9 0 16 -7
q8 -7 8 -14q0 -6 -1 -9q-5 -26 -5 -67v-288l1 -37q0 -21 6.5 -28t25.5 -7h2l3 1q40 0 40 -21z" />
    <glyph glyph-name="Lslash" unicode="&#x141;" horiz-adv-x="740" 
d="M734 221q0 -7 -7 -19q-10 -20 -17 -36q-4 -9 -11 -25t-9 -21q-13 -35 -13 -51q0 -8 4 -15l1 -2q2 -1 4 -3.5t5 -5.5q8 -11 8 -20q0 -11 -7.5 -18t-19.5 -7q-3 0 -4 1l-31 2l-55 1h-67h-278q-11 0 -87 -2q-42 -2 -56 -4q-4 0 -9.5 -0.5t-7.5 -0.5q-26 0 -26 26q0 21 29 21
q7 1 17 1q11 1 20 1q26 1 34.5 9t9.5 33v33v212q-21 -11 -54 -30q-23 -14 -43 -29q-14 17 -14 29q0 11 8 18.5t31 17.5q39 18 72 35v223v27q0 26 -7.5 33.5t-33.5 7.5h-25q-21 0 -28 5t-7 19q0 13 5 18t18 5q8 0 12 -1q8 -1 38 -1q57 -2 96 -2q104 0 137 5q3 0 7 0.5t5 0.5
q11 0 15 -4t4 -15q0 -30 -31 -30q-13 0 -21 1q-5 0 -14 0.5t-13 0.5q-25 0 -31 -10.5t-6 -49.5v-176l10 6l35 19l39 22q30 16 50 30q16 -17 16 -29q0 -14 -22 -25l-24 -12l-28 -13l-30 -15q-6 -3 -14.5 -7.5t-13.5 -7t-8 -4.5l-10 -6v-278q0 -44 10 -54q8 -8 71 -8h84
q52 0 73.5 8t39.5 33l27 39q29 42 80 91q24 21 42 21q26 0 26 -18z" />
    <glyph glyph-name="lslash" unicode="&#x142;" horiz-adv-x="343" 
d="M311 487q0 -16 -24 -29l-23 -13l-33 -18l-14 -7v-307q0 -39 1.5 -49t8.5 -16q6 -6 35 -8q20 -1 26.5 -5.5t6.5 -17.5q0 -18 -19 -18q-11 0 -18 1q-4 1 -36 1l-54 2l-56 -2q-9 0 -18 -0.5t-13.5 -1t-6.5 -0.5q-5 -1 -13 -1q-19 0 -19 21q0 20 30 20q37 2 42 7q11 9 11 62
v256l-8 -6l-30 -19l-19 -14l-14 -10q-8 -6 -11 -6q-15 0 -15 23q0 10 5.5 15.5t23.5 14.5q12 6 26 14q18 9 33 18l9 6v166q0 19 -2 49q-1 20 -8.5 26t-38.5 12q-34 6 -34 28q0 14 9 19t33 6q47 0 87 24q20 12 30 12q21 0 21 -20q0 -8 -1 -13q-1 -3 -1.5 -9.5t-0.5 -9.5
q-2 -34 -2 -55v-178q35 20 64 41q1 1 4.5 3.5t5.5 3.5q5 3 8 3t7 -5q5 -7 5 -16z" />
    <glyph glyph-name="OE" unicode="&#x152;" horiz-adv-x="1210" 
d="M1193 177q0 -8 -7 -20l-9 -19q-26 -48 -26 -74q0 -6 3 -14l7 -12q2 -4 2 -9q0 -13 -8.5 -21t-21.5 -8h-14q-7 1 -40 1q-18 0 -36 1h-37h-302q-85 0 -125 -7l-69 -10q-35 -5 -65 -5q-164 0 -265.5 104.5t-101.5 273.5q0 164 102.5 267.5t265.5 103.5q32 0 65 -5l65 -11
q47 -8 98 -8h303q67 0 94 4q18 2 21 2q23 0 23 -22q0 -9 -7 -20q-6 -11 -6 -17q0 -8 4 -17q15 -34 29 -58l10 -16q6 -8 6 -15q0 -10 -7.5 -17t-17.5 -7q-19 0 -57.5 28t-74.5 68q-22 25 -27.5 30t-13.5 8q-9 4 -60 4h-236q35 -25 52.5 -43t38.5 -53q46 -77 56 -176h14l27 1
q58 2 84 14q31 15 57 78q6 16 11 21t15 5q22 0 22 -21q0 -2 -0.5 -5.5t-0.5 -5.5q-6 -41 -6 -115v-39q1 -36 5 -70v-7q0 -21 -22 -21q-21 0 -26 26q-16 64 -51 83q-17 11 -40 13q-32 4 -75 4h-13q0 -55 -9 -93q-12 -56 -43 -109q-21 -35 -38.5 -54t-53.5 -46h277q33 0 57 6
q20 5 49 39q37 46 80 83q29 25 46 25q9 0 16 -6.5t7 -16.5zM667 357q0 328 -229 328q-107 0 -164.5 -83.5t-57.5 -240.5q0 -166 57.5 -251.5t168.5 -85.5q61 0 109.5 28.5t74.5 79.5q41 81 41 225z" />
    <glyph glyph-name="oe" unicode="&#x153;" horiz-adv-x="885" 
d="M839 322q0 -29 -4 -40q-5 -9 -26 -9h-2h-20l-274 5q-2 -15 -2 -30q0 -87 39.5 -135t111.5 -48q79 0 134 52q14 13 22 13q16 0 16 -18q0 -13 -18 -40q-67 -91 -177 -91q-45 0 -81 16q-32 13 -49.5 30t-38.5 54q-7 -9 -24 -28q-64 -69 -162 -69q-103 0 -170.5 74t-67.5 186
q0 114 68 187t175 73q125 0 184 -100q35 53 75 75.5t97 22.5q81 0 137.5 -52.5t56.5 -127.5zM736 313q-2 147 -103 147q-49 0 -79 -39t-37 -112zM428 244q0 106 -35.5 162.5t-102.5 56.5t-102.5 -56t-35.5 -163q0 -105 35.5 -160.5t102.5 -55.5t102.5 55.5t35.5 160.5z" />
    <glyph glyph-name="Scaron" unicode="&#x160;" horiz-adv-x="608" 
d="M475 962l-152 -190q-13 -16 -23 -16q-12 0 -25 16l-141 182q35 21 76 21h7l104 -141l103 139q9 1 14 1q19 0 37 -12zM544 194q0 -100 -66 -158.5t-178 -58.5q-37 0 -72 7q-34 6 -52 12q-4 0 -32 9q-12 2 -14 2q-6 0 -18 -4q-14 -2 -18 -2q-14 0 -20 10q-3 6 -3 13
q0 8 -1 19q-2 59 -26 123q-5 13 -5 20q0 8 7.5 14.5t17.5 6.5q13 0 28 -12q41 -31 81 -86l22 -31q38 -54 119 -54q64 0 104.5 32t40.5 82q0 54 -42 90q-46 40 -132 83l-79 40q-57 28 -87.5 76t-30.5 108q0 86 61 137.5t162 51.5q58 0 121 -22q11 -4 19 -4q4 0 12 4l15 8
q8 5 17 5q23 0 23 -27q0 -7 -1 -10q-1 -10 -1 -29q0 -48 13 -82q1 -4 2.5 -7.5t2.5 -6t1 -3.5q2 -6 2 -9q0 -9 -7.5 -15.5t-17.5 -6.5q-25 0 -72 70l-24 35q-22 31 -44 42.5t-63 11.5q-59 0 -95 -28t-36 -74q0 -44 31 -72q15 -14 35 -25.5t86 -43.5q115 -55 155 -91
q59 -54 59 -150z" />
    <glyph glyph-name="scaron" unicode="&#x161;" horiz-adv-x="432" 
d="M339 712l-106 -174q-5 -5 -5 -9q-8 -8 -14 -8q-11 0 -19 15l-102 169q28 19 53 19q7 0 15 -1l69 -127l68 126q6 1 12 1q12 0 29 -11zM378 136q0 -69 -44.5 -111.5t-117.5 -42.5q-33 0 -71 13q-23 8 -33 8q-7 0 -10 -1l-9 -2q-5 -2 -14 -2q-20 0 -20 23v11q0 2 0.5 5.5
t0.5 4.5q0 2 -0.5 5.5t-0.5 5.5q-4 46 -12 69q-5 13 -5 18q0 7 6 12t14 5q25 0 71 -71q19 -30 32 -43q22 -19 59 -19t60 20t23 51q0 25 -14 42q-21 25 -95 62q-68 34 -94 58q-37 35 -37 90q0 63 43 104.5t108 41.5q19 0 44 -5l21 -5q2 0 6 -0.5t5 -0.5q8 0 14 3l13 7
q5 3 11 3q20 0 21 -32q1 -35 11 -67q9 -29 9 -34q0 -10 -6 -16.5t-14 -6.5q-30 0 -76 71q-17 26 -31 34.5t-37 8.5q-33 0 -53.5 -17.5t-20.5 -46.5q0 -24 15.5 -41t54.5 -34q91 -41 125 -70q48 -39 48 -108z" />
    <glyph glyph-name="Ydieresis" unicode="&#x178;" horiz-adv-x="820" 
d="M622 856q0 -28 -20 -48.5t-49 -20.5t-49.5 20.5t-20.5 48.5q0 29 20.5 49.5t49.5 20.5t49 -20.5t20 -49.5zM360 856q0 -29 -20.5 -49t-49.5 -20q-28 0 -48.5 20.5t-20.5 48.5q0 29 20 49.5t49 20.5t49.5 -20.5t20.5 -49.5zM813 688q0 -13 -8 -18t-30 -6q-42 -2 -62 -17
q-18 -14 -52 -69l-201 -316v-155q0 -31 2 -40.5t9 -15.5q7 -5 22 -5h24l29 -1h19q23 0 23 -25q0 -23 -23 -23q-8 0 -12 1q-18 2 -55 3q-94 2 -99 2q-36 0 -99 -3q-8 0 -25.5 -0.5t-23.5 -1.5q-5 -1 -12 -1q-25 0 -25 23q0 24 27 24h25l9 -1q25 0 40 4q17 4 21.5 15t4.5 47
v155l-201 332q-23 39 -37 52q-16 13 -66 13h-3q-15 0 -21 5.5t-6 19.5q0 24 22 24q1 0 4.5 -0.5t5.5 -0.5q11 0 23 -1q16 0 36 -1q27 -1 79 -1l78 1q34 0 37 1q17 0 24 1q5 1 13 1q24 0 24 -24q0 -23 -41 -23q-4 0 -11 -0.5t-8 -0.5l-16 -1q-22 0 -22 -15q0 -7 5 -15l13 -21
l171 -292l160 266l25 41q7 14 7 23q0 15 -22 15l-21 1h-23h-2q-16 0 -22.5 5t-6.5 19q0 22 21 22h9q16 -2 38 -2q56 -2 81 -2q68 0 93 4q4 1 12 1q20 0 20 -23z" />
    <glyph glyph-name="Zcaron" unicode="&#x17d;" horiz-adv-x="782" 
d="M562 962l-152 -190q-13 -16 -23 -16q-12 0 -25 16l-141 182q35 21 76 21h7l104 -141l103 139q9 1 14 1q19 0 37 -12zM740 219q0 -8 -4 -13q-1 -2 -2.5 -4.5t-4.5 -7t-5 -8.5q-11 -18 -34 -73l-9 -23q-4 -11 -4 -21q0 -8 17 -23q12 -11 12 -22t-8 -19.5t-18 -8.5
q-6 0 -18 3q-12 2 -25 2q-27 2 -112 2h-295q-85 0 -137 -6q-3 0 -8 -0.5t-7 -0.5q-29 0 -29 27q0 7 3.5 11.5t20.5 20.5q10 10 20 23l19 24l442 560h-157q-72 -1 -88 -9q-16 -7 -72 -73q-42 -48 -66 -70q-30 -27 -50 -27q-9 0 -15 5t-6 12q0 8 5 14q1 4 10 16q53 88 53 118
q0 7 -15 19q-12 9 -12 22q0 21 22 21q2 0 6.5 -0.5t7.5 -0.5q32 -4 103 -4h289h50q25 0 41 3q20 3 27 3q23 0 23 -23q0 -13 -23 -36q-18 -18 -25 -28l-23 -30l-429 -548l218 1q82 1 104 12q19 10 34 32q2 2 31 42q76 107 120 107q10 0 16.5 -6t6.5 -15z" />
    <glyph glyph-name="zcaron" unicode="&#x17e;" horiz-adv-x="538" 
d="M392 712l-106 -174q-5 -5 -5 -9q-8 -8 -14 -8q-11 0 -19 15l-102 169q28 19 53 19q7 0 15 -1l69 -127l68 126q6 1 12 1q13 0 29 -11zM499 151q0 -2 -4 -14q-6 -11 -12 -24q-26 -55 -26 -63q0 -6 4 -10l6 -9q3 -4 3 -10q0 -9 -6.5 -15.5t-16.5 -6.5q-7 0 -13 1
q-18 2 -58 2h-216h-56q-16 0 -28 -2q-5 0 -10.5 -0.5t-8.5 -1t-4 -0.5q-9 0 -15 6t-6 15t22 32q9 7 19 22l293 370h-86q-51 0 -68 -8q-18 -7 -53 -48q-23 -24 -46 -46q-20 -19 -38 -19q-20 0 -20 15q0 8 16 36q30 53 30 64q0 6 -4 9l-10 10q-4 4 -4 10q0 20 21 20q9 0 14 -1
q20 -4 63 -4h201h43q6 0 30 3q4 1 12 1q23 0 23 -18q0 -11 -17 -29q-1 -1 -19 -21q-13 -16 -21 -26l-271 -348h114q30 0 37 1q20 0 35 9q15 8 45 47q52 67 83 67q23 0 23 -16z" />
    <glyph glyph-name="florin" unicode="&#x192;" horiz-adv-x="616" 
d="M665 649q0 -28 -20 -47.5t-49 -19.5q-27 0 -44.5 15.5t-17.5 37.5q0 16 9 33q7 14 7 19q0 20 -38 20q-45 0 -73 -36q-16 -18 -31 -49q-15 -36 -54 -151l-6 -16h5l45 1l45 2l25 2h6q26 0 26 -19q0 -25 -27 -25h-10q-5 1 -30 1l-41 1l-49 -1l-7 1l-4 -15l-28 -93
q-1 -4 -7 -22.5t-14.5 -45.5t-17.5 -57q-37 -116 -39 -120q-29 -89 -49 -139q-42 -94 -83 -140q-42 -46 -103 -46q-38 0 -61.5 18.5t-23.5 47.5q0 23 16 39.5t38 16.5t34.5 -11t20.5 -37q6 -23 18 -23t34 45q29 65 68 215l34 140q27 108 60 216l3 9h-31q-19 0 -27 -1h-9
q-18 0 -23.5 4.5t-5.5 17.5q0 22 24 22q7 0 11 -1q3 0 12 -0.5t16 -0.5h36h7q45 129 86 185q67 98 199 98q63 0 100.5 -25t37.5 -66z" />
    <glyph glyph-name="circumflex" unicode="&#x2c6;" 
d="M374 551q-28 -20 -54 -20q-6 0 -13 2l-70 127l-69 -127q-4 0 -7 -0.5t-4 -0.5q-12 0 -30 12l106 173q4 7 8 11q6 6 12 6q9 0 19 -14z" />
    <glyph glyph-name="caron" unicode="&#x2c7;" 
d="M373 712l-106 -174q-5 -5 -5 -9q-8 -8 -14 -8q-11 0 -19 15l-102 169q28 19 53 19q7 0 15 -1l69 -127l68 126q6 1 12 1q12 0 29 -11z" />
    <glyph glyph-name="breve" unicode="&#x2d8;" 
d="M392 663q0 -22 -11 -52q-15 -40 -45.5 -56.5t-89.5 -16.5q-76 0 -108 38q-13 14 -21.5 40t-8.5 47q0 24 22 24q19 0 19 -21v-5v-8q0 -23 21.5 -31t79.5 -8t79.5 8t21.5 31v8v5q0 21 19 21q22 0 22 -24z" />
    <glyph glyph-name="dotaccent" unicode="&#x2d9;" 
d="M314 633q0 -26 -19 -45t-45 -19t-45 19t-19 45t19 45t45 19t45 -19t19 -45z" />
    <glyph glyph-name="ring" unicode="&#x2da;" 
d="M348 630q0 -40 -29 -69t-69 -29t-69 29t-29 69t29 69t69 29t69 -29t29 -69zM306 630q0 23 -16.5 39.5t-39.5 16.5q-24 0 -40 -16.5t-16 -39.5t16 -39.5t40 -16.5q23 0 39.5 16.5t16.5 39.5z" />
    <glyph glyph-name="ogonek" unicode="&#x2db;" 
d="M423 -141q0 -8 -5 -16q-14 -24 -39.5 -39.5t-52.5 -15.5q-33 0 -54 20.5t-21 51.5q0 73 103 160l52 4q-87 -69 -87 -141q0 -20 11 -33.5t29 -13.5q21 0 33 26q6 13 17 13q14 0 14 -16z" />
    <glyph glyph-name="tilde" unicode="&#x2dc;" 
d="M412 677q0 -20 -23 -61q-10 -19 -21.5 -25.5t-35.5 -6.5h-30l-39 1l-36 2l-39 1h-12q-31 0 -42.5 -4t-11.5 -16q0 -3 5 -17q2 -8 2 -14q0 -15 -16 -15q-10 0 -17 6.5t-7 14.5q0 39 25 82q12 22 29.5 30t51.5 8q16 0 44 -2l33 -4q12 -1 39 -3q26 -2 46 -2q23 0 23 6
q-1 0 -1 1l-9 8q-6 4 -6 14q0 9 7.5 16t17.5 7q9 0 16 -8t7 -19z" />
    <glyph glyph-name="hungarumlaut" unicode="&#x2dd;" 
d="M400 723q0 -16 -22 -44l-107 -129q-1 -2 -6 -7t-11 -5q-14 0 -14 15q0 5 3 15l75 160q15 33 42 33q17 0 28.5 -11t11.5 -27zM261 723q0 -15 -23 -44l-107 -130q-2 -2 -3 -4l-2 -2q-5 -5 -12 -5q-14 0 -14 15q0 5 5 15l74 160q16 33 41 33q17 0 29 -11t12 -27z" />
    <glyph glyph-name="pi" unicode="&#x3c0;" horiz-adv-x="549" 
d="M604 439h-160q-34 -85 -34 -130v-165q0 -57 6.5 -74.5t29.5 -17.5q20 0 59 15v-31l-121 -46q-1 0 -4 -1l-2 -1q-1 0 -4 -1t-4 -1q-18 0 -37 31q-19 28 -19 83v162q0 52 19 89q3 8 22 44q17 34 25 44h-163l-1 -21l-1 -78q0 -27 -3 -84q-2 -46 -3 -68q-4 -66 -13 -129
q-6 -42 -20 -60t-40 -18q-19 0 -31 12.5t-12 32.5q0 27 12 56l9 25q25 60 37 174q7 57 12 158l-9 -1q-50 -1 -81 -21q-40 -30 -74 -74l-22 25l77 98q19 25 39 34q24 9 64 9h447v-70z" />
    <glyph glyph-name="endash" unicode="&#x2013;" horiz-adv-x="614" 
d="M578 279q0 -14 -10 -31h-18l-116 2q-18 1 -158 1q-110 0 -129 -1l-78 -2h-25q-8 19 -8 30q0 13 9 31h21l91 -2q73 -2 151 -1l142 1q67 0 99 2h20q9 -16 9 -30z" />
    <glyph glyph-name="emdash" unicode="&#x2014;" horiz-adv-x="634" 
d="M634 275q0 -23 -10 -42l-57 1q-222 2 -262 2q-146 0 -230 -2l-64 -1q-11 18 -11 35q0 16 8 42q26 -2 54 -2q86 -2 257 -2h60q155 0 246 4q9 -18 9 -35z" />
    <glyph glyph-name="quoteleft" unicode="&#x2018;" horiz-adv-x="274" 
d="M228 524q0 -32 -24.5 -53.5t-61.5 -21.5q-41 0 -67 29.5t-26 76.5q0 54 33 100q32 42 73 62q12 7 25 7q17 0 17 -14l-1 -2l-1 -2q-3 -6 -7 -9q-1 -1 -6 -4.5t-8 -5.5q-64 -43 -64 -112q0 -22 10 -36q13 42 54 42q23 0 38.5 -16t15.5 -41z" />
    <glyph glyph-name="quoteright" unicode="&#x2019;" horiz-adv-x="274" 
d="M225 618q0 -52 -33 -99q-32 -42 -73 -63q-12 -7 -24 -7q-18 0 -18 14l1 2v4q2 2 4 4.5t3 3.5t6.5 4t8.5 5q64 43 64 112q0 22 -9 37q-14 -43 -55 -43q-23 0 -38.5 16t-15.5 41q0 32 24.5 53.5t61.5 21.5q41 0 67 -29.5t26 -76.5z" />
    <glyph glyph-name="quotesinglbase" unicode="&#x201a;" horiz-adv-x="274" 
d="M225 19q0 -53 -33 -100q-34 -43 -73 -62q-12 -7 -24 -7q-18 0 -18 14l1 2q1 2 1 3q5 7 7 8q5 3 13 10q65 44 65 112q0 22 -9 36q-14 -42 -55 -42q-24 0 -39 15.5t-15 41.5q0 32 24.5 53.5t61.5 21.5q41 0 67 -30t26 -76z" />
    <glyph glyph-name="quotedblleft" unicode="&#x201c;" horiz-adv-x="491" 
d="M445 524q0 -32 -24.5 -53.5t-61.5 -21.5q-41 0 -67 29.5t-26 76.5q0 57 33 100q33 44 72 63q14 6 25 6q17 0 17 -14q0 -4 -2 -6q-2 -4 -7 -7q-1 -1 -5.5 -4.5t-7.5 -5.5q-64 -43 -64 -112q0 -22 9 -37q14 43 54 43q24 0 39.5 -16t15.5 -41zM228 524q0 -32 -24.5 -53.5
t-61.5 -21.5q-41 0 -67 29.5t-26 76.5q0 54 33 100q32 42 73 62q12 7 25 7q17 0 17 -14l-1 -2l-1 -2q-3 -6 -7 -9q-1 -1 -6 -4.5t-8 -5.5q-64 -43 -64 -112q0 -22 10 -36q13 42 54 42q23 0 38.5 -16t15.5 -41z" />
    <glyph glyph-name="quotedblright" unicode="&#x201d;" horiz-adv-x="491" 
d="M441 618q0 -54 -33 -100q-29 -39 -73 -62q-16 -7 -24 -7q-17 0 -17 14q0 3 2 7t6 7t15 9q63 44 63 112q0 22 -9 36q-13 -42 -54 -42q-25 0 -39.5 15.5t-14.5 41.5q0 32 24 53.5t61 21.5q41 0 67 -29.5t26 -76.5zM225 618q0 -52 -33 -99q-32 -42 -73 -63q-12 -7 -24 -7
q-18 0 -18 14l1 2v4q2 2 4 4.5t3 3.5t6.5 4t8.5 5q64 43 64 112q0 22 -9 37q-14 -43 -55 -43q-23 0 -38.5 16t-15.5 41q0 32 24.5 53.5t61.5 21.5q41 0 67 -29.5t26 -76.5z" />
    <glyph glyph-name="quotedblbase" unicode="&#x201e;" horiz-adv-x="491" 
d="M441 19q0 -55 -33 -101q-32 -41 -73 -61q-16 -7 -24 -7q-17 0 -17 14q0 4 2 6q2 5 7 7l14 10q63 43 63 112q0 21 -9 36q-13 -42 -54 -42q-25 0 -39.5 15.5t-14.5 41.5q0 32 24 53.5t61 21.5q41 0 67 -30t26 -76zM225 19q0 -53 -33 -100q-34 -43 -73 -62q-12 -7 -24 -7
q-18 0 -18 14l1 2q1 2 1 3q5 7 7 8q5 3 13 10q65 44 65 112q0 22 -9 36q-14 -42 -55 -42q-24 0 -39 15.5t-15 41.5q0 32 24.5 53.5t61.5 21.5q41 0 67 -30t26 -76z" />
    <glyph glyph-name="dagger" unicode="&#x2020;" horiz-adv-x="535" 
d="M497 411q0 -27 -8 -34.5t-38 -7.5q-7 0 -85 3q-53 4 -77 12q4 -16 10 -64q9 -81 11 -191l2 -130q0 -2 2 -128v-51l2 -38v-4q0 -28 -9 -36t-40 -8q-30 0 -39.5 7t-9.5 28v15q1 7 1 29v62l2 123l2 136q0 47 4 117q4 65 15 124l1 10q-5 -2 -10 -3l-10 -2t-8 -2
q-11 -2 -38 -4q-10 -1 -21.5 -1.5t-18.5 -1t-9 -0.5l-45 -1l-5 -1q-24 0 -31.5 8t-7.5 33q0 21 8.5 29.5t29.5 8.5q3 0 8 -0.5t15 -1t19 -0.5q33 -2 49 -3q54 -5 74 -10q-10 17 -11 80q0 9 -0.5 26t-1.5 24l-4 48l-2 32q-3 24 -3 31q0 20 13 32.5t35 12.5q46 0 46 -44
q0 -5 -2 -29l-3 -37l-3 -47l-2 -49q-2 -60 -13 -81q28 8 73 11q59 3 62 3q10 1 27 1q27 0 35.5 -7t8.5 -29z" />
    <glyph glyph-name="daggerdbl" unicode="&#x2021;" horiz-adv-x="535" 
d="M497 41q0 -20 -9 -27t-35 -7q-17 0 -27 1q-4 0 -62 3q-45 3 -73 10q11 -20 13 -81l2 -49l3 -46l3 -37q2 -22 2 -29q0 -45 -47 -45q-21 0 -34 12.5t-13 32.5q0 9 3 32q0 2 0.5 6t1 11.5t0.5 14.5l4 47q1 7 1.5 24.5t0.5 26.5q1 63 11 80q-22 -5 -34 -6q-13 -2 -40 -4
q-16 -1 -49 -3q-8 0 -18 -0.5t-15 -1t-8 -0.5q-23 0 -31 8t-8 32q0 23 8 30.5t31 7.5h5l45 -1q1 0 49 -4q5 0 38 -4q3 -1 8 -2l10 -2t10 -3l-2 10q-16 89 -16 148q0 60 16 149l2 10q-5 -2 -10 -3l-10 -2t-8 -2q-11 -2 -38 -4q-10 -1 -21.5 -1.5t-18.5 -1t-9 -0.5l-45 -1
l-5 -1q-24 0 -31.5 8t-7.5 33q0 21 8.5 29.5t29.5 8.5q3 0 8 -0.5t15 -1t19 -0.5q33 -2 49 -3q54 -5 74 -10q-10 17 -11 80q0 9 -0.5 26t-1.5 24l-4 48l-2 32q-3 24 -3 31q0 20 13 32.5t35 12.5q46 0 46 -44q0 -5 -2 -29l-3 -37l-3 -47l-2 -49q-2 -60 -13 -81q28 8 73 11
q59 3 62 3q10 1 27 1q27 0 35.5 -7t8.5 -29q0 -27 -8 -34.5t-38 -7.5q-7 0 -85 3q-53 4 -77 12q19 -95 19 -158q0 -60 -19 -158q13 5 36 8q7 1 22 2.5t19 2.5q69 4 85 4q29 0 37.5 -8t8.5 -36z" />
    <glyph glyph-name="bullet" unicode="&#x2022;" horiz-adv-x="260" 
d="M232 360q0 -41 -30 -71t-72 -30t-72 30t-30 71q0 42 30 72t72 30t72 -30t30 -72z" />
    <glyph glyph-name="ellipsis" unicode="&#x2026;" horiz-adv-x="1000" 
d="M907 61q0 -31 -21.5 -52.5t-51.5 -21.5t-51.5 21.5t-21.5 52.5q0 30 21.5 51.5t51.5 21.5t51.5 -21.5t21.5 -51.5zM573 61q0 -31 -21.5 -52.5t-51.5 -21.5t-51.5 21.5t-21.5 52.5q0 30 21.5 51.5t51.5 21.5t51.5 -21.5t21.5 -51.5zM240 61q0 -31 -21.5 -52.5t-51.5 -21.5
q-31 0 -52.5 21.5t-21.5 52.5q0 30 21.5 51.5t52.5 21.5q30 0 51.5 -21.5t21.5 -51.5z" />
    <glyph glyph-name="perthousand" unicode="&#x2030;" horiz-adv-x="1129" 
d="M342 537q0 -89 -42 -144.5t-109 -55.5q-66 0 -107.5 53.5t-41.5 140.5q0 89 42.5 144.5t109.5 55.5q66 0 107 -53.5t41 -140.5zM607 703q0 -9 -17 -39l-22 -39l-36 -61l-44 -78l-58 -105l-53 -97q-50 -93 -59 -112l-56 -111q-9 -19 -15 -31t-11 -23.5t-10 -20.5
q-30 0 -42 7.5t-12 23.5q0 12 18 41t95 171l56 103l58 107l62 115q15 28 29.5 55t21 39.5t7.5 14.5q5 10 14 29t13 28l7 15h5q49 0 49 -32zM1087 190q0 -90 -42 -145.5t-110 -55.5q-66 0 -107 53.5t-41 140.5q0 90 42 145.5t109 55.5t108 -53t41 -141zM737 190
q0 -90 -42 -145.5t-110 -55.5q-66 0 -107 53.5t-41 140.5q0 90 42 145.5t109 55.5t108 -53t41 -141zM257 546q0 81 -13.5 115t-48.5 34t-50 -37t-17 -123v-11q0 -83 13.5 -117t48.5 -34q37 0 52 40.5t15 132.5zM1002 192q0 81 -14 115t-49 34t-50 -37t-17 -123v-12
q0 -82 14 -116t49 -34q36 0 51.5 40.5t15.5 132.5zM652 192q0 81 -14 115t-49 34t-50 -37t-17 -123v-12q0 -82 14 -116t49 -34q36 0 51.5 40.5t15.5 132.5z" />
    <glyph glyph-name="guilsinglleft" unicode="&#x2039;" horiz-adv-x="298" 
d="M248 457q0 -16 -21 -68q-17 -42 -33 -67q-24 -42 -49 -61q28 -27 43 -49t32 -62q26 -62 26 -83q0 -19 -16 -19q-12 0 -21 17q-6 11 -14 23q-6 9 -18 24q-20 26 -39 49q-26 28 -40 41q-25 22 -76 60q52 37 81 62q27 26 58.5 64.5t44.5 62.5q11 24 26 24q16 0 16 -18z" />
    <glyph glyph-name="guilsinglright" unicode="&#x203a;" horiz-adv-x="298" 
d="M276 261q-52 -37 -81 -62q-27 -27 -58.5 -65t-44.5 -62q-15 -24 -27 -24q-15 0 -15 18q0 15 20 68q17 39 33 67q25 42 49 61q-27 27 -42 49t-32 63q-26 57 -26 83q0 18 16 18q12 0 20 -16q3 -5 8 -13.5t6 -10.5t19 -24q14 -19 38 -48q18 -23 41 -41q30 -28 76 -61z" />
    <glyph glyph-name="fraction" unicode="&#x2044;" horiz-adv-x="109" 
d="M272 703q0 -9 -17 -39l-22 -39l-36 -61l-44 -78l-58 -105l-53 -97q-50 -93 -59 -112l-56 -111q-9 -19 -15 -31t-11 -23.5t-10 -20.5q-30 0 -42 7.5t-12 23.5q0 12 18 41t95 171l56 103l58 107l62 115q15 28 29.5 55t21 39.5t7.5 14.5q5 10 14 29t13 28l7 15h5
q49 0 49 -32z" />
    <glyph glyph-name="trademark" unicode="&#x2122;" horiz-adv-x="1075" 
d="M1040 322q0 -19 -21 -19h-8q-24 3 -72 3h-32l-25 -1q-9 -1 -15 -1q-4 -1 -10 -1q-21 0 -21 21q0 19 17 19l18 1l18 1q6 0 6 5v11l1 16v285l-128 -292q-2 -3 -3 -10q-1 -2 -8 -19q-3 -9 -4 -11l-2 -8q-4 -16 -18 -16t-20 17q-8 26 -10 30l-9 20l-130 289l4 -279v-20
q1 -11 5.5 -14t20.5 -5q32 -4 32 -20q0 -21 -21 -21q-7 0 -11 1q-34 2 -47 2q-23 0 -47 -2q-5 -1 -12 -1q-19 0 -19 19q0 10 5.5 14.5t22.5 6.5t22 5q3 0 3 4q2 8 2 14v21l2 289v1q0 7 -3 7h-4q-6 0 -11 -1h-9q-25 0 -25 20t22 20q4 0 8 -1q13 -1 46 -1h6h25q9 1 19 1
q10 1 15 1q14 0 19 -14q33 -92 119 -274l115 270l3 6q5 11 17 11h10q4 -1 18 -1q13 -1 33 -1h30q4 0 12 0.5t11 1.5h11q18 0 18 -17q0 -14 -4.5 -19.5t-15.5 -5.5h-6q-6 0 -14 1h-13v-2v-14v-17v-271v-31q2 -2 28 -2h4q30 0 30 -22zM467 608q0 -18 -19 -18q-13 0 -31 22
q-1 1 -2.5 3t-5 6.5t-7.5 8.5q-12 15 -15 19q-8 8 -18 20q-12 11 -35 11l-28 1h-25v-324v-10q0 -2 10 -2h15h15q2 0 4 0.5t3 0.5q24 0 24 -22q0 -21 -23 -21h-14q-3 0 -7 0.5t-10 1t-11 0.5q-13 0 -28 0.5t-17 0.5q-1 0 -51 -2q-8 0 -18 -0.5t-11 -0.5q-3 0 -6.5 -0.5
t-4.5 -0.5q-23 0 -23 21t25 21h5h8q18 0 25 1q3 0 7 2l1 1v11v322h-25h-27q-14 0 -24 -2q-7 -1 -11.5 -6t-17.5 -24q-6 -10 -18 -22l-12 -16q-18 -21 -31 -21q-8 0 -13.5 5.5t-5.5 12.5q0 6 5 14q4 8 7 13q7 13 16 37q2 4 4 11l1 2l-6 4q-8 5 -8 16q0 18 18 18q5 0 12 -1
q16 -2 40 -2h40l42 -1h112l53 1h36q18 0 36 3h8q18 0 18 -18q0 -13 -15 -20l-1 1v1q0 -4 7 -17q1 -1 3.5 -7.5t4.5 -9.5q7 -15 15 -31q5 -8 5 -14zM48 685v2l-1 -2h1z" />
    <glyph glyph-name="Omega" unicode="&#x2126;" horiz-adv-x="768" 
d="M771 142l-43 -142h-307v59q59 32 89 57q58 47 90 118.5t32 154.5q0 132 -68.5 216.5t-177.5 84.5t-179 -86.5t-70 -221.5q0 -109 55 -192q26 -40 61.5 -69.5t94.5 -61.5v-59h-307l-43 142h33q14 -45 39 -61q26 -16 91 -17l98 -3q-51 21 -94 50q-70 49 -107.5 119.5
t-37.5 154.5q0 150 103 248.5t262 98.5q157 0 260.5 -97t103.5 -244q0 -118 -72 -209q-35 -43 -74 -70q-41 -29 -93 -51l104 3q59 2 83 17t42 61h32zM270 57v4h-11q2 -1 5.5 -2.5t5.5 -1.5zM510 61h-11l-4 -6z" />
    <glyph glyph-name="partialdiff" unicode="&#x2202;" horiz-adv-x="494" 
d="M485 253q0 -119 -66.5 -193.5t-172.5 -74.5q-103 0 -170.5 71t-67.5 180t67.5 181t168.5 72q81 0 131 -56q-30 87 -75 143q-57 76 -172 140l15 29q110 -48 185 -120q73 -70 115 -169.5t42 -202.5zM389 242q0 94 -38.5 151.5t-101.5 57.5t-104 -60.5t-41 -152.5
q0 -94 39.5 -155t101.5 -61q63 0 103.5 62.5t40.5 157.5z" />
    <glyph glyph-name="Delta" unicode="&#x2206;" horiz-adv-x="612" 
d="M567 0h-715l332 725h50zM423 68l-240 539l-209 -460q-2 -3 -3.5 -6.5t-2 -5.5t-1.5 -3l-1 -2q-9 -22 -9 -34q0 -16 12 -22t41 -6h413z" />
    <glyph glyph-name="product" unicode="&#x220f;" horiz-adv-x="823" 
d="M759 678h-28q-47 0 -58 -16q-9 -10 -9 -62v-739q0 -49 9 -62q9 -15 54 -15h31v-32h-293v32h29q45 0 56 15q8 11 8 62v739q0 50 -8 63q-10 15 -59 15h-158q-47 0 -58 -15q-9 -11 -9 -63v-739q0 -50 9 -62q11 -15 53 -15h32v-32h-292v32h28q44 0 56 16q9 10 9 61v739
q0 48 -9 62q-9 16 -56 16h-32v31h695v-31z" />
    <glyph glyph-name="summation" unicode="&#x2211;" horiz-adv-x="713" 
d="M662 -24l-38 -224h-573l262 477l-262 480h566v-181h-31q-10 81 -46 111t-124 30h-233l215 -397l-251 -456h268q78 0 123 20q67 34 92 140h32z" />
    <glyph glyph-name="minus" unicode="&#x2212;" horiz-adv-x="614" 
d="M570 355q0 -17 -11 -32q-12 1 -23 1q-3 0 -101 2l-128 1l-127 -1q-99 -2 -102 -2q-11 0 -22 -1q-12 17 -12 32t12 33q6 -1 13 -2t9 -1l34 -1h68l127 -1l128 1q33 0 66 0.5t34 0.5q2 0 9.5 1t14.5 2q11 -17 11 -33z" />
    <glyph glyph-name="radical" unicode="&#x221a;" horiz-adv-x="549" 
d="M617 845h-127l-197 -845h-100l-92 382h-169v42h253l79 -337l188 800h165v-42z" />
    <glyph glyph-name="infinity" unicode="&#x221e;" horiz-adv-x="713" 
d="M706 365q0 -81 -53 -137.5t-129 -56.5q-78 0 -136 58q-27 25 -54 69q-39 -64 -76 -91.5t-84 -27.5q-71 0 -119 50.5t-48 126.5q0 80 51.5 136.5t124.5 56.5q53 0 96 -29.5t85 -94.5q66 125 170 125q73 0 122.5 -53t49.5 -132zM666 362q0 51 -37.5 80.5t-102.5 29.5
q-45 0 -74 -17t-66 -65q19 -29 43 -60q61 -77 136 -77q43 0 72 31t29 78zM309 336q-25 39 -55 74q-48 57 -112 57q-42 0 -68.5 -30t-26.5 -76q0 -48 34.5 -76.5t91.5 -28.5q19 0 41 5q24 5 41 17.5t42 42.5z" />
    <glyph glyph-name="integral" unicode="&#x222b;" horiz-adv-x="274" 
d="M406 631q0 -28 -19 -48t-46 -20q-26 0 -44 17t-18 41q0 16 11 33q3 3 3 9q0 32 -27 32q-36 0 -56 -47.5t-20 -130.5v-499q0 -105 -12 -158q-17 -66 -61 -103t-107 -37q-60 0 -100.5 33.5t-40.5 83.5q0 28 19 47.5t46 19.5q25 0 43.5 -17t18.5 -40q0 -14 -8 -25l-4 -6
q-2 -6 -2 -11q0 -32 29 -32q35 0 54.5 45t19.5 124v506q0 111 12 160q16 64 61 101t106 37t101.5 -33t40.5 -82z" />
    <glyph glyph-name="approxequal" unicode="&#x2248;" horiz-adv-x="549" 
d="M521 502q-33 -54 -75.5 -83t-85.5 -29q-27 0 -73 14l-35 11q-60 19 -96 19q-28 0 -48 -12t-51 -49l-28 16q42 60 79.5 85.5t83.5 25.5q15 0 30 -3q23 -3 75 -20q63 -20 88 -20q56 0 109 59zM521 334q-33 -53 -75.5 -81.5t-85.5 -28.5q-27 0 -73 14l-35 11q-60 19 -95 19
q-28 0 -48 -12t-52 -49l-28 16q42 60 79.5 85.5t83.5 25.5q15 0 30 -3q23 -3 75 -20q63 -20 88 -20q57 0 109 59z" />
    <glyph glyph-name="notequal" unicode="&#x2260;" horiz-adv-x="549" 
d="M538 298q0 -17 -11 -32q-12 1 -23 1q-3 0 -101 2l-128 1h-16l-10 -19l-33 -59q-27 -47 -39 -70q-5 -3 -10 -3q-31 0 -44 34q10 15 42 68l27 47l1 1h-3h-92q-51 -1 -74 -3q-12 17 -12 32t12 33q33 -3 99 -4h80h24l4 7l20 34l17 29h-28l-92 -1q-90 0 -102 -1
q-1 0 -8.5 -0.5t-14.5 -0.5q-11 17 -11 32q0 14 11 31q7 0 14.5 -0.5t8.5 -0.5q2 0 36 -0.5t66 -0.5l141 -1h11l6 11l32 57q18 31 36 66h9q30 0 46 -32q-24 -37 -35 -56q-4 -7 -12.5 -21.5t-11.5 -19.5l-3 -5l13 1h72q26 0 75 3q11 -17 11 -32q0 -17 -11 -32q-60 2 -75 2
l-86 1h-33l-2 -4l-18 -30l-20 -34l-1 -3h15l96 1q98 2 101 2q11 0 23 2q11 -17 11 -33zM269 399l-1 -2z" />
    <glyph glyph-name="lessequal" unicode="&#x2264;" horiz-adv-x="549" 
d="M501 83l-452 291v13l452 279v-56l-322 -198l322 -204v-125zM501 -6h-453v50h453v-50z" />
    <glyph glyph-name="greaterequal" unicode="&#x2265;" horiz-adv-x="549" 
d="M501 360l-452 -277v56l322 198l-322 204v125l452 -293v-13zM501 -6h-453v50h453v-50z" />
    <glyph glyph-name="lozenge" unicode="&#x25ca;" horiz-adv-x="494" 
d="M531 355l-284 -383l-283 382l283 382zM449 354l-202 269l-201 -269l201 -269z" />
    <glyph glyph-name="apple" unicode="&#xf8ff;" horiz-adv-x="804" 
d="M672 272q0 -118 -64 -199.5t-139 -81.5q-29 0 -41.5 8.5t-18.5 8.5q-5 0 -19.5 -8.5t-48.5 -8.5q-23 0 -55 14.5t-68.5 45t-62 90.5t-25.5 138q0 164 135 164q44 0 71 -13t33 -13q9 0 14 6.5t5.5 18.5t-0.5 24t-3 29.5t-2 28.5q-2 105 54 146q15 11 43.5 19.5t50 13
t38.5 19t17 38.5h3q22 -59 4 -134q-8 -36 -39 -59.5t-62.5 -32.5t-56.5 -24t-25 -37q0 -59 29 -59q6 0 15.5 7t31.5 14.5t59 7.5q42 0 69.5 -14.5t39 -42.5t15 -52.5t3.5 -61.5zM582 709q-7 -16 -20 -30.5t-21 -21t-32 -22t-29 -19.5q-57 -39 -80 -104q13 25 27.5 42t24 24
t29 19.5t31.5 20.5q66 48 70 91zM312 137q-24 51 -24.5 83.5t10.5 58t11 42.5q0 41 -30 41q-28 0 -40 -18.5t-12 -43.5q0 -55 85 -163z" />
    </font>
</defs>
</svg>
